<svg xmlns="http://www.w3.org/2000/svg" viewBox="0 0 1000 595.46">
  <defs>
    <style>
      .cls-1 {
        fill: #30431f;
        stroke: #1a1e16;
        stroke-miterlimit: 10;
        stroke-width: 10px;
      }

      .cls-2 {
        fill: #5d702f;
      }
    </style>
  </defs>
  <g id="score">
    <g>
      <path class="cls-1" d="M987.07,280.88a26,26,0,0,1-3.25,37.49c-30.13,24.15-94.68,67.95-112.27,74.3-24.87,9-16.2-40-28.42-30.47-6.29,4.91-23.36,139-86,138.14-47.35-.67-20-95.71-28-97.95-2-.56-21.34,9.73-29.16,22.62C676.5,463.67,644,539.58,592.08,526.89c-54.5-13.33-26.81-104.48-40.56-94.59-9.79,7-114.11,193.88-188.43,148.05-50.31-31,5.61-107.11-16.12-108.09S185.18,566.89,161.2,513.05s27.34-78.93,14.59-92-76.41-7.15-91.55-29.72.42-33.18-6-41S6.42,331.17,6.42,282s64.87-49.92,68.42-59.45-15.54-27.36,0-43.37c31.65-32.6,111.26,5.78,130.67-16.35,20-22.82-37.41-44.82-12.9-88.33,43-76.37,179.35,73.84,195.72,37.57,9.83-21.79-53.3-65.57,7.29-98.88,64.71-35.59,167,119.24,177.21,118.51,12-.86-27.76-75,28.79-99.82,67.23-29.46,116.31,152.67,135,144.69,9.15-3.92-17.25-82.37,33.5-98.82,65.56-21.24,76.48,156.57,87.63,153.77,5.45-1.36-9-22.83,6-30.28,5.82-2.89,33.79,13,61.22,31.56C941,243.66,972.42,264.32,987.07,280.88Z"/>
      <path class="cls-2" d="M988.34,295c-3.89-.15-72-.84-155.82-1.42-10.41-15.1-21.75-40.39-32.38-78.66s-20.81-93.37-25.21-106.75l-1,.26,5,25c3.1,16.43,6.42,33.58,8.89,50.05,1.24,8.32,16.93,85.14,38.14,107.2.95,1,1.91,1.92,2.89,2.86-33.8-.23-69.15-.43-102.21-.54-5.69-7-11.73-13.78-16.62-21.27C697.7,252.9,687,239.63,676.76,219.57c-26.29-49.82-48.31-110.26-71.36-161.75l-.93.37,5.85,16.07c14.89,40,30.89,79.85,48.07,118.92,4.44,10.14,9.23,21.39,14.29,31.23a275.55,275.55,0,0,0,33.55,50.27,232.08,232.08,0,0,0,17,18.3c-33.77-.11-65-.12-89.55,0-7.3,0-14.76,0-22.32.07-15.93-20.31-35.95-40.58-52.76-59.95-17.11-19.79-35.42-38.42-52.2-58.49-32.58-39-67.21-82.28-99.19-122l-.81.6,11.44,16c7.22,10,26.68,37.89,34.74,47.72,25.26,30.79,122.72,146.21,149.69,176.18-48.61.35-101.46,1.34-152.6,2-35.54-25.42-60.49-42.93-91.94-72.25C316,183.88,259.33,131,215.54,94.2l-.67.75c15.9,15.52,39.35,37.86,55.57,53.43,28.32,26.23,55.16,54,84.59,79,28.84,23.91,55.31,48.7,87.43,67.81-32.5.37-64.18.58-93.49.35-2-.08-4.06-.1-6.05-.36a69.14,69.14,0,0,0-8.83-.8c-31.39-1.23-75.87-1.56-110.07-2-5.77-7-33.49-34.13-58.89-55.2-11.38-9.44-33.24-23.78-35-24.76-6.81-3.75-17.16-10.24-25.41-13.79a37.7,37.7,0,0,0-11.41-3c4.62.46,11.61,3.71,20,8.77,35.94,21.73,97.25,76.82,104.86,87.84l-4.11-.06c-15-.25-30-.43-44.92-1.05-45-1.94-90-2.22-135-2.85l0,1c40,1.17,79.94,2.32,119.85,4.26q29.94,1.88,59.95,2.7l5.77.19c-10.57,10.28-22.65,21.44-34.23,32.1-7.46,6.86-53.63,35.29-69.33,40.95l.32,1A147.36,147.36,0,0,0,132,365.52,184,184,0,0,0,161.38,351c9.34-5.73,18.23-12.14,27-18.72S217,305.86,223.45,297c.1-.14.17-.26.26-.38,33.94,1.05,78.92,2.06,110.06,3.63a61.73,61.73,0,0,1,8.31.86c2.22.31,4.46.38,6.66.49q18.72.48,37.45.66c-25.91,26.95-47.13,48.31-75.28,73.83-38.74,36.45-89.3,80.84-129.28,116.76l.65.78c19.36-15,40-28.52,57.69-45.45,43.49-41.64,70.44-58,105.18-97.16,9.19-10.11,38.64-37,50.61-48.68,39.36.3,78.71-.09,118.07-.16,12.07.13,25.34.24,39.52.32-27.77,34-58.72,74-86.55,107.62-36.62,46.06-68.39,95.58-99.65,145.32l.85.55c33.75-47.76,67.38-95.9,105.2-140.49,13.13-14.48,25.71-32.64,37-48.59,10.73-14.81,43.86-54.13,50.69-64.36,38,.2,81.86.26,126.85.22-8.89,10.55-30.67,37.83-38.54,51.17S633.9,383.3,627,397.13a810.76,810.76,0,0,0-39.08,96.14l.95.34q10.75-25.39,22.93-50.14c6.92-14.12,14.64-29,22.07-42.82,6.28-11.61,13.51-29.79,20.44-41.07,12.17-20.71,28.57-36.11,40.54-56.85,42.81,0,86.36-.17,126.49-.33l-1.78,1.21c-23.65,17-40.33,42.74-48.81,70.41-2.53,8-3.6,16.08-5.08,24.07-4.49,23.9-8.17,47.89-11.3,72l1,.19s13.17-72.19,25.78-104.72,22.46-38.37,32.59-50.5a143.82,143.82,0,0,1,12-12.67c91.44-.37,158.92-.35,162.43-.49a18.41,18.41,0,0,0,.43-3.41A20.32,20.32,0,0,0,988.34,295Z"/>
    </g>
  </g>
</svg>
