# Blender v2.93.5 OBJ File: 'arrow.blend'
# www.blender.org
o arrow
v 0.299442 0.203634 -0.263677
v 0.299442 0.000000 -0.263677
v 0.299442 0.203634 0.999948
v 0.299442 0.000000 0.999948
v -0.298682 0.203634 -0.263677
v -0.298682 0.000000 -0.263677
v -0.298682 0.203634 0.999948
v -0.298682 0.000000 0.999948
v 0.000380 0.000000 -0.263677
v 0.000380 0.203634 0.999948
v 0.000380 0.000000 0.999948
v 0.000380 0.203634 -0.263677
v 0.000380 0.000000 -0.993724
v 0.000380 0.000000 -0.993724
v 0.000380 0.203634 -0.993724
v 0.000380 0.000000 -0.993724
v 0.000380 0.203634 -0.993724
v 0.000380 0.203634 -0.993724
v 0.604695 0.203634 -0.263677
v 0.604695 0.000000 -0.263677
v -0.603935 0.203634 -0.263677
v -0.603935 0.000000 -0.263677
v 0.000380 0.203634 -0.993724
v 0.000380 0.000000 -0.993724
v 0.000380 0.203634 -0.993724
v 0.000380 0.000000 -0.993724
vt 0.750000 0.500000
vt 0.875000 0.500000
vt 0.875000 0.750000
vt 0.750000 0.750000
vt 0.375000 0.875000
vt 0.625000 0.875000
vt 0.625000 1.000000
vt 0.375000 1.000000
vt 0.375000 0.000000
vt 0.625000 0.000000
vt 0.625000 0.250000
vt 0.375000 0.250000
vt 0.250000 0.500000
vt 0.375000 0.500000
vt 0.375000 0.750000
vt 0.250000 0.750000
vt 0.625000 0.500000
vt 0.625000 0.750000
vt 0.312500 0.437500
vt 0.312500 0.437500
vt 0.375000 0.500000
vt 0.750000 0.500000
vt 0.750000 0.500000
vt 0.125000 0.500000
vt 0.125000 0.750000
vt 0.375000 0.375000
vt 0.625000 0.375000
vt 0.687500 0.437500
vt 0.375000 0.375000
vt 0.625000 0.375000
vt 0.250000 0.500000
vt 0.125000 0.500000
vt 0.250000 0.500000
vt 0.250000 0.500000
vt 0.625000 0.500000
vt 0.687500 0.437500
vt 0.375000 0.250000
vt 0.625000 0.250000
vt 0.625000 0.375000
vt 0.375000 0.375000
vt 0.750000 0.500000
vt 0.875000 0.500000
vn 0.0000 1.0000 0.0000
vn 0.0000 0.0000 1.0000
vn -1.0000 0.0000 0.0000
vn 0.0000 -1.0000 0.0000
vn 1.0000 0.0000 0.0000
vn 0.7703 0.0000 -0.6377
vn -0.7703 0.0000 -0.6377
usemtl Material.003
s off
f 12/1/1 5/2/1 7/3/1 10/4/1
f 11/5/2 10/6/2 7/7/2 8/8/2
f 8/9/3 7/10/3 5/11/3 6/12/3
f 9/13/4 2/14/4 4/15/4 11/16/4
f 2/14/5 1/17/5 3/18/5 4/15/5
f 2/14/4 16/19/4 24/20/4 20/21/4
f 5/2/1 12/1/1 18/22/1 17/23/1
f 6/24/4 9/13/4 11/16/4 8/25/4
f 4/15/2 3/18/2 10/6/2 11/5/2
f 1/17/1 12/1/1 10/4/1 3/18/1
f 13/26/2 18/27/2 15/28/2 16/19/2
f 14/29/2 17/30/2 18/27/2 13/26/2
f 14/31/4 6/24/4 22/32/4 26/33/4
f 2/14/4 9/13/4 13/34/4 16/19/4
f 9/13/4 6/24/4 14/31/4 13/34/4
f 12/1/1 1/17/1 15/28/1 18/22/1
f 19/35/6 20/21/6 24/20/6 23/36/6
f 22/37/7 21/38/7 25/39/7 26/40/7
f 1/17/2 2/14/2 20/21/2 19/35/2
f 17/30/2 14/29/2 26/40/2 25/39/2
f 15/28/1 1/17/1 19/35/1 23/36/1
f 5/2/1 17/23/1 25/41/1 21/42/1
f 6/12/2 5/11/2 21/38/2 22/37/2
f 16/19/2 15/28/2 23/36/2 24/20/2
