# Blender v2.93.5 OBJ File: 'arrow.blend'
# www.blender.org
mtllib arrow.mtl
o Cube
v -0.300686 0.203634 0.262580
v -0.300686 0.000000 0.262580
v -0.303969 0.203634 -1.001041
v -0.303969 0.000000 -1.001041
v 0.297435 0.203634 0.261026
v 0.297435 0.000000 0.261026
v 0.294153 0.203634 -1.002594
v 0.294153 0.000000 -1.002594
v -0.001625 0.000000 0.261803
v -0.004908 0.203634 -1.001817
v -0.004908 0.000000 -1.001817
v -0.001625 0.203634 0.261803
v 0.000271 0.000000 0.991848
v 0.000271 0.000000 0.991848
v 0.000271 0.203634 0.991848
v 0.000271 0.000000 0.991848
v 0.000271 0.203634 0.991848
v 0.000271 0.203634 0.991848
v -0.605938 0.203634 0.263373
v -0.605938 0.000000 0.263373
v 0.602687 0.203634 0.260233
v 0.602687 0.000000 0.260233
v 0.000271 0.203634 0.991848
v 0.000271 0.000000 0.991848
v 0.000271 0.203634 0.991848
v 0.000271 0.000000 0.991848
vt 0.750000 0.500000
vt 0.875000 0.500000
vt 0.875000 0.750000
vt 0.750000 0.750000
vt 0.375000 0.875000
vt 0.625000 0.875000
vt 0.625000 1.000000
vt 0.375000 1.000000
vt 0.375000 0.000000
vt 0.625000 0.000000
vt 0.625000 0.250000
vt 0.375000 0.250000
vt 0.250000 0.500000
vt 0.375000 0.500000
vt 0.375000 0.750000
vt 0.250000 0.750000
vt 0.625000 0.500000
vt 0.625000 0.750000
vt 0.312500 0.437500
vt 0.312500 0.437500
vt 0.375000 0.500000
vt 0.750000 0.500000
vt 0.750000 0.500000
vt 0.125000 0.500000
vt 0.125000 0.750000
vt 0.375000 0.375000
vt 0.625000 0.375000
vt 0.687500 0.437500
vt 0.375000 0.375000
vt 0.625000 0.375000
vt 0.250000 0.500000
vt 0.125000 0.500000
vt 0.250000 0.500000
vt 0.250000 0.500000
vt 0.625000 0.500000
vt 0.687500 0.437500
vt 0.375000 0.250000
vt 0.625000 0.250000
vt 0.625000 0.375000
vt 0.375000 0.375000
vt 0.750000 0.500000
vt 0.875000 0.500000
vn 0.0000 1.0000 0.0000
vn -0.0026 0.0000 -1.0000
vn 1.0000 0.0000 -0.0026
vn 0.0000 -1.0000 0.0000
vn -1.0000 0.0000 0.0026
vn 0.0000 0.0000 1.0000
vn -0.7687 0.0000 0.6397
vn 0.7720 0.0000 0.6357
usemtl Material.003
s off
f 12/1/1 5/2/1 7/3/1 10/4/1
f 11/5/2 10/6/2 7/7/2 8/8/2
f 8/9/3 7/10/3 5/11/3 6/12/3
f 9/13/4 2/14/4 4/15/4 11/16/4
f 2/14/5 1/17/5 3/18/5 4/15/5
f 2/14/4 16/19/4 24/20/4 20/21/4
f 5/2/1 12/1/1 18/22/1 17/23/1
f 6/24/4 9/13/4 11/16/4 8/25/4
f 4/15/2 3/18/2 10/6/2 11/5/2
f 1/17/1 12/1/1 10/4/1 3/18/1
f 13/26/6 18/27/6 15/28/6 16/19/6
f 14/29/6 17/30/6 18/27/6 13/26/6
f 14/31/4 6/24/4 22/32/4 26/33/4
f 2/14/4 9/13/4 13/34/4 16/19/4
f 9/13/4 6/24/4 14/31/4 13/34/4
f 12/1/1 1/17/1 15/28/1 18/22/1
f 19/35/7 20/21/7 24/20/7 23/36/7
f 22/37/8 21/38/8 25/39/8 26/40/8
f 1/17/2 2/14/2 20/21/2 19/35/2
f 17/30/6 14/29/6 26/40/6 25/39/6
f 15/28/1 1/17/1 19/35/1 23/36/1
f 5/2/1 17/23/1 25/41/1 21/42/1
f 6/12/2 5/11/2 21/38/2 22/37/2
f 16/19/6 15/28/6 23/36/6 24/20/6
