# Blender v2.93.5 OBJ File: 'PC.blend'
# www.blender.org
mtllib COMPUTER.mtl
o Cube
v 0.851965 0.016281 0.304975
v 0.851965 0.172388 0.313255
v 0.851965 0.016281 1.469607
v 0.851965 0.167618 1.469607
v -0.840401 0.016281 0.305186
v -0.840401 0.172388 0.313466
v -0.840401 0.016281 1.469818
v -0.840401 0.167618 1.469818
v 0.763541 0.132401 0.162024
v 0.763550 0.243467 0.265880
v -0.752071 0.243467 0.266091
v -0.752080 0.132401 0.162235
v 0.691278 0.250421 0.122417
v 0.691287 0.309228 0.240621
v -0.679813 0.309228 0.240832
v -0.679821 0.250421 0.122628
v 0.669651 0.393471 0.127512
v 0.669658 0.388140 0.235829
v -0.658185 0.388140 0.236040
v -0.658193 0.393471 0.127723
v 0.669652 0.517968 0.142991
v 0.669658 0.487756 0.238779
v -0.658185 0.487756 0.238990
v -0.658192 0.517968 0.143202
v 0.669654 0.731983 0.169419
v 0.669659 0.669689 0.252810
v -0.658184 0.669689 0.253021
v -0.658190 0.731983 0.169630
v 0.669661 1.113330 0.277780
v 0.669662 0.964504 0.284010
v -0.658182 0.964504 0.284221
v -0.658182 1.113330 0.277991
v 2.013630 0.643132 0.586820
v 2.013612 3.279591 0.408811
v 2.013622 0.638109 0.512423
v 2.013604 3.274568 0.334414
v -2.002094 0.643132 0.587260
v -2.002112 3.279591 0.409251
v -2.002101 0.638109 0.512862
v -2.002120 3.274568 0.334854
v 0.902273 0.852651 0.507348
v 0.902266 2.153003 0.414511
v 0.673580 0.852651 0.272116
v 0.673579 2.009187 0.259316
v -0.890761 0.852651 0.507633
v -0.890768 2.153003 0.414796
v -0.662102 0.852651 0.272328
v -0.662103 2.009187 0.259529
v -1.886761 3.183157 0.419385
v 1.911179 3.175804 0.418997
v 1.911195 0.967947 0.577929
v -1.886745 0.977759 0.578317
v -1.886768 3.181286 0.395520
v 1.911172 3.173933 0.395132
v 1.911188 0.966076 0.554064
v -1.886752 0.975888 0.554452
v 2.252561 0.019418 2.032762
v 2.252561 2.932064 1.999500
v 2.252561 0.019418 0.032762
v 2.252561 2.978094 0.032762
v 3.372545 0.019418 2.032762
v 3.372545 2.932064 1.999500
v 3.372545 0.019418 0.032762
v 3.372545 2.978094 0.032762
v 3.372545 2.837680 2.032762
v 2.252561 2.837680 2.032762
v 2.252561 2.978094 1.909860
v 3.372545 2.978094 1.909860
v 2.471467 2.625039 2.032762
v 3.163501 2.625039 2.032762
v 3.163501 2.488900 2.032762
v 2.471467 2.488900 2.032762
v 2.471467 2.397912 2.032762
v 2.471467 2.248623 2.032762
v 3.163501 2.248623 2.032762
v 3.163501 2.397912 2.032762
v 2.471467 2.625039 2.019892
v 3.163501 2.625039 2.019892
v 3.163501 2.488900 2.019892
v 2.471467 2.488900 2.019892
v 2.471467 2.397912 2.019892
v 2.471467 2.248623 2.019892
v 3.163501 2.248623 2.019892
v 3.163501 2.397912 2.019892
vt 0.375000 0.000000
vt 0.625000 0.000000
vt 0.625000 0.250000
vt 0.375000 0.250000
vt 0.625000 0.500000
vt 0.375000 0.500000
vt 0.625000 0.750000
vt 0.375000 0.750000
vt 0.375000 0.000000
vt 0.625000 0.000000
vt 0.125000 0.500000
vt 0.125000 0.750000
vt 0.875000 0.500000
vt 0.875000 0.750000
vt 0.125000 0.750000
vt 0.375000 0.750000
vt 0.375000 0.750000
vt 0.125000 0.750000
vt 0.875000 0.750000
vt 0.625000 0.750000
vt 0.375000 0.750000
vt 0.125000 0.750000
vt 0.375000 0.000000
vt 0.625000 0.000000
vt 0.875000 0.750000
vt 0.625000 0.750000
vt 0.375000 0.750000
vt 0.125000 0.750000
vt 0.375000 0.000000
vt 0.625000 0.000000
vt 0.875000 0.750000
vt 0.625000 0.750000
vt 0.625000 0.750000
vt 0.875000 0.750000
vt 0.875000 0.750000
vt 0.625000 0.750000
vt 0.375000 0.000000
vt 0.625000 0.000000
vt 0.125000 0.750000
vt 0.375000 0.750000
vt 0.375000 0.750000
vt 0.125000 0.750000
vt 0.375000 0.000000
vt 0.625000 0.000000
vt 0.625000 0.750000
vt 0.625000 1.000000
vt 0.375000 1.000000
vt 0.375000 0.000000
vt 0.625000 0.000000
vt 0.875000 0.750000
vt 0.375000 0.000000
vt 0.625000 0.000000
vt 0.625000 0.250000
vt 0.375000 0.250000
vt 0.625000 0.500000
vt 0.375000 0.500000
vt 0.625000 0.750000
vt 0.375000 0.750000
vt 0.387991 0.758214
vt 0.387061 0.988912
vt 0.375000 1.000000
vt 0.125000 0.500000
vt 0.125000 0.750000
vt 0.875000 0.500000
vt 0.875000 0.750000
vt 0.375000 0.000000
vt 0.625000 0.000000
vt 0.625000 0.250000
vt 0.375000 0.250000
vt 0.625000 0.500000
vt 0.375000 0.500000
vt 0.625000 0.750000
vt 0.375000 0.750000
vt 0.625000 1.000000
vt 0.375000 1.000000
vt 0.125000 0.500000
vt 0.125000 0.750000
vt 0.875000 0.500000
vt 0.875000 0.750000
vt 0.610385 0.984584
vt 0.611082 0.760988
vt 0.625000 1.000000
vt 0.611082 0.760988
vt 0.387991 0.758214
vt 0.610385 0.984584
vt 0.387061 0.988912
vt 0.375000 0.000000
vt 0.612836 0.000000
vt 0.625000 0.000000
vt 0.625000 0.021576
vt 0.625000 0.250000
vt 0.375000 0.250000
vt 0.625000 0.500000
vt 0.375000 0.500000
vt 0.625000 0.726325
vt 0.625000 0.750000
vt 0.613435 0.750000
vt 0.375000 0.750000
vt 0.553333 0.798059
vt 0.552369 0.955349
vt 0.612836 1.000000
vt 0.375000 1.000000
vt 0.125000 0.500000
vt 0.125000 0.750000
vt 0.875000 0.500000
vt 0.875000 0.728424
vt 0.625000 1.000000
vt 0.875000 0.750000
vt 0.563649 0.953131
vt 0.565629 0.801170
vt 0.584179 0.796856
vt 0.572976 0.798071
vt 0.572859 0.952743
vt 0.565629 0.801170
vt 0.553333 0.798059
vt 0.583970 0.950829
vt 0.584179 0.796856
vt 0.572976 0.798071
vt 0.572859 0.952743
vt 0.583970 0.950829
vt 0.563649 0.953131
vt 0.552369 0.955349
vn 1.0000 0.0000 0.0000
vn 0.0001 0.0000 1.0000
vn -1.0000 -0.0000 0.0000
vn 0.8141 0.2247 -0.5354
vn 0.0000 -1.0000 0.0000
vn 0.0000 1.0000 0.0041
vn -0.0001 -0.3182 -0.9480
vn -0.0001 -0.7762 -0.6305
vn 0.0001 0.5546 0.8321
vn -0.8144 0.2246 -0.5350
vn -0.0002 0.0356 -0.9994
vn 0.7886 0.4883 -0.3736
vn 0.0001 0.3586 0.9335
vn -0.7887 0.4883 -0.3735
vn -0.0002 0.1234 -0.9924
vn 0.9805 0.1911 -0.0452
vn 0.0002 0.0606 0.9982
vn -0.9805 0.1911 -0.0451
vn 0.0002 -0.0769 0.9970
vn 1.0000 0.0000 -0.0001
vn 0.0002 -0.0296 0.9996
vn -1.0000 0.0000 0.0001
vn -0.0002 0.2733 -0.9619
vn -0.0002 0.1226 -0.9925
vn 0.0002 0.0418 0.9991
vn 0.0002 -0.1052 0.9944
vn 0.0001 0.0674 0.9977
vn -0.0001 -0.0270 -0.9996
vn -0.0000 0.9977 -0.0674
vn 0.0000 -0.9977 0.0674
vn -0.6548 0.0325 0.7551
vn 0.0002 0.0111 0.9999
vn 0.6550 0.0325 0.7550
vn -0.0002 -0.0712 -0.9975
vn 0.0000 1.0000 0.0000
vn 0.0001 -0.7336 0.6796
vn 0.0013 -0.0829 -0.9966
vn -1.0000 0.0000 0.0003
vn -0.0003 -0.0718 -0.9974
vn 1.0000 -0.0000 -0.0003
vn -0.0026 -0.9969 0.0782
vn 0.0019 0.9969 -0.0782
vn 0.0000 0.0000 -1.0000
vn 0.0000 0.0000 1.0000
vn 0.0000 0.3324 0.9431
vn 0.0000 0.8896 0.4568
usemtl Material
s off
f 1/1/1 2/2/1 4/3/1 3/4/1
f 3/4/2 4/3/2 8/5/2 7/6/2
f 7/6/3 8/5/3 6/7/3 5/8/3
f 2/2/4 1/1/4 9/9/4 10/10/4
f 3/11/5 7/6/5 5/8/5 1/12/5
f 8/5/6 4/13/6 2/14/6 6/7/6
f 9/15/7 12/16/7 16/17/7 13/18/7
f 1/12/8 5/8/8 12/16/8 9/15/8
f 6/7/9 2/14/9 10/19/9 11/20/9
f 5/8/10 6/7/10 11/20/10 12/16/10
f 13/18/11 16/17/11 20/21/11 17/22/11
f 10/10/12 9/9/12 13/23/12 14/24/12
f 11/20/13 10/19/13 14/25/13 15/26/13
f 12/16/14 11/20/14 15/26/14 16/17/14
f 17/22/15 20/21/15 24/27/15 21/28/15
f 14/24/16 13/23/16 17/29/16 18/30/16
f 15/26/17 14/25/17 18/31/17 19/32/17
f 16/17/18 15/26/18 19/32/18 20/21/18
f 23/33/19 22/34/19 26/35/19 27/36/19
f 18/30/20 17/29/20 21/37/20 22/38/20
f 19/32/21 18/31/21 22/34/21 23/33/21
f 20/21/22 19/32/22 23/33/22 24/27/22
f 25/39/23 28/40/23 32/41/23 29/42/23
f 24/27/22 23/33/22 27/36/22 28/40/22
f 21/28/24 24/27/24 28/40/24 25/39/24
f 22/38/20 21/37/20 25/43/20 26/44/20
f 32/41/25 31/45/25 30/46/25 29/47/25
f 26/44/20 25/43/20 29/48/20 30/49/20
f 27/36/26 26/35/26 30/50/26 31/45/26
f 28/40/22 27/36/22 31/45/22 32/41/22
f 33/51/22 34/52/22 36/53/22 35/54/22
f 35/54/27 36/53/27 40/55/27 39/56/27
f 39/56/20 40/55/20 38/57/20 37/58/20
f 37/58/28 52/59/28 51/60/28 33/61/28
f 35/62/29 39/56/29 37/58/29 33/63/29
f 40/55/30 36/64/30 34/65/30 38/57/30
f 41/66/31 42/67/31 44/68/31 43/69/31
f 43/69/32 44/68/32 48/70/32 47/71/32
f 47/71/33 48/70/33 46/72/33 45/73/33
f 45/73/34 46/72/34 42/74/34 41/75/34
f 43/76/35 47/71/35 45/73/35 41/77/35
f 48/70/36 44/78/36 42/79/36 46/72/36
f 33/61/37 51/60/37 50/80/37 49/81/37 52/59/37 37/58/37 38/57/37 34/82/37
f 52/59/38 49/81/38 53/83/38 56/84/38
f 53/83/39 54/85/39 55/86/39 56/84/39
f 50/80/40 51/60/40 55/86/40 54/85/40
f 51/60/41 52/59/41 56/84/41 55/86/41
f 49/81/42 50/80/42 54/85/42 53/83/42
f 57/87/3 66/88/3 58/89/3 67/90/3 60/91/3 59/92/3
f 59/92/43 60/91/43 64/93/43 63/94/43
f 63/94/1 64/93/1 68/95/1 62/96/1 65/97/1 61/98/1
f 61/98/44 65/97/44 75/99/44 74/100/44 66/101/44 57/102/44
f 59/103/5 63/94/5 61/98/5 57/104/5
f 64/93/35 60/105/35 67/106/35 68/95/35
f 66/101/45 65/97/45 62/96/45 58/107/45
f 68/95/46 67/106/46 58/108/46 62/96/46
f 66/101/44 74/100/44 73/109/44 76/110/44 75/99/44 65/97/44 70/111/44 71/112/44 72/113/44
f 75/99/3 76/110/3 84/114/3 83/115/3
f 69/116/44 70/111/44 65/97/44 66/101/44 72/113/44
f 71/112/3 70/111/3 78/117/3 79/118/3
f 80/119/44 79/118/44 78/117/44 77/120/44
f 84/114/44 81/121/44 82/122/44 83/115/44
f 73/109/1 74/100/1 82/122/1 81/121/1
f 72/113/35 71/112/35 79/118/35 80/119/35
f 70/111/5 69/116/5 77/120/5 78/117/5
f 76/110/5 73/109/5 81/121/5 84/114/5
f 74/100/35 75/99/35 83/115/35 82/122/35
f 69/116/1 72/113/1 80/119/1 77/120/1
