<svg xmlns="http://www.w3.org/2000/svg" viewBox="0 0 852.17 991.94"><defs><style>.cls-1{fill:#ffd39d;}.cls-1,.cls-2,.cls-5,.cls-6,.cls-7,.cls-8{stroke:#000;}.cls-1,.cls-2,.cls-3,.cls-4,.cls-5,.cls-6,.cls-7,.cls-8{stroke-miterlimit:10;stroke-width:4px;}.cls-2{fill:#713c00;}.cls-3{fill:#009202;stroke:#009202;}.cls-4{fill:#ffd9fc;stroke:#7d0084;}.cls-5{fill:#994814;}.cls-6{fill:#fff;}.cls-8{fill:none;}</style></defs><g id="Ebene_12" data-name="Ebene 12"><path class="cls-1" d="M225,633l196,373-39.11-4.85-184-356.25C213,641.25,223,637.34,225,633Z" transform="translate(-17.95 -16.52)"/></g><g id="Ebene_14" data-name="Ebene 14"><path class="cls-2" d="M220,577c-5.87-59.24-16.71-111.19-42-142-33-72.27-84-98.14-141-109,32.76,37.43,53,81.73,48,140L69.89,445.76C74,494.89,80.38,533.06,92.11,545c20.16,34.87,41.47,60.43,65.89,60.89L220,577" transform="translate(-17.95 -16.52)"/><path class="cls-2" d="M185.73,445.76" transform="translate(-17.95 -16.52)"/></g><g id="Ebene_15" data-name="Ebene 15"><path class="cls-3" d="M29.89,500Q41.44,534.61,53,545c-.6,15-8.22,22.69-23,23-10-7.41-16.37-16.26-.11-34Z" transform="translate(-17.95 -16.52)"/><path class="cls-3" d="M73.91,483.81l-4-38.05L85,466c1.88-57.55-12.94-104.93-48-140,61.34,10.28,112.39,39.25,141,109-15,.91-28.57,3.54-34,16-9.27,14-18,21.3-25.22,8.17-9.22,13.43-18.26,22.46-26.67,17.11-4.76,8.2-10,14.62-17.69,11.25" transform="translate(-17.95 -16.52)"/></g><g id="Ebene_13" data-name="Ebene 13"><path class="cls-4" d="M192,641c-.47-14.08,9.71-19.78,28.09-19L225,633Q208.5,653,192,641Z" transform="translate(-17.95 -16.52)"/><path class="cls-4" d="M179.22,638.78c12.22,4.83,26.87-5.21,41.78-16.78,9-8.41,11.85-16.68,8.89-24.84L179.22,622c-4.68,7.24-7.19,13.7,0,16.78,1.1,3.61,8.84,5.23,18.67,6.22" transform="translate(-17.95 -16.52)"/><path class="cls-4" d="M229.89,597.16q7.2-20.5-9.89-20.16c-29.57,9.27-58.55,18.68-62,34,1.81,11.72,8.64,14.23,16.72,14.44Z" transform="translate(-17.95 -16.52)"/></g><g id="Ebene_4" data-name="Ebene 4"><path class="cls-1" d="M504.44,584.13v25.78c-8.82,34.7-30.25,77.42-56.83,123.41-6,54-8.47,102.41,4.86,125.78l27.54,137,94.64,4.87L580,596.23,546.72,562l-42.28,22.09" transform="translate(-17.95 -16.52)"/></g><g id="Ebene_7" data-name="Ebene 7"><path class="cls-5" d="M491.2,124.19Q467.22,71.6,512,19c37.54,18.49,54.41,49,45.87,94.39" transform="translate(-17.95 -16.52)"/></g><g id="Ebene_11" data-name="Ebene 11"><path class="cls-5" d="M581.22,596.77l-5.11,177.31L549.25,904.72c-.57,36,4.06,68.54,16,96.28h300.2C809.07,941.84,757,871.78,719.67,764.37,699.8,693.08,680.14,622.14,679.43,582L661,538.41l-79.78,58.36" transform="translate(-17.95 -16.52)"/></g><g id="Ebene_8" data-name="Ebene 8"><path class="cls-5" d="M640,645c41.7,21.76,71.54,44.17,76,68,5,24.44,4.8,45.11,0,62.37-3.1,22.88-8.76,33.53-16,36.63q-2-12.22-4-24c5.33,34.16-.91,60.76-23,77,7.44-17.18,9.25-32.35,4-45-6.3,46.87-32.13,78.19-85,88,13.92-11.33,25.07-22.66,27-34-20,24.34-41.73,42.64-68,44.78,11.16-8.59,20.18-16.93,15.57-23.71C550,911.21,514.57,924.2,448,932c-13.47,7.81-25.76,21.68-37,41-10,12.86-23.65,22.1-41.56,27-6.07,1.36-11.94,1.74-14.44-13,5.16-5.48,8.63-10.33,9-14-14.58,3.72-22.86-.52-27-10,1.53-13.29,8.26-22.74,22-27-15,.81-20.87-3.6-22-10.7,6.05-13.55,19.84-22.23,41-26.3-24.15-8.29-32.37-25.51-33-47,12.05-6.67,31.67,1.25,59,24,30.09,2.15,47.45,0,53-6q105.33-47.93,147-173" transform="translate(-17.95 -16.52)"/></g><g id="Ebene_5" data-name="Ebene 5"><path class="cls-1" d="M372,321c-53.27,35.24-81.4,80.77-76,140,5.87-19.24,15-35.68,30-47-19,27.92-24.28,55.59-15,83,2.87-20.86,8.81-39.17,22.66-50.86-18.14,42.23,9.1,82.17,68.92,120.47,30.36,13.32,59.79,18.56,88.26,15.43q30.87-3.39,60.21-20c-20.09,9.42-38.62,17.6-51,20.88C567.29,606.37,625.39,601.4,673,564c-7.37,15.68-15.83,29.85-32.15,33.16C684.08,584,715.27,565.43,728,538.41c-4.35,16.68-8.82,31.16-14,33.59,27.67-12,45.33-33.76,50-68,3.31,15.88,4.89,30.68,0,41.44,29.34-28.17,43.44-57.53,25.59-89.37C800.73,459,804.08,463.55,803,469c-6.61-62.14-42.92-99.35-118-104l61.33-36.84Z" transform="translate(-17.95 -16.52)"/></g><g id="Ebene_10" data-name="Ebene 10"><path class="cls-6" d="M392.56,483.81Q393.48,562,414.48,593H454c12.95-3.52,23.29-42.06,32.19-100.12" transform="translate(-17.95 -16.52)"/><path class="cls-7" d="M398.5,403.5v28.17c7,24.8,17.38,28.14,28.43,27.41,32.21-1.85,57.11-14,73.07-38.67" transform="translate(-17.95 -16.52)"/><path class="cls-8" d="M426.93,459.08v24.73C481.6,499.62,530.39,497.36,570,467" transform="translate(-17.95 -16.52)"/><path class="cls-8" d="M364,466q18.54,26.72,62.93,17.81L427,545" transform="translate(-17.95 -16.52)"/><path class="cls-8" d="M570,448.26c15.37-6.58,31-.26,47,19.74" transform="translate(-17.95 -16.52)"/></g><g id="Ebene_2" data-name="Ebene 2"><path class="cls-5" d="M413.34,373.83c-21.22-4.79-38.49-16-40.84-51.33-4.06-42.4,1.29-82.34,23-118,23.41-41.14,58.45-66.1,100-82,23.83-9.18,52.23-10.61,83-8-16.08-9.16-36.89-12.91-67-6,17.32-15.38,42.39-19,77-8-5.6-6.2-13.81-11.29-34.61-11,59.73-12.76,111.57,8.81,156.61,60,65.58,66.87,80.11,151.71,65,247-25.5-24.32-57.1-34.71-94-33,16.36,2.25,30,13,40.54,33-19.83-25.86-49.21-31.29-84.54-24,21.51.19,37.12,4.33,46,13-23-4.67-44-4.73-62,3-19,12.3-42.69,21-70,27L500,420.41c-10.76,1.91-21.84,3.66-33.5,5.09H422.78c-12.34-5.23-20.82-12.37-24.28-22,5.28-9.67,10.59-19.4,14.84-29.67,13.35-32.26,26.79-73.7,39.16-120.33" transform="translate(-17.95 -16.52)"/></g><path class="cls-7" d="M589,271c-24,14.21-36.12,32.77-36,55.78v39.11c5.81,15.33,11.8,20.93,17.93,19.11,13.18-.28,25.41-10.52,35.07-48,4.67-15.83,4.51-33.21,0-52C605.41,279.69,600.5,274.93,589,271Z" transform="translate(-17.95 -16.52)"/><path class="cls-7" d="M429,255.72c2.33,26.88.4,50.3-7,69.28-3.36,17.4-11.19,26.27-23,27.56-7.88-3-12.18-8.37-13-16V296q7.22-40.72,26-55C421.43,241.88,428.35,245.45,429,255.72Z" transform="translate(-17.95 -16.52)"/><path class="cls-6" d="M600,294c-6.66,4.21-12,9.42-13,18q1.47,11.29,11,14c6.64-2.55,11.26-6.55,11.44-13.74C608.47,298.83,605.58,291.86,600,294Z" transform="translate(-17.95 -16.52)"/><path class="cls-6" d="M429.93,276.41c.19,6.42-2.51,9.92-7.93,10.66q-8.16-.88-9-10.07c.69-6.52,4.24-11.16,9-15C428.58,261,431.31,265.62,429.93,276.41Z" transform="translate(-17.95 -16.52)"/><g id="Ebene_3" data-name="Ebene 3"><path class="cls-5" d="M689,193Q724,98.08,834,86c2.52,72.93-34.63,120.56-119,138.05" transform="translate(-17.95 -16.52)"/><path class="cls-8" d="M718,204q63.88-21,78-76c-41.08,12.78-70.61,33.61-85,65" transform="translate(-17.95 -16.52)"/></g></svg>