<svg xmlns="http://www.w3.org/2000/svg" viewBox="0 0 1250 1105.3">
  <defs>
    <style>
      .cls-1, .cls-2 {
        fill: #994814;
      }

      .cls-1, .cls-10, .cls-11, .cls-12, .cls-13, .cls-2, .cls-3, .cls-4, .cls-7, .cls-8, .cls-9 {
        stroke: #000;
      }

      .cls-1, .cls-10, .cls-8 {
        stroke-linejoin: round;
      }

      .cls-1, .cls-10, .cls-11, .cls-12, .cls-13, .cls-14, .cls-15, .cls-16, .cls-2, .cls-3, .cls-4, .cls-5, .cls-6, .cls-7, .cls-8, .cls-9 {
        stroke-width: 4px;
      }

      .cls-11, .cls-12, .cls-13, .cls-14, .cls-15, .cls-16, .cls-2, .cls-3, .cls-4, .cls-5, .cls-6, .cls-7, .cls-9 {
        stroke-miterlimit: 10;
      }

      .cls-3 {
        fill: #ffd39d;
      }

      .cls-4 {
        fill: #713c00;
      }

      .cls-5 {
        fill: #009202;
        stroke: #009202;
      }

      .cls-6 {
        fill: #ffd9fc;
        stroke: #7d0084;
      }

      .cls-7, .cls-8 {
        fill: #e6ded5;
      }

      .cls-10, .cls-8 {
        stroke-linecap: round;
      }

      .cls-14, .cls-9 {
        fill: none;
      }

      .cls-10 {
        fill: #891316;
      }

      .cls-11 {
        fill: #fff;
      }

      .cls-13 {
        fill: #1a1e16;
      }

      .cls-14, .cls-15 {
        stroke: #a07919;
      }

      .cls-15 {
        fill: #e6bf5f;
      }

      .cls-16 {
        fill: #d7d9d5;
        stroke: #9b9d99;
      }
    </style>
  </defs>
  <g id="Ebene_3" data-name="Ebene 3">
    <g>
      <path class="cls-1" d="M521.9,1103.38a119.59,119.59,0,0,0,3.89-16.15c.87-4.4,3.89-26.59,3.89-26.59s-7.69,4.08-12.14,5c7.2-31.84,14.26-58.24,21.46-90.08l-15.77,11.91,12.37-52.85c.88-3.75,1.37-8.55-1.86-10.65s-7.19,4.9-3.34,5.07a259.56,259.56,0,0,0,14.39-58.56c.3-2.41.28-5.42-1.85-6.58s-4.56,3.16-2.15,3.43a229,229,0,0,0,11.17-62,36.65,36.65,0,0,1-11.37,14.29A153.12,153.12,0,0,0,542,761.24a18.46,18.46,0,0,0-12.47,11.4l-1.66-57.23c-.1-3.34-.68-7.41-3.79-8.63s-5.77,5-2.43,5.07q2.24-39.61,1-79.32l-11.17,19.36a671,671,0,0,0,8.14-110.65,31.67,31.67,0,0,0-12.87,19.36,339.82,339.82,0,0,0,9.71-82.45l-8.22,12.27,11.65-74.87c.54-3.46.86-7.58-1.79-9.88s-8.09,1.32-5.72,3.9a80.11,80.11,0,0,0-6.49-52.74,20.26,20.26,0,0,0-4.61,15.42,321,321,0,0,0-25.95-85.72,10.43,10.43,0,0,0-3.48,14,220.32,220.32,0,0,0-40.91-74.42,46,46,0,0,0,6.92,20.28l-40.12-35.85,3.91,13.58a251.36,251.36,0,0,0-43.08-27.54l3.16,11.11A66.73,66.73,0,0,0,317,179.33l8.3,17.53c-14.64-15-38.1-20.77-58-14.18l10.27,15.09a96.92,96.92,0,0,0-30.85-4.53l19.67,14.84c-26.17-5.49-64.24-8.05-85.74,7.83,3.62.13,16.93,9,20.56,9.13-25.51,2.19-54,19.89-74.77,34.8C85.26,289.3,36.92,321.59,18.82,369.37c5.07-4.55,48.37,7.22,48.37,7.22s38.18,1.58,50-7.22c-2.26,3.43-23.59,27.14-25.85,30.57,5.44,1.37,23.58,7.76,40.29-5.57s-15.55,27-15.55,27,54.83-.36,69.5,17c-10.77-4.85-45.23,10.22-57,9.17,7.3,9.7,25.61,20,32.91,29.69l-29-2.08L167,515.34l-24.15,1.95a164.05,164.05,0,0,1,40.35,44.48l-25.7-1.37,43.36,73.71a62.8,62.8,0,0,0-42,.09l19.05,25.21-16.66-1.28a172.68,172.68,0,0,0,24.26,29.79,24.91,24.91,0,0,1-14.77,6,281.26,281.26,0,0,0,22.46,30.8c-8.81-2.65-19.25,3.62-19.25,3.62s23.55,28.93,27,37.46-5.87,21.3-13,15.44l18.46,21.67L189.82,807a131.5,131.5,0,0,0,39.26,51.3c2.49,2,5.27,4.21,5.59,7.36s-13.86,1.33-15.88-1.12c5.3,5.25,20.44,15.4,25.74,20.65L224.9,884c12.1,5.84,46.16,34.27,9.46,33.9,11.43,11.26,30.35,22.1,41.77,33.36,2.12,2.08,4.4,4.61,4.05,7.56s-13,5.78-13,5.78,31.68,16.61,44.08,27l-22-.81a256.6,256.6,0,0,1,52.3,37.46l-19.26-1.07c10.94,4.71,60,26.78,41.83,29.19-4.53.6-15.84,4.44-15.84,4.44s48.29,18.94,51.83,21.3c2.18,1.47-13.56,7.06-13.56,7.06s35.66,7.32,45.32,14.2Z"/>
      <path id="Ebene_8" data-name="Ebene 8" class="cls-2" d="M847.14,690.87q115.36,63.81,225.32,27.73c8.15.65,22.38-9.52,43.06-31.48,4.7-35.25,13.77-54.36,27.15-57.62,14.09,16.24,19.71,34.48,7.55,56.93,18.33-11.34,34.35-14.29,48-8.42,4,6,2.65,13.21-8.94,22.77,13-6.17,24.35-3.77,34.47,5,3.38,9.78.16,18.51-13.09,25.64,2.76,2.45,8.6,3.67,16.11,4.21,8.14,12.54,3.56,16.23-1.82,19.34-16.5,8.53-32.8,11-48.87,8.29-21.35-6.61-39.79-8.49-55-5.11-54.26,39.35-89.12,53.78-112.25,53.13,1.2,8.11,13.49,8.14,27.52,6.9-20.78,16.22-49.16,17.47-80.36,13.11,9.1,7,25,7.82,42.89,6.73-45.54,28.59-85.76,23-122.14-7.18,4.71,12.86,16.32,22.8,33.42,30.4-27.25,3-49.85-12.33-69.07-41.07q6.51,10,13.31,20.36c-7.42,2.62-18.8-1.38-36.58-16.11-15.22-9.45-29.36-24.52-42.24-45.89-12.85-20.55-6.08-57.25,9.86-101.5"/>
      <g>
        <path id="Ebene_12" data-name="Ebene 12" class="cls-3" d="M1204.29,940.43,1167.1,480c-14.74,4.91-25.29,6.89-29.29,4.27l35.25,458.62a15.65,15.65,0,0,0,19,14.12h0A15.66,15.66,0,0,0,1204.29,940.43Z"/>
        <path id="Ebene_14" data-name="Ebene 14" class="cls-4" d="M1112.35,434.11l67.88-8.38c20.47-13.34,25-46.31,23.59-86.56,3.61-16.34-11.22-52.09-33.78-95.93L1168,268.41c-35.14-46.75-41.46-95.05-33.53-144.15-42.57,39.43-72.1,88.4-61.76,167.18-5.11,39.53,13.25,89.32,39.68,142.66"/>
        <g id="Ebene_15" data-name="Ebene 15">
          <path class="cls-5" d="M1188.33,281c-4.7,6.95-12.55,4.32-20.95-.14-4.28,9-16.72,6.18-31.67-.37.84,15-10.44,13.4-25.72,6.44-11.21-7.68-24.11-2.72-37.31,4.47-12.72-74.31,15.2-125.94,61.76-167.18-11.13,48.32,1.42,96.35,33.53,144.15l2-25.16,16.79,34.39"/>
        </g>
        <g id="Ebene_13" data-name="Ebene 13">
          <path class="cls-6" d="M1137.81,484.23l-1.67-11.93c15.17-10.4,26.82-11,33.89,1.22Q1162.41,492.45,1137.81,484.23Z"/>
          <path class="cls-6" d="M1167.15,480c7.81-6.05,13.51-11.53,12.53-15.17,4.46-6.43-1.09-10.57-8.9-14.23l-56.13,5.8c1.82,8.49,8.62,14,20.71,16.35,18.78,1.91,36.52,2.65,44.32-7.92"/>
          <path class="cls-6" d="M1176.42,451.17c6.74-4.46,11.2-10.21,6.52-21.11-11-11.16-40.6-3.77-70.59,4.05q-14.67,8.77,2.3,22.33Z"/>
        </g>
      </g>
      <path id="Ebene_4" data-name="Ebene 4" class="cls-3" d="M881.52,568.09,839.24,546,806,580.23l-3.65,523.32,94.22-.35,37-260.1c13.33-23.37,10.86-71.78,4.86-125.78-26.58-46-48-88.71-56.83-123.41V568.13"/>
      <path id="Ebene_7" data-name="Ebene 7" class="cls-2" d="M828.13,97.39C819.59,52,836.46,21.49,874,3q44.79,52.65,20.79,105.19"/>
      <path id="Ebene_11" data-name="Ebene 11" class="cls-2" d="M804.78,580.77,725,522.41,706.56,566c-.71,40.14-20.37,111.08-40.24,182.37C637.81,830.45,600.66,890.71,559.58,941c-.94,1.15-1.88,2.31-2.8,3.48-33.11,42-50.53,94.17-50.53,147.62v11.31H802.31c11.94-27.74,35-178.66,34.43-214.66L809.9,758.08l-5.13-177.31"/>
      <g>
        <path class="cls-7" d="M1060.27,688.2s-2.69,73.47-2.77,127.86.58,106.32,16.74,157l25.68,80.5h0a165.65,165.65,0,0,1-166.25,7.74l-12-6.24L947,956.54a237.62,237.62,0,0,0-1.31-123.19L908.11,699"/>
        <path class="cls-8" d="M986,688.2s-35.86,6.53-39.21,9.69S959.38,711,989.83,712s68.76-20.57,68.76-20.57a3.07,3.07,0,0,0-.46-5.67l-22.3-7.09a129.62,129.62,0,0,0-90.11,4.3l-37.61,16s18.32,29.73,90.52,34.64a47.69,47.69,0,0,0,34.05-15.07l25.91-27.14"/>
        <line class="cls-9" x1="999.32" y1="733.67" x2="1020.54" y2="1079.97"/>
        <path class="cls-10" d="M952.94,870.45s22.42,3.75,54.12-.39,50.94-6.37,50.94-6.37l1.45,28.06s-24.25,8.64-49.75,11.26-55.29,0-55.29,0Z"/>
        <path class="cls-10" d="M1058,863.69s28.44-24.46,49-21.34,55.42,28.58,55.42,28.58v16s-33.32-17.71-57.29-18.85-45.71,23.69-45.71,23.69Z"/>
        <path class="cls-10" d="M1058,863.69s49.82-1.79,66,11.3,33.4,52.66,33.4,52.66l-8.06,13.79s-19.83-32.12-39.94-45.2-50-4.49-50-4.49Z"/>
      </g>
      <path id="Ebene_8-2" data-name="Ebene 8" class="cls-2" d="M782,681q41.67,125.07,147,173c5.55,6,22.91,8.15,53,6,27.33-22.75,47-30.67,59-24-.63,21.49-8.85,38.71-33,47,21.16,4.07,35,12.75,41,26.3-1.13,7.1-7,11.51-22,10.7,13.74,4.26,20.47,13.71,22,27-4.14,9.48-12.42,13.72-27,10,.37,3.67,3.84,8.52,9,14-2.5,14.74-8.37,14.36-14.44,13C998.65,979.1,985,969.86,975,957c-11.24-19.32-23.53-33.19-37-41-66.57-7.8-102-20.79-118.57-36.93-4.61,6.78,4.41,15.12,15.57,23.71-26.27-2.14-48-20.44-68-44.78,1.93,11.34,13.08,22.67,27,34-52.87-9.81-78.7-41.13-85-88-5.25,12.65-3.44,27.82,4,45-22.09-16.24-28.33-42.84-23-77q-2,11.78-4,24c-7.24-3.1-12.9-13.75-16-36.63-4.8-17.26-5-37.93,0-62.37,4.46-23.83,34.3-46.24,76-68"/>
      <path id="Ebene_5" data-name="Ebene 5" class="cls-3" d="M639.57,312.16,700.9,349c-75.08,4.65-111.39,41.86-118,104-1-5.49,2.32-10,13.41-12.93-17.85,31.84-3.75,61.2,25.59,89.37-4.89-10.76-3.31-25.56,0-41.44,4.67,34.24,22.33,56,50,68-5.18-2.43-9.65-16.91-14-33.59,12.78,27,44,45.59,87.2,58.75C728.78,577.85,720.32,563.68,713,548c47.66,37.4,105.76,42.37,173,18.92C873.57,563.64,855,555.46,835,546q29.34,16.61,60.21,20c28.47,3.13,57.9-2.11,88.26-15.43,59.82-38.3,87.06-78.24,68.92-120.47,13.85,11.69,19.79,30,22.66,50.86,9.28-27.41,4-55.08-15-83,15,11.32,24.13,27.76,30,47,5.4-59.23-22.73-104.76-76-140Z"/>
      <g id="Ebene_10" data-name="Ebene 10">
        <path class="cls-11" d="M899.81,476.88C908.71,534.94,919,573.48,932,577h39.51q21-31,21.92-109.19"/>
        <path class="cls-12" d="M886,404.4c16,24.67,40.86,36.82,73.07,38.67,11.05.73,21.43-2.61,28.43-27.41V387.51"/>
        <path class="cls-9" d="M816,451c39.6,30.36,88.39,32.65,143.06,16.81V443.08M959,529l.07-61.19q44.4,8.91,62.93-17.81m-253,2c16-20,31.63-26.32,47-19.74"/>
      </g>
      <path id="Ebene_2" data-name="Ebene 2" class="cls-2" d="M933.49,237.51c12.41,46.62,25.81,88.06,39.16,120.32,4.25,10.27,9.56,20,14.84,29.67-3.46,9.63-11.94,16.77-24.28,22H919.5c-11.66-1.43-22.74-3.18-33.5-5.09l-51.51-4.91c-27.31-6-51-14.7-70-27-18-7.73-39-7.67-62-3,8.88-8.67,24.49-12.81,46-13-35.33-7.29-64.71-1.86-84.54,24,10.54-20,24.18-30.75,40.54-33-36.9-1.71-68.5,8.68-94,33-15.11-95.29-.58-180.13,65-247,45-51.19,96.88-72.76,156.61-60-20.8-.29-29,4.8-34.61,11,34.61-11,59.68-7.38,77,8-30.11-6.91-50.92-3.16-67,6,30.77-2.61,59.17-1.18,83,8,41.55,15.9,76.59,40.86,100,82,21.71,35.66,27.06,75.6,23,118-2.35,35.33-19.62,46.54-40.84,51.33"/>
      <path class="cls-12" d="M780,269c-4.51,18.79-4.67,36.17,0,52,9.66,37.48,21.89,47.72,35.07,48,6.13,1.82,12.12-3.78,17.93-19.11V310.78c.12-23-12-41.57-36-55.78C785.49,258.93,780.58,263.65,780,269Zm177-29.28c.64-10.27,7.56-13.84,17-14.72q18.78,14.26,26,55v40.56c-.82,7.63-5.12,13-13,16-11.81-1.29-19.64-10.16-23-27.56-7.4-19-9.33-42.4-7-69.28Z"/>
      <path class="cls-11" d="M776.56,296.26c.18,7.19,4.8,11.19,11.44,13.74q9.54-2.72,11-14c-1-8.58-6.34-13.79-13-18C780.41,275.86,777.52,282.83,776.56,296.26ZM964,246c4.76,3.84,8.31,8.48,9,15q-.84,9.19-9,10.07c-5.42-.74-8.12-4.24-7.93-10.66C954.68,249.65,957.41,245,964,246Z"/>
      <g>
        <g>
          <path class="cls-13" d="M808.08,26.59c185.8,0,183,123.65,193.26,179.18-61.73-20.82-78.26,42.84-101.45,43.95s-38.1-31.1-105.09-40c-94.52-12.59-180.41,33-177.81,18.9C627.2,173.07,622.28,26.59,808.08,26.59Z"/>
          <path class="cls-13" d="M1135.67,79.43a1.71,1.71,0,0,0,0-3.32c-33.57-8.49-185.26-49.52-327.63-49.52S514,67.62,480.45,76.11a1.71,1.71,0,0,0,0,3.32L867.2,137.14a85.33,85.33,0,0,0,37.76,0Z"/>
          <g>
            <path class="cls-14" d="M703.83,116.21c-1.92,16.2,4.13,27.29,5.06,56.24,1.14,35.25-2.49,37.25-2.49,37.25"/>
            <path class="cls-15" d="M675.71,418.17c13.47,2.44,60.13,12.07,60.13,2.74S712,250,712,250H698.4S692.16,393.58,675.71,418.17Z"/>
            <rect class="cls-16" x="698.4" y="209.7" width="13.62" height="40.28" rx="6.81" transform="translate(1410.41 459.68) rotate(-180)"/>
          </g>
        </g>
        <g id="linkes_Ohr" data-name="linkes Ohr">
          <path class="cls-2" d="M690.8,195.24c-6.27,9.59-19.72,13.12-19.72,13.12-84.37-17.49-121.52-65.12-119-138q110,12.07,145,107S697.08,185.65,690.8,195.24Z"/>
          <path class="cls-9" d="M675.08,177.31c-14.39-31.39-43.92-52.22-85-65q14.13,55,78,76"/>
        </g>
      </g>
    </g>
  </g>
</svg>
