<svg xmlns="http://www.w3.org/2000/svg" id="Ebene_1" data-name="Ebene 1" viewBox="0 0 1000 1000">
  <defs>
    <style>
      .cls-1{fill:#ffd39d}.cls-1,.cls-5,.cls-6,.cls-7,.cls-8{stroke:#000}.cls-1,.cls-3,.cls-4,.cls-5,.cls-6,.cls-7,.cls-8{stroke-miterlimit:10;stroke-width:4px}.cls-3{fill:#009202;stroke:#009202}.cls-4{fill:#ffd9fc;stroke:#7d0084}.cls-5{fill:#994814}.cls-6{fill:#fff}.cls-8{fill:none}
    </style>
  </defs>
  <path id="Ebene_12" d="M378.81 997h33.73L218.9 628.49c-2 4.34-12 8.25-27.1 11.9l184 356.25Z" class="cls-1" data-name="Ebene 12"/>
  <path id="Ebene_14" fill="#713c00" stroke="#000" stroke-miterlimit="10" stroke-width="4" d="M213.9 572.49c-5.87-59.24-16.71-111.19-42-142-33-72.27-84-98.14-141-109 32.76 37.43 53 81.73 48 140l-15.1-20.24c4.11 49.13 10.49 87.3 22.22 99.24 20.16 34.87 41.47 60.43 65.89 60.89l62-28.89" data-name="Ebene 14"/>
  <g id="Ebene_15" data-name="Ebene 15">
    <path d="M23.8 495.49q11.55 34.65 23.1 45c-.6 15-8.22 22.69-23 23-10-7.41-16.37-16.26-.11-34ZM67.82 479.3l-4-38.05 15.08 20.24c1.88-57.55-12.94-104.93-48-140 61.34 10.28 112.39 39.25 141 109-15 .91-28.57 3.54-34 16-9.27 14-18 21.3-25.22 8.17-9.21 13.48-18.25 22.48-26.66 17.11C81.26 480 76 486.39 68.33 483" class="cls-3"/>
  </g>
  <g id="Ebene_13" data-name="Ebene 13">
    <path d="M185.9 636.49c-.47-14.08 9.71-19.78 28.09-19l4.91 11q-16.5 20-33 8Z" class="cls-4"/>
    <path d="M173.13 634.27c12.22 4.83 26.87-5.21 41.78-16.78 9-8.41 11.85-16.68 8.89-24.84l-50.67 24.84c-4.68 7.24-7.19 13.7 0 16.78 1.1 3.61 8.84 5.23 18.67 6.22" class="cls-4"/>
    <path d="M223.8 592.65q7.2-20.5-9.89-20.16c-29.57 9.27-58.55 18.68-62 34 1.81 11.72 8.64 14.23 16.72 14.44Z" class="cls-4"/>
  </g>
  <path id="Ebene_4" d="M498.35 579.62v25.78c-8.82 34.7-30.25 77.42-56.83 123.41-6 54-8.47 102.41 4.86 125.78l28 141.52 94.22.35 5.34-404.74-33.28-34.23-42.28 22.09" class="cls-1" data-name="Ebene 4"/>
  <path id="Ebene_7" d="M485.11 119.68q-24-52.54 20.79-105.19c37.54 18.49 54.41 49 45.87 94.39" class="cls-5" data-name="Ebene 7"/>
  <path id="Ebene_11" d="M575.13 592.26 570 769.57l-26.84 130.64c-.57 36 4.06 68.54 16 96.28h300.2C803 937.33 750.9 867.27 713.58 759.86c-19.87-71.29-39.53-142.23-40.24-182.37L654.9 533.9l-79.78 58.36" class="cls-5" data-name="Ebene 11"/>
  <path id="Ebene_8" d="M633.9 640.49c41.7 21.76 71.54 44.17 76 68 5 24.44 4.8 45.11 0 62.37-3.1 22.88-8.76 33.53-16 36.63q-2-12.22-4-24c5.33 34.16-.91 60.76-23 77 7.44-17.18 9.25-32.35 4-45-6.3 46.87-32.13 78.19-85 88 13.92-11.33 25.07-22.66 27-34-20 24.34-41.73 42.64-68 44.78 11.16-8.59 20.18-16.93 15.57-23.71-16.57 16.14-52 29.13-118.57 36.93-13.47 7.81-25.76 21.68-37 41-10 12.86-23.65 22.1-41.56 27-6.07 1.36-11.94 1.74-14.44-13 5.16-5.48 8.63-10.33 9-14-14.58 3.72-22.86-.52-27-10 1.53-13.29 8.26-22.74 22-27-15 .81-20.87-3.6-22-10.7 6.05-13.55 19.84-22.23 41-26.3-24.15-8.29-32.37-25.51-33-47 12.05-6.67 31.67 1.25 59 24 30.09 2.15 47.45 0 53-6q105.33-47.93 147-173" class="cls-5" data-name="Ebene 8"/>
  <path id="Ebene_5" d="M365.9 316.49c-53.27 35.24-81.4 80.77-76 140 5.87-19.24 15-35.68 30-47-19 27.92-24.28 55.59-15 83 2.87-20.86 8.81-39.17 22.66-50.86-18.14 42.23 9.1 82.17 68.92 120.47 30.36 13.32 59.79 18.56 88.26 15.43q30.87-3.39 60.21-20c-20.09 9.42-38.62 17.6-51 20.88 67.24 23.45 125.34 18.48 173-18.92-7.37 15.68-15.83 29.85-32.15 33.16 43.2-13.16 74.42-31.73 87.2-58.75-4.35 16.68-8.82 31.16-14 33.59 27.67-12 45.33-33.76 50-68 3.31 15.88 4.89 30.68 0 41.44 29.34-28.17 43.44-57.53 25.59-89.37C794.68 454.49 798 459 797 464.49c-6.61-62.14-42.92-99.35-118-104l61.33-36.84Z" class="cls-1" data-name="Ebene 5"/>
  <g id="Ebene_10" data-name="Ebene 10">
    <path d="M386.47 479.3q.91 78.19 21.92 109.19h39.51c13-3.52 23.29-42.06 32.19-100.12" class="cls-6"/>
    <path d="M392.41 399v28.15c7 24.8 17.38 28.14 28.43 27.41 32.21-1.85 57.11-14 73.07-38.67" class="cls-7"/>
    <path d="M420.84 454.57v24.73c54.67 15.84 103.46 13.55 143.06-16.81M357.9 461.49q18.54 26.72 62.93 17.81l.07 61.19M563.9 443.75c15.37-6.58 31-.26 47 19.74" class="cls-8"/>
  </g>
  <path id="Ebene_2" d="M407.25 369.32c-21.22-4.79-38.49-16-40.84-51.33-4.06-42.4 1.29-82.34 23-118 23.41-41.14 58.45-66.1 100-82 23.83-9.18 52.23-10.61 83-8-16.08-9.16-36.89-12.91-67-6 17.32-15.38 42.39-19 77-8-5.6-6.2-13.81-11.29-34.61-11 59.73-12.76 111.57 8.81 156.61 60 65.58 66.87 80.11 151.71 65 247-25.5-24.32-57.1-34.71-94-33 16.36 2.25 30 13 40.54 33-19.83-25.86-49.21-31.29-84.54-24 21.51.19 37.12 4.33 46 13-23-4.67-44-4.73-62 3-19 12.3-42.69 21-70 27l-51.51 4.91c-10.76 1.91-21.84 3.66-33.5 5.09h-43.71c-12.34-5.23-20.82-12.37-24.28-22 5.28-9.67 10.59-19.4 14.84-29.67C420.6 337.06 434 295.62 446.41 249" class="cls-5" data-name="Ebene 2"/>
  <path d="M582.9 266.49c-24 14.21-36.12 32.77-36 55.78v39.11c5.81 15.33 11.8 20.93 17.93 19.11 13.18-.28 25.41-10.52 35.07-48 4.67-15.83 4.51-33.21 0-52-.58-5.35-5.49-10.07-17-14ZM422.9 251.21c2.33 26.88.4 50.3-7 69.28-3.36 17.4-11.19 26.27-23 27.56-7.88-3-12.18-8.37-13-16v-40.56q7.22-40.73 26-55c9.44.88 16.36 4.45 17 14.72Z" class="cls-7"/>
  <path d="M593.9 289.49c-6.66 4.21-12 9.42-13 18q1.47 11.29 11 14c6.64-2.55 11.26-6.55 11.44-13.74-.96-13.43-3.85-20.4-9.44-18.26ZM423.84 271.9c.19 6.42-2.51 9.92-7.93 10.66q-8.16-.88-9-10.07c.69-6.52 4.24-11.16 9-15 6.58-1 9.31 3.65 7.93 14.41Z" class="cls-6"/>
  <g id="Ebene_3" data-name="Ebene 3">
    <path d="M682.9 188.49q35-94.92 145-107c2.52 72.93-34.63 120.56-119 138.05" class="cls-5"/>
    <path d="M711.9 199.49q63.87-21 78-76c-41.08 12.78-70.61 33.61-85 65" class="cls-8"/>
  </g>
</svg>
