<svg xmlns="http://www.w3.org/2000/svg" xmlns:xlink="http://www.w3.org/1999/xlink" viewBox="0 0 852.17 991.94"><defs><style>.cls-1{fill:#994814;}.cls-1,.cls-2,.cls-3,.cls-4,.cls-7,.cls-8{stroke:#000;stroke-miterlimit:10;stroke-width:4px;}.cls-2{fill:#ffd39d;}.cls-3{fill:none;}.cls-4{fill:#fff2ec;}.cls-5{fill:url(#Unbenannter_Verlauf_7);}.cls-6{fill:url(#Unbenannter_Verlauf_21);}.cls-8{fill:#fff;}</style><radialGradient id="Unbenannter_Verlauf_7" cx="327.63" cy="395.48" r="44" gradientUnits="userSpaceOnUse"><stop offset="0" stop-color="#ff4e5e"/><stop offset="1" stop-color="#fff2ec"/></radialGradient><radialGradient id="Unbenannter_Verlauf_21" cx="378.67" cy="374.78" r="34.86" gradientTransform="translate(-3.38 3.43) rotate(-0.52)" gradientUnits="userSpaceOnUse"><stop offset="0" stop-color="#ff4e5e"/><stop offset="0.34" stop-color="#ff979d"/><stop offset="0.68" stop-color="#ffd8d6"/><stop offset="0.83" stop-color="#fff2ec"/></radialGradient></defs><g id="Koerper"><path class="cls-1" d="M581.22,596.77l-5.11,177.31L549.25,904.72c-.57,36,4.06,68.54,16,96.28h300.2C809.07,941.84,757,871.78,719.67,764.37,699.8,693.08,680.14,622.14,679.43,582L661,538.41l-79.78,58.36" transform="translate(-292.37 -16.52)"/><path class="cls-2" d="M502.44,584.13v25.78c-8.82,34.7-30.25,77.42-56.83,123.41-6,54-8.47,102.41,4.86,125.78l27.54,137,94.64,4.87L578,596.23,544.72,562l-42.28,22.09" transform="translate(-292.37 -16.52)"/></g><g id="Arm"><path class="cls-1" d="M647.34,649.83C688.09,673.31,717,697,720.43,720.94c4,24.63,2.91,45.27-2.61,62.32-4.05,22.73-10.15,33.13-17.52,35.93q-1.51-12.3-3-24.15c3.9,34.36-3.45,60.67-26.2,76,8.15-16.85,10.59-31.93,5.88-44.79-8.25,46.56-35.38,76.78-88.61,84.37,14.39-10.74,26-21.59,28.4-32.84-21,23.48-43.48,40.85-69.76,41.89,11.51-8.11,20.87-16.07,16.54-23C546.28,912,510.34,923.54,443.5,928.54c-13.78,7.24-26.64,20.59-38.68,39.42-10.56,12.43-24.55,21.09-42.65,25.24-6.13,1.11-12,1.24-13.88-13.59,5.38-5.27,9-10,9.57-13.61-14.72,3.11-22.82-1.48-26.56-11.12,2.09-13.22,9.2-22.38,23.11-26.06-15,.18-20.7-4.47-21.53-11.61,6.62-13.28,20.76-21.38,42.07-24.56-23.78-9.29-31.28-26.85-31-48.34,12.32-6.16,31.59,2.57,57.94,26.44,30,3.41,47.41,2,53.21-3.77Q562.33,823.5,609.2,700.27" transform="translate(-292.37 -16.52)"/></g><g id="Baeckchen"><path class="cls-2" d="M372,321c-52.35,36.19-83.54,81.84-76.69,144.5,5.8-24.42,16.47-40.86,30.69-51.5-18.54,26.11-23.44,53.79-15,83,3.17-23.37,10.34-40.88,22.66-50.86-14,31-4.27,65.2,46.34,104.74-51.23-57.67-46.24-137.29-8-229.88" transform="translate(-292.37 -16.52)"/><path class="cls-2" d="M680,370.85c7.33-13.52,27.79,2.92,42.09,25.65L685,365c22.42-5.85,51.16,1.63,90.5,31.5l-3.78.87c16.79,25.5,32.53,50.67,31.16,70.53-9.89-10.37-20.65-21.77-13.29-11.83,14.87,27.27,9.91,56.67-25.59,89.37,3.9-6.33,4.69-18.64,0-41.44-7.53,33.16-22.74,57.49-50,68,8.7-15.65,13.77-27.3,14-33.59-22.22,29.9-50,51.37-87.11,58.75C657.14,586,671.81,574.85,673,564c0,0,11.52-128.31,5.64-201.9" transform="translate(-292.37 -16.52)"/></g><g id="rechtes_Ohr" data-name="rechtes Ohr"><path class="cls-1" d="M491.2,124.19Q467.22,71.6,512,19c37.54,18.49,54.41,49,45.87,94.39" transform="translate(-292.37 -16.52)"/></g><g id="Kopf"><path class="cls-1" d="M710.5,149.5c-40.84-45.23-89.21-73.74-156.61-60,19.5.2,30.33,4.16,34.61,11-29.08-9.76-55.43-9.6-77,8,31.3-5.45,54.22-3.93,67,6-31.83-4-63.88-.82-96.27,13.5l166.68,15.7L661,144.84l23.2,2.18C668.84,223.49,668.52,298,680,370.85c16.53,2.12,30.2,11.58,42.09,25.65-10.3-19.66-22.85-29.27-37-31.5,28.45-5.82,58.79,6.36,90.5,31.5C793.64,287.94,768,209.08,711,150" transform="translate(-292.37 -16.52)"/></g><g id="linkes_Ohr" data-name="linkes Ohr"><path class="cls-1" d="M689,193Q724,98.08,834,86c2.52,72.93-34.63,120.56-119,138.05" transform="translate(-292.37 -16.52)"/><path class="cls-3" d="M718,204q63.88-21,78-76c-41.08,12.78-70.61,33.61-85,65" transform="translate(-292.37 -16.52)"/></g><g id="Maske"><path class="cls-4" d="M482.23,128l201.94,19C673,233.46,666.47,314.35,680,370.85L672.64,566c-44,30.38-97.63,43.21-172.64,17l49.2-20c-65.74,25.77-126.83,32.89-174-15.77C334.69,490.25,329.42,416.85,372,321,364,240.55,393.25,173.54,482.23,128Z" transform="translate(-292.37 -16.52)"/><g id="Ebene_24" data-name="Ebene 24"><circle class="cls-5" cx="327.63" cy="395.48" r="44"/><path class="cls-6" d="M368.51,336.37c-10.43,24.66-18.47,49.31-20.34,74a48.5,48.5,0,0,0,19.46,3c24.13-1.19,42.85-19.38,41.8-40.63C408.45,352.84,390.55,337.34,368.51,336.37Z" transform="translate(-292.37 -16.52)"/></g><g id="Augenbrauen"><path class="cls-7" d="M538.31,224.9q-11.62,14.58-.17,19.5,51.65-29,91.42,3.11C611.61,224.39,580.79,217.37,538.31,224.9Z" transform="translate(-292.37 -16.52)"/><path class="cls-7" d="M454.48,232.39q11.26,1.92,11.85-11.47c-19.29-13.21-40.85-15-65.77,0C427.26,215.15,447.24,216.77,454.48,232.39Z" transform="translate(-292.37 -16.52)"/></g><path class="cls-7" d="M672,268.56l97.28-21.27A225.88,225.88,0,0,1,778,287.07l-104.49,26.4Z" transform="translate(-292.37 -16.52)"/><g id="Bart"><path class="cls-7" d="M415.93,452.3l22.4,33.47c44.27,6.68,81,6,106.09-6.1C566.54,457.91,580,442,571.37,441c-10.81,12.18-21.47,25.54-33.2,30.3l-80,2.45L438.33,452.3l-5.43-2.55Z" transform="translate(-292.37 -16.52)"/><path class="cls-7" d="M435.79,457l-22.64,27.82c-23,1.14-42.07-1.75-51.85-13.91-8.81-11.23-13.56-20.22-10.23-24.75,4.48,8.94,9.63,17.08,19.61,19.45l32.64,6,16.94-19.67,19.67-5.81Z" transform="translate(-292.37 -16.52)"/></g></g><g id="Augen"><path class="cls-1" d="M581.22,255.72c-22.08,6.18-36.38,17.61-37.55,37.9v81.16c2.09,18.68,8.24,31.84,26.33,28.72,16.71-4.24,34.52-16.39,55.44-50.94,5.77-20.94,8.52-41.62,0-61.34C618.79,272.45,607,258.06,581.22,255.72Z" transform="translate(-292.37 -16.52)"/><path class="cls-1" d="M408,233.74c-14.27,14.81-26.51,30-28,47.26v45c.84,16,4.26,25.78,10,30,9.25,4.74,19,10.95,23,0,12.9-18.28,23.88-39.21,26.37-71.89,1.88-20.57,3.77-41.15-9.09-46.81C426.05,232.79,419.31,230.88,408,233.74Z" transform="translate(-292.37 -16.52)"/><path class="cls-7" d="M589,271c-24,14.21-36.12,32.77-36,55.78v39.11c5.81,15.33,11.8,20.93,17.93,19.11,13.18-.28,25.41-10.52,35.07-48,4.67-15.83,4.51-33.21,0-52C605.41,279.69,600.5,274.93,589,271Z" transform="translate(-292.37 -16.52)"/><path class="cls-7" d="M429,255.72c2.33,26.88.4,50.3-7,69.28-3.36,17.4-11.19,26.27-23,27.56-7.88-3-12.18-8.37-13-16V296q7.22-40.72,26-55C421.43,241.88,428.35,245.45,429,255.72Z" transform="translate(-292.37 -16.52)"/><path class="cls-8" d="M600,294c-6.66,4.21-12,9.42-13,18q1.47,11.29,11,14c6.64-2.55,11.26-6.55,11.44-13.74C608.47,298.83,605.58,291.86,600,294Z" transform="translate(-292.37 -16.52)"/><path class="cls-8" d="M429.93,276.41c.19,6.42-2.51,9.92-7.93,10.66q-8.16-.88-9-10.07c.69-6.52,4.24-11.16,9-15C428.58,261,431.31,265.62,429.93,276.41Z" transform="translate(-292.37 -16.52)"/></g><g id="Nase"><path class="cls-7" d="M500,420.41c-16,24.69-40.86,36.82-73.07,38.67-11.05.73-21.45-2.61-28.43-27.41V403.5" transform="translate(-292.37 -16.52)"/><path class="cls-7" d="M425.08,336.37c-10,24.91-30,65-26.08,68.63" transform="translate(-292.37 -16.52)"/></g><g id="Mund"><path class="cls-8" d="M392.56,483.81Q393.48,562,414.48,593H454c12.95-3.52,23.29-42.06,32.19-100.12" transform="translate(-292.37 -16.52)"/><path class="cls-3" d="M364,466q18.54,26.72,62.93,17.81L427,545" transform="translate(-292.37 -16.52)"/><path class="cls-3" d="M426.93,483.81C481.6,499.62,530.39,497.36,570,467" transform="translate(-292.37 -16.52)"/><path class="cls-3" d="M581,450.26c15.37-6.58,31-.26,47,19.74" transform="translate(-292.37 -16.52)"/></g></svg>