<svg xmlns="http://www.w3.org/2000/svg" xmlns:xlink="http://www.w3.org/1999/xlink" viewBox="0 0 1250 1105.3">
  <defs>
    <style>
      .cls-1, .cls-2 {
        fill: #994814;
      }

      .cls-1, .cls-11, .cls-12, .cls-13, .cls-2, .cls-3, .cls-4, .cls-5, .cls-6, .cls-7, .cls-8 {
        stroke: #000;
      }

      .cls-1, .cls-11, .cls-12, .cls-13, .cls-14, .cls-15, .cls-16, .cls-3, .cls-4, .cls-6, .cls-8 {
        stroke-miterlimit: 10;
      }

      .cls-1, .cls-11, .cls-12, .cls-13, .cls-14, .cls-15, .cls-16, .cls-2, .cls-3, .cls-4, .cls-5, .cls-6, .cls-7, .cls-8 {
        stroke-width: 4px;
      }

      .cls-2, .cls-5, .cls-7 {
        stroke-linejoin: round;
      }

      .cls-3 {
        fill: #ffd39d;
      }

      .cls-4, .cls-5 {
        fill: #e6ded5;
      }

      .cls-5, .cls-7 {
        stroke-linecap: round;
      }

      .cls-14, .cls-6 {
        fill: none;
      }

      .cls-7 {
        fill: #891316;
      }

      .cls-8 {
        fill: #fff2ec;
      }

      .cls-9 {
        fill: url(#Unbenannter_Verlauf);
      }

      .cls-10 {
        fill: url(#Unbenannter_Verlauf_2);
      }

      .cls-12 {
        fill: #fff;
      }

      .cls-13 {
        fill: #1a1e16;
      }

      .cls-14, .cls-15 {
        stroke: #a07919;
      }

      .cls-15 {
        fill: #e6bf5f;
      }

      .cls-16 {
        fill: #d7d9d5;
        stroke: #9b9d99;
      }
    </style>
    <radialGradient id="Unbenannter_Verlauf" data-name="Unbenannter Verlauf" cx="685.18" cy="3848.13" r="44" gradientTransform="matrix(1, 0, 0, -1, -212.46, 4244.61)" gradientUnits="userSpaceOnUse">
      <stop offset="0" stop-color="#ff4e5e"/>
      <stop offset="1" stop-color="#fff2ec"/>
    </radialGradient>
    <radialGradient id="Unbenannter_Verlauf_2" data-name="Unbenannter Verlauf 2" cx="752.79" cy="3864.66" r="34.88" gradientTransform="matrix(1, -0.01, -0.01, -1, -483.53, 4230.68)" gradientUnits="userSpaceOnUse">
      <stop offset="0" stop-color="#ff4e5e"/>
      <stop offset="0.34" stop-color="#ff979d"/>
      <stop offset="0.68" stop-color="#ffd8d6"/>
      <stop offset="0.83" stop-color="#fff2ec"/>
    </radialGradient>
  </defs>
  <g id="Ebene_2" data-name="Ebene 2">
    <g>
      <path id="Ebene_8" data-name="Ebene 8" class="cls-1" d="M415.06,682.67q-115.37,63.8-225.32,27.73c-8.15.65-22.38-9.52-43.06-31.49-4.7-35.24-13.77-54.36-27.15-57.61-14.09,16.24-19.71,34.47-7.56,56.93-18.32-11.34-34.35-14.29-48-8.42-4,6-2.65,13.21,8.94,22.77-13-6.17-24.35-3.77-34.48,5-3.37,9.78-.15,18.5,13.1,25.64-2.76,2.45-8.6,3.67-16.11,4.21-8.14,12.53-3.56,16.23,1.82,19.34,16.5,8.52,32.8,11,48.87,8.28,21.35-6.6,39.79-8.48,55-5.1,54.26,39.34,89.12,53.78,112.24,53.13-1.2,8.11-13.48,8.14-27.51,6.9,20.78,16.22,49.16,17.47,80.36,13.11-9.1,7-25,7.82-42.89,6.72,45.54,28.59,85.75,23,122.13-7.17-4.7,12.86-16.31,22.8-33.42,30.4,27.25,3,49.86-12.34,69.08-41.08q-6.51,10-13.32,20.37c7.43,2.62,18.81-1.38,36.58-16.11,15.22-9.45,29.37-24.52,42.24-45.89,12.86-20.56,6.09-57.25-9.86-101.51"/>
      <path class="cls-2" d="M715.9,1102.27a119.59,119.59,0,0,1-3.89-16.15c-.87-4.41-3.89-26.59-3.89-26.59s7.69,4.08,12.14,5c-7.2-31.84-14.26-58.24-21.46-90.08l15.77,11.91L702.2,933.51c-.88-3.75-1.37-8.55,1.86-10.65s7.19,4.9,3.34,5.07A259.56,259.56,0,0,1,693,869.37c-.3-2.41-.28-5.42,1.85-6.58s4.56,3.16,2.15,3.43a229,229,0,0,1-11.17-62,36.65,36.65,0,0,0,11.37,14.29,153.32,153.32,0,0,1-1.36-58.34,18.46,18.46,0,0,1,12.47,11.4L710,714.3c.1-3.34.68-7.41,3.79-8.64s5.77,5,2.43,5.08q-2.24-39.62-1-79.32l11.17,19.36a669.9,669.9,0,0,1-8.15-110.65,31.58,31.58,0,0,1,12.87,19.35A339.68,339.68,0,0,1,721.35,477l8.22,12.27-11.65-74.87c-.54-3.46-.85-7.58,1.79-9.88s8.09,1.31,5.72,3.89a80.08,80.08,0,0,1,6.49-52.73,20.25,20.25,0,0,1,4.61,15.42,321.36,321.36,0,0,1,26-85.72,10.43,10.43,0,0,1,3.48,14A220.46,220.46,0,0,1,806.87,225,46,46,0,0,1,800,245.25l40.12-35.85L836.16,223a251.8,251.8,0,0,1,43.08-27.55l-3.16,11.12a66.72,66.72,0,0,1,44.74-28.33l-8.3,17.53c14.63-15,38.09-20.77,58-14.18l-10.27,15.09a97,97,0,0,1,30.85-4.53L971.45,207c26.16-5.49,64.24-8.05,85.74,7.83-3.63.13-16.94,9-20.56,9.13,25.51,2.19,53.95,19.89,74.76,34.79,41.15,29.47,89.49,61.75,107.59,109.53-5.07-4.54-48.37,7.23-48.37,7.23s-38.18,1.58-50-7.23c2.26,3.44,23.59,27.15,25.85,30.58-5.44,1.37-23.58,7.76-40.28-5.57s15.54,27,15.54,27-54.83-.36-69.5,17c10.77-4.85,45.23,10.22,57,9.17-7.3,9.7-25.61,20-32.9,29.69l29-2.09-34.46,40.26,24.14,1.94a164.24,164.24,0,0,0-40.35,44.49l25.7-1.37L1036.93,633a62.8,62.8,0,0,1,42,.09l-19,25.21,16.66-1.28a172.62,172.62,0,0,1-24.25,29.79,24.85,24.85,0,0,0,14.76,6,280,280,0,0,1-22.46,30.8c8.81-2.66,19.25,3.61,19.25,3.61s-23.54,28.94-27,37.46,5.86,21.31,13,15.45l-18.47,21.67L1048,805.9a131.34,131.34,0,0,1-39.26,51.31c-2.49,2-5.27,4.2-5.59,7.36s13.86,1.33,15.88-1.12c-5.3,5.25-20.44,15.4-25.74,20.65l19.63-1.18c-12.1,5.85-46.15,34.28-9.46,33.91-11.42,11.26-30.35,22.1-41.77,33.36-2.11,2.08-4.39,4.61-4,7.56s13,5.78,13,5.78-31.68,16.61-44.08,27l22-.81a256.6,256.6,0,0,0-52.3,37.46l19.26-1.08c-10.94,4.71-60,26.79-41.83,29.2,4.54.59,15.85,4.44,15.85,4.44s-48.3,18.94-51.83,21.3c-2.19,1.47,13.56,7.06,13.56,7.06s-35.66,7.32-45.33,14.2Z"/>
      <g id="Koerper">
        <path class="cls-1" d="M433.94,581.25l-5.11,177.31L402,889.2c-.57,36,11.46,186.17,23.4,213.91H729v-21.36c0-48.91-16-96.67-46.29-135-.77-1-1.56-2-2.36-2.94-41.55-50.82-79.13-112-107.93-194.92-19.87-71.29-39.53-142.22-40.24-182.35l-18.43-43.59-79.78,58.36"/>
        <path class="cls-3" d="M355.16,568.63v25.78c-8.82,34.71-30.25,77.42-56.83,123.42-6,54-8.47,102.41,4.86,125.78l27.54,259.5h94.64l5.35-522.36L397.44,546.5l-42.28,22.11"/>
      </g>
      <g>
        <path class="cls-4" d="M159,687.94s2.69,73.47,2.77,127.86-.57,106.32-16.73,157l-25.69,80.5h0A165.65,165.65,0,0,0,285.64,1061l12-6.23-25.31-98.49a237.66,237.66,0,0,1,1.31-123.2l37.57-134.3"/>
        <path class="cls-5" d="M233.34,687.94s35.86,6.52,39.21,9.69-12.62,13.15-43.08,14.15-68.75-20.58-68.75-20.58a3.06,3.06,0,0,1,.45-5.66l22.3-7.09a129.64,129.64,0,0,1,90.12,4.29l37.6,16s-18.31,29.72-90.52,34.64a47.77,47.77,0,0,1-34-15.07l-25.9-27.15"/>
        <line class="cls-6" x1="219.98" y1="733.41" x2="198.77" y2="1079.71"/>
        <path class="cls-7" d="M266.36,870.19s-22.41,3.74-54.11-.4-50.95-6.37-50.95-6.37l-1.44,28.06s24.24,8.65,49.75,11.27,55.28,0,55.28,0Z"/>
        <path class="cls-7" d="M161.3,863.42s-28.44-24.46-49-21.34-55.42,28.58-55.42,28.58v16s33.33-17.71,57.29-18.85,45.72,23.69,45.72,23.69Z"/>
        <path class="cls-7" d="M161.3,863.42s-49.82-1.79-66,11.31-33.4,52.65-33.4,52.65L70,941.17s19.82-32.11,39.93-45.2,50-4.49,50-4.49Z"/>
      </g>
      <path id="Arm" class="cls-1" d="M500.06,634.31c40.75,23.48,69.66,47.17,73.09,71.11,4,24.63,2.91,45.27-2.61,62.32-4,22.73-10.15,33.13-17.52,35.93q-1.5-12.3-3-24.15c3.9,34.36-3.45,60.67-26.2,76,8.15-16.85,10.59-31.93,5.88-44.79-8.25,46.56-35.38,76.78-88.61,84.37,14.39-10.74,26-21.59,28.4-32.84-21,23.48-43.48,41.85-69.76,42.89,11.51-8.11,20.87-17.07,16.54-24C399,896.48,363.06,909,296.27,914c-13.83,7.24-26.64,20.61-38.73,39.42C247,965.87,233,974.53,214.89,978.68c-6.13,1.11-12,1.24-13.88-13.59,5.38-5.27,9-10,9.57-13.61-14.72,3.11-22.82-1.48-26.56-11.12,2.09-13.22,9.2-22.38,23.11-26.06-15,.18-20.7-4.47-21.53-11.61,6.62-13.28,20.76-22.38,42.07-25.56-23.78-9.29-31.28-26.85-31-48.34,12.32-6.16,31.59,2.57,57.94,26.44,30,3.41,47.41,2,53.21-3.77Q415.06,808,461.92,684.75"/>
      <g id="Baeckchen">
        <path class="cls-3" d="M224.72,305.5C172.37,341.69,141.18,387.34,148,450c5.8-24.42,16.47-40.86,30.69-51.5-18.54,26.11-23.44,53.79-15,83,3.17-23.37,10.34-40.88,22.66-50.86-14,31-4.27,65.2,46.34,104.74-51.23-57.67-46.24-137.29-8-229.88m308,49.83c7.33-13.52,27.79,2.92,42.09,25.65L537.72,349.5c22.42-5.85,51.16,1.63,90.5,31.5l-3.78.87c16.79,25.5,32.53,50.67,31.16,70.53C645.71,442,635,430.63,642.31,440.57c14.87,27.27,9.91,56.67-25.59,89.37,3.9-6.33,4.69-18.64,0-41.44-7.53,33.16-22.74,57.49-50,68,8.7-15.65,13.77-27.3,14-33.59-22.22,29.9-50,51.37-87.11,58.75,16.25-11.16,30.92-22.33,32.11-33.16,0,0,11.52-128.31,5.64-201.9"/>
      </g>
      <path id="rechtes_Ohr" data-name="rechtes Ohr" class="cls-1" d="M343.92,108.63Q319.92,56,364.72,3.44c37.54,18.49,54.41,49,45.87,94.39"/>
      <path id="Kopf" class="cls-1" d="M563.22,134C522.38,88.75,474,60.24,406.61,74c19.5.2,30.33,4.16,34.61,11-29.08-9.76-55.43-9.6-77,8,31.3-5.45,54.22-3.93,67,6-31.83-4-63.88-.82-96.27,13.5l166.71,15.7,12.09,1.14L537,131.5c-15.36,76.47-15.68,151-4.2,223.83,16.53,2.12,30.2,11.58,42.09,25.65-10.3-19.66-22.85-29.27-37-31.5,28.45-5.82,58.79,6.36,90.5,31.5,18-108.56-7.59-187.42-64.59-246.5"/>
      <g id="Maske">
        <path class="cls-8" d="M335,112.5l201.94,19c-11.17,86.46-17.7,167.35-4.17,223.85L525.36,550.5c-44,30.38-97.63,43.21-172.64,17l49.2-20c-65.74,25.77-126.83,32.89-174-15.77-40.51-57-45.78-130.38-3.2-226.23C216.72,225,246,158,335,112.5Z"/>
        <g id="Ebene_24" data-name="Ebene 24">
          <circle class="cls-9" cx="472.72" cy="396.48" r="44"/>
          <path class="cls-10" d="M221.23,320.85c-10.43,24.66-18.47,49.31-20.34,74a48.17,48.17,0,0,0,19.46,3c24.13-1.19,42.85-19.38,41.8-40.63C261.17,337.32,243.27,321.82,221.23,320.85Z"/>
        </g>
        <g id="Augenbrauen">
          <path class="cls-11" d="M391,209.38q-11.61,14.58-.17,19.5,51.63-29,91.42,3.11C464.33,208.87,433.51,201.85,391,209.38Zm-83.83,7.49q11.25,1.92,11.85-11.47c-19.29-13.21-40.85-15-65.77,0,26.7-5.77,46.68-4.15,53.92,11.47Z"/>
        </g>
        <path class="cls-11" d="M525.61,252.85,622,231.77a225.58,225.58,0,0,1,8.72,39.78L526.23,298s-1.1-9.94-1.1-20.95S525.61,252.85,525.61,252.85Z"/>
        <g id="Bart">
          <path class="cls-11" d="M268.66,436.78l22.4,33.47c44.27,6.68,81,6,106.09-6.1,22.09-21.76,35.51-37.65,26.92-38.65-10.81,12.18-21.47,25.54-33.2,30.3l-80,2.45L291,436.8l-5.4-2.55Z"/>
          <path class="cls-11" d="M288.51,441.5l-22.64,27.8c-23,1.14-42.07-1.75-51.85-13.91-8.81-11.23-13.56-20.22-10.23-24.75,4.48,8.94,9.63,17.08,19.61,19.45l32.64,6L273,436.42l19.68-5.79Z"/>
        </g>
      </g>
      <g id="Augen">
        <path class="cls-1" d="M433.94,240.2c-22.08,6.18-36.38,17.61-37.55,37.9v81.16c2.09,18.68,8.24,31.84,26.33,28.72,16.71-4.24,34.52-16.39,55.44-50.94,5.77-20.94,8.52-41.62,0-61.34-6.65-18.77-18.44-33.2-44.22-35.5Zm-173.22-22c-14.27,14.81-26.51,30-28,47.26v45c.84,16,4.26,25.78,10,30,9.25,4.74,19,10.95,23,0,12.94-18.28,23.94-39.21,26.37-71.85,1.88-20.57,3.77-41.15-9.09-46.81C278.77,217.27,272,215.36,260.72,218.22Z"/>
        <path class="cls-11" d="M441.72,255.5c-24,14.21-36.12,32.77-36,55.78v39.11c5.81,15.31,11.8,20.91,17.94,19.11,13.18-.28,25.41-10.52,35.07-48,4.67-15.83,4.51-33.21,0-52C458.13,264.17,453.22,259.41,441.72,255.5Zm-160-15.3c2.33,26.88.4,50.3-7,69.28-3.36,17.4-11.19,26.27-23,27.56-7.88-3-12.18-8.37-13-16V280.5q7.2-40.71,26-55C274.15,226.36,281.07,229.93,281.72,240.2Z"/>
        <path class="cls-12" d="M452.72,278.5c-6.66,4.21-12,9.42-13,18q1.47,11.29,11,14C457.36,308,462,304,462.16,296.76,461.19,283.31,458.3,276.34,452.72,278.5ZM282.66,260.89c.19,6.42-2.51,9.92-7.93,10.66q-8.16-.87-9-10.07c.69-6.52,4.24-11.16,9-15C281.3,245.5,284,250.1,282.66,260.89Z"/>
      </g>
      <g id="Nase">
        <path class="cls-11" d="M352.72,404.89c-16,24.69-40.86,36.82-73.07,38.67-11,.73-21.45-2.61-28.43-27.41V388"/>
        <path class="cls-11" d="M277.8,320.85c-10,24.91-30,65-26.08,68.63"/>
      </g>
      <g id="Mund">
        <path class="cls-12" d="M245.28,468.29q.93,78.21,21.92,109.21h39.52c13-3.52,23.29-42.06,32.19-100.12"/>
        <path class="cls-6" d="M216.72,450.5q18.54,26.72,62.94,17.79l.07,61.19m-.07-61.19c54.64,15.81,103.43,13.55,143-16.79m11.06-16.76c15.37-6.58,31-.26,47,19.74"/>
      </g>
      <g>
        <g>
          <path class="cls-13" d="M430.72,26.59c-185.8,0-183,123.65-193.26,179.18,61.73-20.82,78.26,42.84,101.45,44s38.1-31.1,105.1-40c94.51-12.59,180.4,33,177.81,18.9C611.6,173.07,616.52,26.59,430.72,26.59Z"/>
          <path class="cls-13" d="M103.14,79.43a1.71,1.71,0,0,1,0-3.32c33.57-8.49,185.26-49.52,327.63-49.52s294.06,41,327.63,49.52a1.71,1.71,0,0,1,0,3.32L371.6,137.14a85.33,85.33,0,0,1-37.76,0Z"/>
          <g>
            <path class="cls-14" d="M535,116.21c1.92,16.2-4.13,27.29-5.06,56.24-1.14,35.25,2.49,37.25,2.49,37.25"/>
            <path class="cls-15" d="M563.1,418.18c-13.48,2.43-60.14,12.06-60.14,2.73S526.79,250,526.79,250H540.4S546.64,393.58,563.1,418.18Z"/>
            <rect class="cls-16" x="526.79" y="209.7" width="13.62" height="40.28" rx="6.81"/>
          </g>
        </g>
        <g id="linkes_Ohr" data-name="linkes Ohr">
          <path class="cls-1" d="M541.72,177.31q35-94.92,145-107c2.52,72.93-34.63,120.56-119,138.05,0,0-13.45-3.53-19.72-13.12S541.72,177.31,541.72,177.31Z"/>
          <path class="cls-6" d="M570.72,188.31q63.87-21,78-76c-41.08,12.78-70.61,33.61-85,65"/>
        </g>
      </g>
    </g>
  </g>
</svg>
