<svg xmlns="http://www.w3.org/2000/svg" id="Ebene_1" data-name="Ebene 1" viewBox="0 0 1000 1000">
  <defs>
    <radialGradient id="Unbenannter_Verlauf_6" cx="729.52" cy="420.35" r="44" data-name="Unbenannter Verlauf 6" gradientTransform="translate(-212.46 -13.37)" gradientUnits="userSpaceOnUse">
      <stop offset="0" stop-color="#ff4e5e"/>
      <stop offset="1" stop-color="#fff2ec"/>
    </radialGradient>
    <radialGradient id="Unbenannter_Verlauf_2" cx="781.23" cy="401.73" r="34.88" data-name="Unbenannter Verlauf 2" gradientTransform="rotate(-.57 -2739.842 51258.8983)" gradientUnits="userSpaceOnUse">
      <stop offset="0" stop-color="#ff4e5e"/>
      <stop offset=".34" stop-color="#ff979d"/>
      <stop offset=".68" stop-color="#ffd8d6"/>
      <stop offset=".83" stop-color="#fff2ec"/>
    </radialGradient>
    <style>
      .cls-1{fill:#994814}.cls-1,.cls-2,.cls-3,.cls-7,.cls-8{stroke:#000;stroke-miterlimit:10;stroke-width:4px}.cls-2{fill:#ffd39d}.cls-3{fill:none}.cls-8{fill:#fff}
    </style>
  </defs>
  <g id="Koerper">
    <path d="m478.28 591.75-5.11 177.31-26.86 130.64c-.57 36 4.06 69.54 16 97.28h300.2c-56.38-59.16-108.45-130.22-145.78-237.63-19.87-71.29-39.53-142.22-40.24-182.35l-18.43-43.59-79.78 58.36" class="cls-1"/>
    <path d="M399.5 579.13v25.78c-8.82 34.71-30.25 77.42-56.83 123.42-6 54-8.47 102.41 4.86 125.78L375.07 997h94.64l5.35-405.75L441.78 557l-42.28 22.11" class="cls-2"/>
  </g>
  <path id="Arm" d="M544.4 644.81c40.75 23.48 69.66 47.17 73.09 71.11 4 24.63 2.91 45.27-2.61 62.32-4 22.73-10.15 33.13-17.52 35.93q-1.51-12.3-3-24.15c3.9 34.36-3.45 60.67-26.2 76 8.15-16.85 10.59-31.93 5.88-44.79-8.25 46.56-35.38 76.78-88.61 84.37 14.39-10.74 26-21.59 28.4-32.84-21 23.48-43.48 41.85-69.76 42.89 11.51-8.11 20.87-17.07 16.54-24-17.27 15.33-53.21 27.87-120 32.87-13.83 7.24-26.64 20.61-38.73 39.42-10.56 12.43-24.55 21.09-42.65 25.24-6.13 1.11-12 1.24-13.88-13.59 5.38-5.27 9-10 9.57-13.61-14.72 3.11-22.82-1.48-26.56-11.12 2.09-13.22 9.2-22.38 23.11-26.06-15 .18-20.7-4.47-21.53-11.61 6.62-13.28 20.76-22.38 42.07-25.56-23.78-9.29-31.28-26.85-31-48.34 12.32-6.16 31.59 2.57 57.94 26.44 30 3.41 47.41 2 53.21-3.77q107.23-43.47 154.1-166.71" class="cls-1"/>
  <g id="Baeckchen">
    <path d="M269.06 316c-52.35 36.19-83.54 81.84-76.69 144.5 5.8-24.42 16.47-40.86 30.69-51.5-18.54 26.11-23.44 53.79-15 83 3.17-23.37 10.34-40.88 22.66-50.86-14 31-4.27 65.2 46.34 104.74-51.23-57.67-46.24-137.29-8-229.88M577.06 365.83c7.33-13.52 27.79 2.92 42.09 25.65L582.06 360c22.42-5.85 51.16 1.63 90.5 31.5l-3.78.87c16.79 25.5 32.53 50.67 31.16 70.53-9.89-10.37-20.65-21.77-13.29-11.83 14.87 27.27 9.91 56.67-25.59 89.37 3.9-6.33 4.69-18.64 0-41.44-7.53 33.16-22.74 57.49-50 68 8.7-15.65 13.77-27.3 14-33.59-22.22 29.9-50 51.37-87.11 58.75C554.2 581 568.87 569.83 570.06 559c0 0 11.52-128.31 5.64-201.9" class="cls-2"/>
  </g>
  <path id="rechtes_Ohr" d="M388.26 119.13q-24-52.59 20.8-105.19c37.54 18.49 54.41 49 45.87 94.39" class="cls-1" data-name="rechtes Ohr"/>
  <path id="Kopf" d="M607.56 144.48c-40.84-45.23-89.21-73.74-156.61-60 19.5.2 30.33 4.16 34.61 11-29.08-9.76-55.43-9.6-77 8 31.3-5.45 54.22-3.93 67 6-31.83-4-63.88-.82-96.27 13.5L546 138.68l12.09 1.14 23.2 2.18c-15.36 76.47-15.68 151-4.2 223.83 16.53 2.12 30.2 11.58 42.09 25.65-10.3-19.66-22.85-29.27-37-31.5 28.45-5.82 58.79 6.36 90.5 31.5 18.05-108.56-7.59-187.42-64.59-246.5" class="cls-1"/>
  <g id="linkes_Ohr" data-name="linkes Ohr">
    <path d="M586.06 188q35-94.92 145-107c2.52 72.93-34.63 120.56-119 138.05" class="cls-1"/>
    <path d="M615.06 199q63.87-21 78-76c-41.08 12.78-70.61 33.61-85 65" class="cls-3"/>
  </g>
  <g id="Maske">
    <path d="m379.29 123 201.94 19c-11.17 86.46-17.7 167.35-4.17 223.85L569.7 561c-44 30.38-97.63 43.21-172.64 17l49.2-20c-65.74 25.77-126.83 32.89-174-15.77-40.51-57-45.78-130.38-3.2-226.23-8-80.47 21.25-147.48 110.23-193Z" style="fill:#fff2ec;stroke:#000;stroke-miterlimit:10;stroke-width:4px"/>
    <g id="Ebene_24" data-name="Ebene 24">
      <circle cx="517.06" cy="406.98" r="44" style="fill:url(#Unbenannter_Verlauf_6)"/>
      <path d="M265.57 331.35c-10.43 24.66-18.47 49.31-20.34 74a48.32 48.32 0 0 0 19.46 3c24.13-1.19 42.85-19.38 41.8-40.63-.98-19.9-18.88-35.4-40.92-36.37Z" style="fill:url(#Unbenannter_Verlauf_2)"/>
    </g>
    <g id="Augenbrauen">
      <path d="M435.37 219.88q-11.62 14.58-.17 19.5 51.63-29 91.42 3.11c-17.95-23.12-48.77-30.14-91.25-22.61ZM351.54 227.37q11.25 1.92 11.85-11.47c-19.29-13.21-40.85-15-65.77 0 26.7-5.77 46.68-4.15 53.92 11.47Z" class="cls-7"/>
    </g>
    <path d="m569.06 263.54 97.28-21.27a225.39 225.39 0 0 1 8.72 39.78l-104.49 26.4Z" class="cls-7"/>
    <g id="Bart">
      <path d="m313 447.28 22.4 33.47c44.27 6.68 81 6 106.09-6.1C463.58 452.89 477 437 468.41 436c-10.81 12.18-21.47 25.54-33.2 30.3l-80 2.45-19.84-21.45-5.4-2.55Z" class="cls-7"/>
      <path d="m332.85 452-22.64 27.8c-23 1.14-42.07-1.75-51.85-13.91-8.81-11.23-13.56-20.22-10.23-24.75 4.48 8.94 9.63 17.08 19.61 19.45l32.64 6 16.94-19.67 19.68-5.79Z" class="cls-7"/>
    </g>
  </g>
  <g id="Augen">
    <path d="M478.28 250.7c-22.08 6.18-36.38 17.61-37.55 37.9v81.16c2.09 18.68 8.24 31.84 26.33 28.72 16.71-4.24 34.52-16.39 55.44-50.94 5.77-20.94 8.52-41.62 0-61.34-6.65-18.77-18.44-33.2-44.22-35.5ZM305.06 228.72c-14.27 14.81-26.51 30-28 47.26v45c.84 16 4.26 25.78 10 30 9.25 4.74 19 10.95 23 0C323 332.7 334 311.77 336.43 279.13c1.88-20.57 3.77-41.15-9.09-46.81-4.23-4.55-10.97-6.46-22.28-3.6Z" class="cls-1"/>
    <path d="M486.06 266c-24 14.21-36.12 32.77-36 55.78v39.11c5.81 15.31 11.8 20.91 17.94 19.11 13.18-.28 25.41-10.52 35.07-48 4.67-15.83 4.51-33.21 0-52-.6-5.33-5.51-10.09-17.01-14ZM326.06 250.7c2.33 26.88.4 50.3-7 69.28-3.36 17.4-11.19 26.27-23 27.56-7.88-3-12.18-8.37-13-16V291q7.2-40.71 26-55c9.43.86 16.35 4.43 17 14.7Z" class="cls-7"/>
    <path d="M497.06 289c-6.66 4.21-12 9.42-13 18q1.47 11.29 11 14c6.64-2.55 11.26-6.55 11.44-13.74-.97-13.45-3.86-20.42-9.44-18.26ZM327 271.39c.19 6.42-2.51 9.92-7.93 10.66q-8.16-.87-9-10.07c.69-6.52 4.24-11.16 9-15 6.57-.98 9.3 3.62 7.93 14.41Z" class="cls-8"/>
  </g>
  <g id="Nase">
    <path d="M397.06 415.39c-16 24.69-40.86 36.82-73.07 38.67-11 .73-21.45-2.61-28.43-27.41v-28.17" class="cls-7"/>
    <path d="M322.14 331.35c-10 24.91-30 65-26.08 68.63" class="cls-7"/>
  </g>
  <g id="Mund">
    <path d="M289.62 478.79Q290.54 557 311.54 588h39.52c13-3.52 23.29-42.06 32.19-100.12" class="cls-8"/>
    <path d="M261.06 461q18.54 26.71 62.94 17.79l.07 61.19M324 478.79c54.64 15.81 103.43 13.55 143-16.79M478.06 445.24c15.37-6.58 31-.26 47 19.74" class="cls-3"/>
  </g>
</svg>