<svg xmlns="http://www.w3.org/2000/svg" viewBox="0 0 1000 1000"><g id="cap"><path d="M500,270.24c-273.13,0-269,205.83-284,287.46a72.4,72.4,0,0,0,14.82,58.59c42.22,52.33,147.9,166,269.17,166s227-113.68,269.17-166A72.4,72.4,0,0,0,784,557.7C769,476.07,773.13,270.24,500,270.24Z" fill="#1a1e16" stroke="#000" stroke-miterlimit="10" stroke-width="10"/><path d="M826.08,370.32c-3.75,27.1-12.25,36.69-8.34,88.4s3.67,54.76,3.67,54.76" fill="none" stroke="#a07919" stroke-miterlimit="10" stroke-width="10"/><path d="M18.43,347.92a2.52,2.52,0,0,1-.06-4.89C67.72,330.55,290.71,270.24,500,270.24S932.28,330.55,981.63,343a2.52,2.52,0,0,1-.06,4.89L527.76,444.07a125.35,125.35,0,0,1-55.52,0Z" fill="#1a1e16" stroke="#000" stroke-miterlimit="10" stroke-width="10"/><path d="M866.53,820c-19.81,3.58-88.4,17.74-88.4,4s35-251.27,35-251.27h20S842.34,783.8,866.53,820Z" fill="#e6bf5f" stroke="#a07919" stroke-miterlimit="10" stroke-width="8.96"/><rect x="813.15" y="513.48" width="20.02" height="59.21" rx="10.01" fill="#d7d9d5" stroke="#9b9d99" stroke-miterlimit="10" stroke-width="10"/></g></svg>