<svg xmlns="http://www.w3.org/2000/svg" viewBox="0 0 1000 1000"><g id="hazelnut"><path d="M809,398.44C746.13,242.26,507.43,178,344.24,169.82c-89.16,142.85-210.18,318.85-147.3,475S447.8,872.47,616.81,804.43,871.88,554.62,809,398.44Z" fill="#994814" stroke="#56341a" stroke-miterlimit="10" stroke-width="10.03"/><path d="M158.74,618.81a171.28,171.28,0,0,1,53.44,58c74.25,133.65,247.62,190.81,404.63,127.6C764.67,744.91,849,598.36,825.75,458.05c-6.93-41.76,7-84.29,36.32-114.81l16.11-16.76s-35.57-21.7-75.6,2.14-76.21,70-76.21,70-27.87-7.16-42.47-23.34S660,335.1,660,335.1s-19.63,35.24-25.36,69.37-2.44,96.13-2.44,96.13S599.12,462.36,592.82,423,588,339.67,588,339.67s-55.47,27.47-93.83,89.23S446.4,541.37,446.4,541.37s-35-39.47-63-54.28-60.56-9.81-60.56-9.81,9.66,16.7,18.5,62.39-6.47,71-6.47,71S249.2,568.92,212,566.72s-90.22,26.94-90.22,26.94Z" fill="#30431f" stroke="#302f0b" stroke-linejoin="round" stroke-width="10.03"/></g></svg>