<svg xmlns="http://www.w3.org/2000/svg" viewBox="0 0 420 630">
  <defs>
    <style>
      .cls-1 {
        fill: #994814;
      }

      .cls-1, .cls-2, .cls-3, .cls-4, .cls-5, .cls-6, .cls-7, .cls-8 {
        stroke: #56341a;
      }

      .cls-1, .cls-2, .cls-3, .cls-4, .cls-5 {
        stroke-miterlimit: 10;
      }

      .cls-1, .cls-2, .cls-4, .cls-5, .cls-7, .cls-8 {
        stroke-width: 11px;
      }

      .cls-2 {
        fill: none;
      }

      .cls-3 {
        fill: #d7d9d5;
        stroke-width: 10.72px;
      }

      .cls-4 {
        fill: #e6bf5f;
      }

      .cls-5, .cls-7 {
        fill: #56341a;
      }

      .cls-6, .cls-8 {
        fill: #1a1e16;
      }

      .cls-6, .cls-7, .cls-8 {
        stroke-linejoin: round;
      }

      .cls-6 {
        stroke-width: 8.45px;
      }
    </style>
  </defs>
  <g id="body">
    <g>
      <path class="cls-1" d="M130.08,168.73l-17-1.44a84,84,0,0,0-83.89,78.25c-1.78,26.07,4.24,87.22,3.75,95A129.6,129.6,0,0,1,29,365.07L26.1,376.16a225.38,225.38,0,0,0-6.73,41.13L8.24,577.15a44.89,44.89,0,0,0,40.94,47H371.1a44.88,44.88,0,0,0,40.93-47L400.91,417.29a225.38,225.38,0,0,0-6.73-41.13l-2.89-11.09a129.61,129.61,0,0,1-3.94-24.52c-.49-7.79,5.54-68.94,3.76-95a84,84,0,0,0-83.89-78.25l-17,1.44Z"/>
      <path class="cls-2" d="M198.94,61.65h22.4a25.22,25.22,0,0,1,25.22,25.22v26.91a0,0,0,0,1,0,0H173.72a0,0,0,0,1,0,0V86.87a25.22,25.22,0,0,1,25.22-25.22Z"/>
    </g>
    <g>
      <path class="cls-1" d="M318.82,390.28a259.17,259.17,0,0,0,2-31.88c0-93.65-49.54-169.57-110.64-169.57S99.5,264.75,99.5,358.4a259.17,259.17,0,0,0,2,31.88Z"/>
      <line class="cls-2" x1="210.14" y1="226.31" x2="210.14" y2="322.02"/>
      <rect class="cls-3" x="195.41" y="322.02" width="29.47" height="68.26"/>
      <path class="cls-4" d="M210.14,295.68a25.24,25.24,0,0,0-24.29,18.37,5.4,5.4,0,0,0,5.19,6.86h38.2a5.39,5.39,0,0,0,5.18-6.86A25.23,25.23,0,0,0,210.14,295.68Z"/>
    </g>
    <g id="Ebene_6" data-name="Ebene 6">
      <path class="cls-1" d="M53.91,416.78H366.37a0,0,0,0,1,0,0V560.23a25,25,0,0,1-25,25H78.93a25,25,0,0,1-25-25V416.78A0,0,0,0,1,53.91,416.78Z"/>
    </g>
  </g>
  <g id="open_bottom_fold" data-name="open bottom fold">
    <path class="cls-5" d="M52.75,345.34H367.53a10,10,0,0,1,10,10v61a18.91,18.91,0,0,1-18.91,18.91H61.7a18.91,18.91,0,0,1-18.91-18.91v-61a10,10,0,0,1,10-10Z" transform="translate(420.28 780.56) rotate(180)"/>
  </g>
  <g id="open_bottom" data-name="open bottom">
    <ellipse class="cls-6" cx="210.14" cy="435.22" rx="154.95" ry="23.14"/>
  </g>
  <g id="open_top_fold" data-name="open top fold">
    <polygon class="cls-7" points="363.81 188.83 56.46 188.83 44.08 136.2 210.14 136.2 376.2 136.2 363.81 188.83"/>
    <path class="cls-5" d="M357.2,28.4,212.74,6a16.86,16.86,0,0,0-5.21,0L63.08,28.4A11.94,11.94,0,0,0,53,39.06l-8.89,93.13A12.71,12.71,0,0,0,56.79,146h306.7a12.71,12.71,0,0,0,12.66-13.83l-8.9-93.13A11.93,11.93,0,0,0,357.2,28.4Z"/>
  </g>
  <g id="open_top" data-name="open top">
    <ellipse class="cls-8" cx="210.14" cy="187.11" rx="154.95" ry="39.2"/>
  </g>
</svg>
