<svg xmlns="http://www.w3.org/2000/svg" viewBox="0 0 420 630">
  <defs>
    <style>
      .cls-1 {
        fill: #994814;
      }

      .cls-1, .cls-2, .cls-3, .cls-4, .cls-5, .cls-6 {
        stroke: #56341a;
        stroke-miterlimit: 10;
      }

      .cls-1, .cls-2, .cls-4 {
        stroke-width: 11px;
      }

      .cls-2 {
        fill: none;
      }

      .cls-3, .cls-5 {
        fill: #d7d9d5;
      }

      .cls-3 {
        stroke-width: 10.72px;
      }

      .cls-4, .cls-6 {
        fill: #e6bf5f;
      }

      .cls-5, .cls-6 {
        stroke-width: 10.99px;
      }
    </style>
  </defs>
  <g id="body">
    <g>
      <path class="cls-1" d="M130.08,168.73l-17-1.44a84,84,0,0,0-83.89,78.25c-1.78,26.07,4.24,87.22,3.75,95A129.6,129.6,0,0,1,29,365.07L26.1,376.16a225.38,225.38,0,0,0-6.73,41.13L8.24,577.15a44.89,44.89,0,0,0,40.94,47H371.1a44.88,44.88,0,0,0,40.93-47L400.91,417.29a225.38,225.38,0,0,0-6.73-41.13l-2.89-11.09a129.61,129.61,0,0,1-3.94-24.52c-.49-7.79,5.54-68.94,3.76-95a84,84,0,0,0-83.89-78.25l-17,1.44Z"/>
      <path class="cls-2" d="M198.94,61.65h22.4a25.22,25.22,0,0,1,25.22,25.22v26.91a0,0,0,0,1,0,0H173.72a0,0,0,0,1,0,0V86.87a25.22,25.22,0,0,1,25.22-25.22Z"/>
    </g>
    <g>
      <path class="cls-1" d="M318.82,390.28a259.17,259.17,0,0,0,2-31.88c0-93.65-49.54-169.57-110.64-169.57S99.5,264.75,99.5,358.4a259.17,259.17,0,0,0,2,31.88Z"/>
      <line class="cls-2" x1="210.14" y1="226.31" x2="210.14" y2="322.02"/>
      <rect class="cls-3" x="195.41" y="322.02" width="29.47" height="68.26"/>
      <path class="cls-4" d="M210.14,295.68a25.24,25.24,0,0,0-24.29,18.37,5.4,5.4,0,0,0,5.19,6.86h38.2a5.39,5.39,0,0,0,5.18-6.86A25.23,25.23,0,0,0,210.14,295.68Z"/>
    </g>
    <g id="Ebene_6" data-name="Ebene 6">
      <path class="cls-1" d="M53.91,416.78H366.37a0,0,0,0,1,0,0V560.23a25,25,0,0,1-25,25H78.93a25,25,0,0,1-25-25V416.78A0,0,0,0,1,53.91,416.78Z"/>
    </g>
  </g>
  <g id="closed_bottom_fold" data-name="closed bottom fold">
    <path class="cls-1" d="M52.75,390.28H367.53a10,10,0,0,1,10,10v61a18.91,18.91,0,0,1-18.91,18.91H61.7a18.91,18.91,0,0,1-18.91-18.91v-61a10,10,0,0,1,10-10Z"/>
  </g>
  <g id="closed_top_fold" data-name="closed top fold">
    <g>
      <path class="cls-1" d="M357.2,231.39,212.74,253.75a16.86,16.86,0,0,1-5.21,0L63.08,231.39A11.94,11.94,0,0,1,53,220.73L44.13,127.6a12.71,12.71,0,0,1,12.66-13.83h306.7a12.71,12.71,0,0,1,12.66,13.83l-8.9,93.13A11.93,11.93,0,0,1,357.2,231.39Z"/>
      <path class="cls-5" d="M224.87,251.89l-11.62,1.79a18.55,18.55,0,0,1-6.22,0l-11.62-1.79V113.77h29.46Z"/>
      <rect class="cls-6" x="160.84" y="164.03" width="98.59" height="24.8" rx="6.58"/>
    </g>
  </g>
</svg>
