<svg xmlns="http://www.w3.org/2000/svg" viewBox="0 0 1000 1000"><g id="keyboard"><rect x="-5.12" y="323.09" width="1010.23" height="353.82" rx="12.71" transform="translate(-206.59 473.03) rotate(-42.81)" fill="#d7d9d5" stroke="#9b9d99" stroke-miterlimit="10" stroke-width="10"/><rect x="110.65" y="757.09" width="29.34" height="29.34" rx="4.24" transform="translate(-491.11 290.8) rotate(-42.81)" fill="#9b9d99" stroke="#9b9d99" stroke-miterlimit="10" stroke-width="4.24"/><rect x="135.63" y="780.18" width="49.06" height="29.34" rx="4.24" transform="translate(-497.53 320.63) rotate(-42.81)" fill="#9b9d99" stroke="#9b9d99" stroke-miterlimit="10" stroke-width="4.24"/><rect x="194.21" y="845.04" width="40.74" height="29.34" rx="4.24" transform="translate(-527.11 374.89) rotate(-42.81)" fill="#9b9d99" stroke="#9b9d99" stroke-miterlimit="10" stroke-width="4.24"/><rect x="164.01" y="808.93" width="58.67" height="29.34" rx="4.24" transform="matrix(0.73, -0.68, 0.68, 0.73, -508.22, 350.84)" fill="#9b9d99" stroke="#9b9d99" stroke-miterlimit="10" stroke-width="4.24"/><rect x="141.38" y="728.63" width="29.34" height="29.34" rx="4.24" transform="matrix(0.73, -0.68, 0.68, 0.73, -463.58, 304.1)" fill="#9b9d99" stroke="#9b9d99" stroke-miterlimit="10" stroke-width="4.24"/><rect x="172.1" y="700.16" width="29.34" height="29.34" rx="4.24" transform="matrix(0.73, -0.68, 0.68, 0.73, -436.06, 317.39)" fill="#9b9d99" stroke="#9b9d99" stroke-miterlimit="10" stroke-width="4.24"/><rect x="135.74" y="666.14" width="29.34" height="18.9" rx="4.24" transform="translate(-419.07 282.23) rotate(-42.81)" fill="#9b9d99" stroke="#9b9d99" stroke-miterlimit="10" stroke-width="4.24"/><rect x="74.3" y="723.07" width="29.34" height="18.9" rx="4.24" transform="translate(-474.13 255.64) rotate(-42.81)" fill="#9b9d99" stroke="#9b9d99" stroke-miterlimit="10" stroke-width="4.24"/><rect x="166.47" y="637.68" width="29.34" height="18.9" rx="4.24" transform="matrix(0.73, -0.68, 0.68, 0.73, -391.54, 295.52)" fill="#9b9d99" stroke="#9b9d99" stroke-miterlimit="10" stroke-width="4.24"/><rect x="197.19" y="609.21" width="29.34" height="18.9" rx="4.24" transform="translate(-364.01 308.82) rotate(-42.81)" fill="#9b9d99" stroke="#9b9d99" stroke-miterlimit="10" stroke-width="4.24"/><rect x="227.91" y="580.75" width="29.34" height="18.9" rx="4.24" transform="translate(-336.48 322.12) rotate(-42.81)" fill="#9b9d99" stroke="#9b9d99" stroke-miterlimit="10" stroke-width="4.24"/><rect x="271.02" y="540.81" width="29.34" height="18.9" rx="4.24" transform="translate(-297.86 340.77) rotate(-42.81)" fill="#9b9d99" stroke="#9b9d99" stroke-miterlimit="10" stroke-width="4.24"/><rect x="301.74" y="512.35" width="29.34" height="18.9" rx="4.24" transform="translate(-270.33 354.07) rotate(-42.81)" fill="#9b9d99" stroke="#9b9d99" stroke-miterlimit="10" stroke-width="4.24"/><rect x="332.46" y="483.89" width="29.34" height="18.9" rx="4.24" transform="translate(-242.8 367.36) rotate(-42.81)" fill="#9b9d99" stroke="#9b9d99" stroke-miterlimit="10" stroke-width="4.24"/><rect x="363.18" y="455.42" width="29.34" height="18.9" rx="4.24" transform="translate(-215.27 380.66) rotate(-42.81)" fill="#9b9d99" stroke="#9b9d99" stroke-miterlimit="10" stroke-width="4.24"/><rect x="409.38" y="412.62" width="29.34" height="18.9" rx="4.24" transform="translate(-173.87 400.65) rotate(-42.81)" fill="#9b9d99" stroke="#9b9d99" stroke-miterlimit="10" stroke-width="4.24"/><rect x="440.1" y="384.16" width="29.34" height="18.9" rx="4.24" transform="translate(-146.34 413.95) rotate(-42.81)" fill="#9b9d99" stroke="#9b9d99" stroke-miterlimit="10" stroke-width="4.24"/><rect x="470.82" y="355.7" width="29.34" height="18.9" rx="4.24" transform="translate(-118.81 427.24) rotate(-42.81)" fill="#9b9d99" stroke="#9b9d99" stroke-miterlimit="10" stroke-width="4.24"/><rect x="501.54" y="327.23" width="29.34" height="18.9" rx="4.24" transform="translate(-91.28 440.54) rotate(-42.81)" fill="#9b9d99" stroke="#9b9d99" stroke-miterlimit="10" stroke-width="4.24"/><rect x="550.03" y="282.32" width="29.34" height="18.9" rx="4.24" transform="translate(-47.84 461.52) rotate(-42.81)" fill="#9b9d99" stroke="#9b9d99" stroke-miterlimit="10" stroke-width="4.24"/><rect x="580.75" y="253.85" width="29.34" height="18.9" rx="4.24" transform="translate(-20.31 474.82) rotate(-42.81)" fill="#9b9d99" stroke="#9b9d99" stroke-miterlimit="10" stroke-width="4.24"/><rect x="611.47" y="225.39" width="29.34" height="18.9" rx="4.24" transform="translate(7.22 488.11) rotate(-42.81)" fill="#9b9d99" stroke="#9b9d99" stroke-miterlimit="10" stroke-width="4.24"/><rect x="657.24" y="182.99" width="29.34" height="18.9" rx="4.24" transform="translate(48.23 507.92) rotate(-42.81)" fill="#9b9d99" stroke="#9b9d99" stroke-miterlimit="10" stroke-width="4.24"/><rect x="687.96" y="154.53" width="29.34" height="18.9" rx="4.24" transform="translate(75.76 521.21) rotate(-42.81)" fill="#9b9d99" stroke="#9b9d99" stroke-miterlimit="10" stroke-width="4.24"/><rect x="718.68" y="126.06" width="29.34" height="18.9" rx="4.24" transform="translate(103.29 534.51) rotate(-42.81)" fill="#9b9d99" stroke="#9b9d99" stroke-miterlimit="10" stroke-width="4.24"/><rect x="751.39" y="95.76" width="29.34" height="18.9" rx="4.24" transform="translate(132.61 548.67) rotate(-42.81)" fill="#9b9d99" stroke="#9b9d99" stroke-miterlimit="10" stroke-width="4.24"/><rect x="202.82" y="671.7" width="29.34" height="29.34" rx="4.24" transform="translate(-408.53 330.69) rotate(-42.81)" fill="#9b9d99" stroke="#9b9d99" stroke-miterlimit="10" stroke-width="4.24"/><rect x="233.54" y="643.24" width="29.34" height="29.34" rx="4.24" transform="translate(-381 343.98) rotate(-42.81)" fill="#9b9d99" stroke="#9b9d99" stroke-miterlimit="10" stroke-width="4.24"/><rect x="264.26" y="614.77" width="29.34" height="29.34" rx="4.24" transform="translate(-353.47 357.28) rotate(-42.81)" fill="#9b9d99" stroke="#9b9d99" stroke-miterlimit="10" stroke-width="4.24"/><rect x="294.99" y="586.31" width="29.34" height="29.34" rx="4.24" transform="translate(-325.94 370.57) rotate(-42.81)" fill="#9b9d99" stroke="#9b9d99" stroke-miterlimit="10" stroke-width="4.24"/><rect x="325.71" y="557.85" width="29.34" height="29.34" rx="4.24" transform="translate(-298.41 383.87) rotate(-42.81)" fill="#9b9d99" stroke="#9b9d99" stroke-miterlimit="10" stroke-width="4.24"/><rect x="356.43" y="529.38" width="29.34" height="29.34" rx="4.24" transform="translate(-270.88 397.17) rotate(-42.81)" fill="#9b9d99" stroke="#9b9d99" stroke-miterlimit="10" stroke-width="4.24"/><rect x="387.15" y="500.92" width="29.34" height="29.34" rx="4.24" transform="translate(-243.35 410.46) rotate(-42.81)" fill="#9b9d99" stroke="#9b9d99" stroke-miterlimit="10" stroke-width="4.24"/><rect x="417.87" y="472.46" width="29.34" height="29.34" rx="4.24" transform="translate(-215.82 423.76) rotate(-42.81)" fill="#9b9d99" stroke="#9b9d99" stroke-miterlimit="10" stroke-width="4.24"/><rect x="448.59" y="443.99" width="29.34" height="29.34" rx="4.24" transform="translate(-188.29 437.05) rotate(-42.81)" fill="#9b9d99" stroke="#9b9d99" stroke-miterlimit="10" stroke-width="4.24"/><rect x="479.32" y="415.53" width="29.34" height="29.34" rx="4.24" transform="translate(-160.76 450.35) rotate(-42.81)" fill="#9b9d99" stroke="#9b9d99" stroke-miterlimit="10" stroke-width="4.24"/><rect x="586.38" y="316.34" width="29.34" height="29.34" rx="4.24" transform="translate(-64.82 496.68) rotate(-42.81)" fill="#9b9d99" stroke="#9b9d99" stroke-miterlimit="10" stroke-width="4.24"/><rect x="617.1" y="287.88" width="29.34" height="29.34" rx="4.24" transform="translate(-37.29 509.98) rotate(-42.81)" fill="#9b9d99" stroke="#9b9d99" stroke-miterlimit="10" stroke-width="4.24"/><rect x="647.82" y="259.41" width="29.34" height="29.34" rx="4.24" transform="translate(-9.76 523.27) rotate(-42.81)" fill="#9b9d99" stroke="#9b9d99" stroke-miterlimit="10" stroke-width="4.24"/><rect x="693.59" y="217.01" width="29.34" height="29.34" rx="4.24" transform="translate(31.25 543.08) rotate(-42.81)" fill="#9b9d99" stroke="#9b9d99" stroke-miterlimit="10" stroke-width="4.24"/><rect x="724.98" y="187.93" width="29.34" height="29.34" rx="4.24" transform="translate(59.38 556.66) rotate(-42.81)" fill="#9b9d99" stroke="#9b9d99" stroke-miterlimit="10" stroke-width="4.24"/><rect x="756.36" y="158.86" width="29.34" height="29.34" rx="4.24" transform="translate(87.5 570.25) rotate(-42.81)" fill="#9b9d99" stroke="#9b9d99" stroke-miterlimit="10" stroke-width="4.24"/><rect x="787.75" y="129.78" width="29.34" height="29.34" rx="4.24" transform="translate(115.63 583.83) rotate(-42.81)" fill="#9b9d99" stroke="#9b9d99" stroke-miterlimit="10" stroke-width="4.24"/><rect x="748.8" y="276.61" width="29.34" height="29.34" rx="4.24" transform="translate(5.46 596.48) rotate(-42.81)" fill="#9b9d99" stroke="#9b9d99" stroke-miterlimit="10" stroke-width="4.24"/><rect x="780.19" y="247.53" width="29.34" height="29.34" rx="4.24" transform="translate(33.59 610.07) rotate(-42.81)" fill="#9b9d99" stroke="#9b9d99" stroke-miterlimit="10" stroke-width="4.24"/><rect x="811.58" y="218.45" width="29.34" height="29.34" rx="4.24" transform="translate(61.71 623.65) rotate(-42.81)" fill="#9b9d99" stroke="#9b9d99" stroke-miterlimit="10" stroke-width="4.24"/><rect x="842.96" y="189.37" width="29.34" height="29.34" rx="4.24" transform="translate(89.83 637.23) rotate(-42.81)" fill="#9b9d99" stroke="#9b9d99" stroke-miterlimit="10" stroke-width="4.24"/><rect x="778.66" y="308.84" width="29.34" height="29.34" rx="4.24" transform="translate(-8.49 625.36) rotate(-42.81)" fill="#9b9d99" stroke="#9b9d99" stroke-miterlimit="10" stroke-width="4.24"/><rect x="810.05" y="279.76" width="29.34" height="29.34" rx="4.24" transform="translate(19.64 638.95) rotate(-42.81)" fill="#9b9d99" stroke="#9b9d99" stroke-miterlimit="10" stroke-width="4.24"/><rect x="841.43" y="250.68" width="29.34" height="29.34" rx="4.24" transform="translate(47.76 652.53) rotate(-42.81)" fill="#9b9d99" stroke="#9b9d99" stroke-miterlimit="10" stroke-width="4.24"/><rect x="802.82" y="326.52" width="72.12" height="29.34" rx="4.24" transform="translate(-8.37 661.03) rotate(-42.81)" fill="#9b9d99" stroke="#9b9d99" stroke-miterlimit="10" stroke-width="4.24"/><rect x="871.29" y="282.91" width="29.34" height="29.34" rx="4.24" transform="translate(33.82 681.41) rotate(-42.81)" fill="#9b9d99" stroke="#9b9d99" stroke-miterlimit="10" stroke-width="4.24"/><rect x="887.75" y="215.75" width="29.34" height="73.27" rx="4.24" transform="translate(68.91 680.55) rotate(-42.81)" fill="#9b9d99" stroke="#9b9d99" stroke-miterlimit="10" stroke-width="4.24"/><rect x="721.2" y="246.81" width="29.34" height="29.34" rx="4.24" transform="translate(18.36 569.78) rotate(-42.81)" fill="#9b9d99" stroke="#9b9d99" stroke-miterlimit="10" stroke-width="4.24"/><rect x="752.58" y="217.73" width="29.34" height="29.34" rx="4.24" transform="translate(46.48 583.36) rotate(-42.81)" fill="#9b9d99" stroke="#9b9d99" stroke-miterlimit="10" stroke-width="4.24"/><rect x="783.97" y="188.65" width="29.34" height="29.34" rx="4.24" transform="translate(74.61 596.95) rotate(-42.81)" fill="#9b9d99" stroke="#9b9d99" stroke-miterlimit="10" stroke-width="4.24"/><rect x="815.35" y="159.58" width="29.34" height="29.34" rx="4.24" transform="translate(102.73 610.53) rotate(-42.81)" fill="#9b9d99" stroke="#9b9d99" stroke-miterlimit="10" stroke-width="4.24"/><rect x="613.99" y="346.14" width="29.34" height="29.34" rx="4.24" transform="translate(-77.71 523.38) rotate(-42.81)" fill="#9b9d99" stroke="#9b9d99" stroke-miterlimit="10" stroke-width="4.24"/><rect x="644.71" y="317.67" width="29.34" height="29.34" rx="4.24" transform="translate(-50.18 536.68) rotate(-42.81)" fill="#9b9d99" stroke="#9b9d99" stroke-miterlimit="10" stroke-width="4.24"/><rect x="702.18" y="379.7" width="29.34" height="29.34" rx="4.24" transform="translate(-77.03 592.26) rotate(-42.81)" fill="#9b9d99" stroke="#9b9d99" stroke-miterlimit="10" stroke-width="4.24"/><rect x="729.78" y="409.5" width="29.34" height="29.34" rx="4.24" transform="translate(-89.92 618.96) rotate(-42.81)" fill="#9b9d99" stroke="#9b9d99" stroke-miterlimit="10" stroke-width="4.24"/><rect x="675.43" y="289.21" width="29.34" height="29.34" rx="4.24" transform="translate(-22.65 549.98) rotate(-42.81)" fill="#9b9d99" stroke="#9b9d99" stroke-miterlimit="10" stroke-width="4.24"/><rect x="699.06" y="437.96" width="29.34" height="29.34" rx="4.24" transform="translate(-117.45 605.67) rotate(-42.81)" fill="#9b9d99" stroke="#9b9d99" stroke-miterlimit="10" stroke-width="4.24"/><rect x="515.82" y="598.85" width="48.5" height="29.34" rx="4.24" transform="translate(-273.07 530.51) rotate(-42.81)" fill="#9b9d99" stroke="#9b9d99" stroke-miterlimit="10" stroke-width="4.24"/><rect x="316.68" y="783.35" width="48.5" height="29.34" rx="4.24" transform="translate(-451.52 444.33) rotate(-42.81)" fill="#9b9d99" stroke="#9b9d99" stroke-miterlimit="10" stroke-width="4.24"/><rect x="220.78" y="872.2" width="48.5" height="29.34" rx="4.24" transform="translate(-537.45 402.83) rotate(-42.81)" fill="#9b9d99" stroke="#9b9d99" stroke-miterlimit="10" stroke-width="4.24"/><rect x="268.73" y="827.78" width="48.5" height="29.34" rx="4.24" transform="translate(-494.49 423.58) rotate(-42.81)" fill="#9b9d99" stroke="#9b9d99" stroke-miterlimit="10" stroke-width="4.24"/><rect x="642.77" y="484.71" width="41.01" height="29.34" rx="4.24" transform="translate(-162.66 583.83) rotate(-42.81)" fill="#9b9d99" stroke="#9b9d99" stroke-miterlimit="10" stroke-width="4.24"/><rect x="602.48" y="522.03" width="41.01" height="29.34" rx="4.24" transform="translate(-198.77 566.4) rotate(-42.81)" fill="#9b9d99" stroke="#9b9d99" stroke-miterlimit="10" stroke-width="4.24"/><rect x="562.19" y="559.36" width="41.01" height="29.34" rx="4.24" transform="translate(-234.87 548.96) rotate(-42.81)" fill="#9b9d99" stroke="#9b9d99" stroke-miterlimit="10" stroke-width="4.24"/><rect x="760.5" y="381.03" width="29.34" height="29.34" rx="4.24" transform="translate(-62.39 632.26) rotate(-42.81)" fill="#9b9d99" stroke="#9b9d99" stroke-miterlimit="10" stroke-width="4.24"/><rect x="184.27" y="744.26" width="29.34" height="29.34" rx="4.24" transform="translate(-462.79 337.41) rotate(-42.81)" fill="#9b9d99" stroke="#9b9d99" stroke-miterlimit="10" stroke-width="4.24"/><rect x="214.99" y="715.8" width="29.34" height="29.34" rx="4.24" transform="translate(-435.26 350.71) rotate(-42.81)" fill="#9b9d99" stroke="#9b9d99" stroke-miterlimit="10" stroke-width="4.24"/><rect x="245.71" y="687.34" width="29.34" height="29.34" rx="4.24" transform="translate(-407.73 364) rotate(-42.81)" fill="#9b9d99" stroke="#9b9d99" stroke-miterlimit="10" stroke-width="4.24"/><rect x="276.43" y="658.87" width="29.34" height="29.34" rx="4.24" transform="translate(-380.2 377.3) rotate(-42.81)" fill="#9b9d99" stroke="#9b9d99" stroke-miterlimit="10" stroke-width="4.24"/><rect x="307.15" y="630.41" width="29.34" height="29.34" rx="4.24" transform="translate(-352.67 390.59) rotate(-42.81)" fill="#9b9d99" stroke="#9b9d99" stroke-miterlimit="10" stroke-width="4.24"/><rect x="337.88" y="601.95" width="29.34" height="29.34" rx="4.24" transform="translate(-325.14 403.89) rotate(-42.81)" fill="#9b9d99" stroke="#9b9d99" stroke-miterlimit="10" stroke-width="4.24"/><rect x="368.6" y="573.49" width="29.34" height="29.34" rx="4.24" transform="translate(-297.61 417.19) rotate(-42.81)" fill="#9b9d99" stroke="#9b9d99" stroke-miterlimit="10" stroke-width="4.24"/><rect x="399.32" y="545.02" width="29.34" height="29.34" rx="4.24" transform="translate(-270.08 430.48) rotate(-42.81)" fill="#9b9d99" stroke="#9b9d99" stroke-miterlimit="10" stroke-width="4.24"/><rect x="430.04" y="516.56" width="29.34" height="29.34" rx="4.24" transform="translate(-242.55 443.78) rotate(-42.81)" fill="#9b9d99" stroke="#9b9d99" stroke-miterlimit="10" stroke-width="4.24"/><rect x="460.76" y="488.1" width="29.34" height="29.34" rx="4.24" transform="translate(-215.02 457.07) rotate(-42.81)" fill="#9b9d99" stroke="#9b9d99" stroke-miterlimit="10" stroke-width="4.24"/><rect x="491.48" y="459.63" width="29.34" height="29.34" rx="4.24" transform="translate(-187.49 470.37) rotate(-42.81)" fill="#9b9d99" stroke="#9b9d99" stroke-miterlimit="10" stroke-width="4.24"/><rect x="522.21" y="431.17" width="29.34" height="29.34" rx="4.24" transform="translate(-159.96 483.66) rotate(-42.81)" fill="#9b9d99" stroke="#9b9d99" stroke-miterlimit="10" stroke-width="4.24"/><rect x="221.9" y="768.88" width="29.34" height="29.34" rx="4.24" transform="translate(-469.49 369.55) rotate(-42.81)" fill="#9b9d99" stroke="#9b9d99" stroke-miterlimit="10" stroke-width="4.24"/><rect x="252.62" y="740.42" width="29.34" height="29.34" rx="4.24" transform="translate(-441.96 382.85) rotate(-42.81)" fill="#9b9d99" stroke="#9b9d99" stroke-miterlimit="10" stroke-width="4.24"/><rect x="283.34" y="711.96" width="29.34" height="29.34" rx="4.24" transform="translate(-414.43 396.14) rotate(-42.81)" fill="#9b9d99" stroke="#9b9d99" stroke-miterlimit="10" stroke-width="4.24"/><rect x="314.07" y="683.5" width="29.34" height="29.34" rx="4.24" transform="translate(-386.9 409.44) rotate(-42.81)" fill="#9b9d99" stroke="#9b9d99" stroke-miterlimit="10" stroke-width="4.24"/><rect x="344.79" y="655.03" width="29.34" height="29.34" rx="4.24" transform="translate(-359.37 422.73) rotate(-42.81)" fill="#9b9d99" stroke="#9b9d99" stroke-miterlimit="10" stroke-width="4.24"/><rect x="375.51" y="626.57" width="29.34" height="29.34" rx="4.24" transform="translate(-331.84 436.03) rotate(-42.81)" fill="#9b9d99" stroke="#9b9d99" stroke-miterlimit="10" stroke-width="4.24"/><rect x="406.23" y="598.11" width="29.34" height="29.34" rx="4.24" transform="translate(-304.31 449.32) rotate(-42.81)" fill="#9b9d99" stroke="#9b9d99" stroke-miterlimit="10" stroke-width="4.24"/><rect x="436.95" y="569.64" width="29.34" height="29.34" rx="4.24" transform="translate(-276.78 462.62) rotate(-42.81)" fill="#9b9d99" stroke="#9b9d99" stroke-miterlimit="10" stroke-width="4.24"/><rect x="467.68" y="541.18" width="29.34" height="29.34" rx="4.24" transform="translate(-249.25 475.91) rotate(-42.81)" fill="#9b9d99" stroke="#9b9d99" stroke-miterlimit="10" stroke-width="4.24"/><rect x="498.4" y="512.72" width="29.34" height="29.34" rx="4.24" transform="translate(-221.72 489.21) rotate(-42.81)" fill="#9b9d99" stroke="#9b9d99" stroke-miterlimit="10" stroke-width="4.24"/><rect x="529.12" y="484.25" width="29.34" height="29.34" rx="4.24" transform="translate(-194.19 502.51) rotate(-42.81)" fill="#9b9d99" stroke="#9b9d99" stroke-miterlimit="10" stroke-width="4.24"/><rect x="559.84" y="455.79" width="29.34" height="29.34" rx="4.24" transform="translate(-166.66 515.8) rotate(-42.81)" fill="#9b9d99" stroke="#9b9d99" stroke-miterlimit="10" stroke-width="4.24"/><rect x="234.23" y="813.24" width="29.34" height="29.34" rx="4.24" transform="translate(-496.35 389.75) rotate(-42.81)" fill="#9b9d99" stroke="#9b9d99" stroke-miterlimit="10" stroke-width="4.24"/><rect x="264.96" y="784.77" width="29.34" height="29.34" rx="4.24" transform="translate(-468.82 403.04) rotate(-42.81)" fill="#9b9d99" stroke="#9b9d99" stroke-miterlimit="10" stroke-width="4.24"/><rect x="295.68" y="756.31" width="29.34" height="29.34" rx="4.24" transform="translate(-441.29 416.34) rotate(-42.81)" fill="#9b9d99" stroke="#9b9d99" stroke-miterlimit="10" stroke-width="4.24"/><rect x="326.4" y="727.85" width="29.34" height="29.34" rx="4.24" transform="translate(-413.76 429.63) rotate(-42.81)" fill="#9b9d99" stroke="#9b9d99" stroke-miterlimit="10" stroke-width="4.24"/><rect x="357.12" y="699.38" width="29.34" height="29.34" rx="4.24" transform="translate(-386.23 442.93) rotate(-42.81)" fill="#9b9d99" stroke="#9b9d99" stroke-miterlimit="10" stroke-width="4.24"/><rect x="387.84" y="670.92" width="29.34" height="29.34" rx="4.24" transform="translate(-358.7 456.23) rotate(-42.81)" fill="#9b9d99" stroke="#9b9d99" stroke-miterlimit="10" stroke-width="4.24"/><rect x="346.48" y="690.38" width="190.47" height="29.34" rx="4.24" transform="translate(-361.48 488.05) rotate(-42.81)" fill="#9b9d99" stroke="#9b9d99" stroke-miterlimit="10" stroke-width="4.24"/><rect x="418.56" y="642.46" width="29.34" height="29.34" rx="4.24" transform="translate(-331.17 469.52) rotate(-42.81)" fill="#9b9d99" stroke="#9b9d99" stroke-miterlimit="10" stroke-width="4.24"/><rect x="449.29" y="613.99" width="29.34" height="29.34" rx="4.24" transform="translate(-303.64 482.82) rotate(-42.81)" fill="#9b9d99" stroke="#9b9d99" stroke-miterlimit="10" stroke-width="4.24"/><rect x="480.01" y="585.53" width="29.34" height="29.34" rx="4.24" transform="translate(-276.11 496.11) rotate(-42.81)" fill="#9b9d99" stroke="#9b9d99" stroke-miterlimit="10" stroke-width="4.24"/><rect x="510.73" y="557.07" width="29.34" height="29.34" rx="4.24" transform="matrix(0.73, -0.68, 0.68, 0.73, -248.58, 509.41)" fill="#9b9d99" stroke="#9b9d99" stroke-miterlimit="10" stroke-width="4.24"/><rect x="541.45" y="528.61" width="29.34" height="29.34" rx="4.24" transform="matrix(0.73, -0.68, 0.68, 0.73, -221.05, 522.7)" fill="#9b9d99" stroke="#9b9d99" stroke-miterlimit="10" stroke-width="4.24"/><rect x="562.53" y="475.54" width="101.73" height="29.34" rx="4.24" transform="translate(-169.73 547.49) rotate(-42.81)" fill="#9b9d99" stroke="#9b9d99" stroke-miterlimit="10" stroke-width="4.24"/><rect x="504.23" y="373.22" width="70.84" height="29.34" rx="4.24" transform="translate(-119.83 470.11) rotate(-42.81)" fill="#9b9d99" stroke="#9b9d99" stroke-miterlimit="10" stroke-width="4.24"/><path d="M586.15,386a4.23,4.23,0,0,0-6-.23l-30.2,28a4.23,4.23,0,0,0-.22,6L563.93,435a4.23,4.23,0,0,0,6,.23l1.05-1a4.23,4.23,0,0,1,6,.23l24.85,26.82a4.24,4.24,0,0,0,6,.23l22.94-21.25a4.25,4.25,0,0,0,.22-6l-29.85-32.21a4.2,4.2,0,0,0-.55-.49,5.22,5.22,0,0,0-.45-.6Z" fill="#9b9d99" stroke="#9b9d99" stroke-miterlimit="10" stroke-width="4.24"/></g></svg>