<svg xmlns="http://www.w3.org/2000/svg" viewBox="0 0 1000 1000"><g id="Ebene_3" data-name="Ebene 3"><path d="M191,639.87a48.52,48.52,0,0,1-7.49-.6,41.78,41.78,0,0,1-27.88-16.81c-15.77-21.18-19-61.41-10.05-126.59,7.56-55.24,22.69-120.47,37.32-183.55,12.71-54.77,24.71-106.51,31.08-148.5,3.37-22.22,4.86-39.69,4.55-53.41-.38-17.3-3.65-25.07-6.32-28.55a7.91,7.91,0,0,0-5.59-3.4c-7.73-1-23.61,6.46-43.18,67.74-14.53,45.51-26.62,106.24-38.31,165C115.61,359.11,106.59,404.4,96.76,439c-12.44,43.81-23.83,62.89-39.33,65.83-9.76,1.85-19-3-27.47-14.54-13-17.67-13-50.77-.09-104.17,10.8-44.52,28.75-96,46.1-145.76,14.17-40.62,27.55-79,35.15-108.54,4-15.41,6-27.13,6.35-35.82.36-10.19-2-12.5-2.09-12.62l-.07,0c-5-1.07-8-5.6-6.85-10.12S114.62,66,119.58,67a18.77,18.77,0,0,1,12.26,8.59c12.8,20.59-5.26,75.16-38.27,169.85C76.33,294.89,58.52,346,47.9,389.77c-11.47,47.29-12.35,78-2.61,91.2,4.84,6.57,7.84,7.53,8.37,7.44,1.09-.21,11-3.46,25.23-53.58,9.66-34,18.62-79,28.1-126.67,11.77-59.14,24-120.3,38.75-166.65,8.17-25.58,16.37-44.28,25.09-57.19,11.33-16.77,24.26-24.33,38.41-22.5a26.68,26.68,0,0,1,18.11,10.41c11.08,14.41,12.6,43.37,4.94,93.89-6.46,42.58-18.53,94.6-31.31,149.68-14.55,62.74-29.6,127.61-37.06,182.15-8.1,59.23-5.74,97.95,7,115.08a23.4,23.4,0,0,0,15.74,9.68c6.42,1,11.53-.14,16.06-3.61,12.06-9.22,20.29-34.7,24.44-75.72,4-39.42,4.12-89.23,4.26-142,.2-76,.4-154.67,11.48-220.75,6.1-36.36,14.83-64.9,26.7-87.26,13.83-26.06,32.28-43.63,54.84-52.24L325,41l.55-.14c37.6-12.95,86.6-5.81,114,11.84,44.51,28.66,69.12,69.14,69.53,71.6.75,4.59-2.73,8.87-7.77,9.55s-9.74-2.48-10.49-7.07c-.16-1-24.12-35.55-61.39-60C408.58,53,364.8,45.94,331.06,56.86c-35.08,13.71-57.95,55-69.9,126.33C250.29,248,250.08,326,249.89,401.45c-.14,53.13-.27,103.31-4.34,143.47-4.81,47.52-14.35,74.36-30.94,87.05A37.9,37.9,0,0,1,191,639.87Z" fill="#9b9d99"/><path d="M700.5,951h-401a34.08,34.08,0,0,1-34.07-34.08V384.66c0-129.55,105-260.4,234.57-260.4h0c129.55,0,234.57,130.85,234.57,260.4V916.91A34.08,34.08,0,0,1,700.5,951Z" fill="#d7d9d5" stroke="#9b9d99" stroke-miterlimit="10" stroke-width="10"/><line x1="500" y1="550.54" x2="500" y2="124.26" fill="none" stroke="#9b9d99" stroke-miterlimit="10" stroke-width="10"/><line x1="265.43" y1="550.54" x2="734.57" y2="550.54" fill="none" stroke="#9b9d99" stroke-miterlimit="10" stroke-width="10"/><rect x="457.47" y="235.05" width="85.07" height="153.45" rx="42.53" fill="#1a1e16" stroke="#9b9d99" stroke-miterlimit="10" stroke-width="10"/></g></svg>