<svg xmlns="http://www.w3.org/2000/svg" xmlns:xlink="http://www.w3.org/1999/xlink" viewBox="0 0 1000 1000"><g id="vrglasses"><path d="M171.73,155.86V858.14c0,53.87,150.27,97.54,335.64,97.54S843,912,843,858.14V155.86Z" fill="#f5f7f3" stroke="#9b9d99" stroke-miterlimit="10" stroke-width="10"/><ellipse cx="507.37" cy="155.86" rx="335.64" ry="97.54" fill="#d7d9d5" stroke="#9b9d99" stroke-miterlimit="10" stroke-width="10"/><path d="M820.94,270.73c-21.1-1.1-41.57,10-60,30.48-5,5.58-4.31,13.19,1.91,18.31,46.36,38.12,75.84,141.88,69.53,262.09C827.9,667.7,806,743.47,775.55,791.7c-5.9,9.34,2.74,20.72,16.65,21.52h.27c66.71,3.5,127.17-115.1,135-264.91S887.65,274.23,820.94,270.73Z" fill="#f5f7f3" stroke="#9b9d99" stroke-miterlimit="10" stroke-width="10"/><image width="2000" height="803" transform="translate(198.05 417.79) scale(0.31)" xlink:href="../2000px-Logo-Hochschule-RheinMain.svg.png"/></g></svg>