<svg id="Ebene_1" data-name="Ebene 1" xmlns="http://www.w3.org/2000/svg" viewBox="0 0 1000 748.83">
  <defs>
    <style>
      .cls-1 {
        fill: #e6bf5f;
      }
    </style>
  </defs>
  <g>
    <path class="cls-1" d="M662.58,142.44H260.79V16.89c0-15-18.16-22.54-28.78-11.92L4.94,232.05a16.85,16.85,0,0,0,0,23.84L232,483c10.62,10.62,28.78,3.1,28.78-11.92V345.5H662.58a16.86,16.86,0,0,0,16.86-16.86V159.29A16.85,16.85,0,0,0,662.58,142.44Z"/>
    <path class="cls-1" d="M337.42,606.39H739.21V731.94c0,15,18.16,22.54,28.78,11.92L995.06,516.78a16.85,16.85,0,0,0,0-23.84L768,265.87c-10.62-10.62-28.78-3.1-28.78,11.92V403.33H337.42a16.86,16.86,0,0,0-16.86,16.86V589.54A16.85,16.85,0,0,0,337.42,606.39Z"/>
  </g>
</svg>
