<svg xmlns="http://www.w3.org/2000/svg" viewBox="0 0 1000 1000"><g id="vrglasses"><circle cx="53.94" cy="560.81" r="39.2" fill="#1a1e16" stroke="#000" stroke-linejoin="round" stroke-width="10"/><path d="M24,481.86H42.66A2.13,2.13,0,0,1,44.79,484V730.12a8.61,8.61,0,0,1-8.61,8.61H20.78a8.61,8.61,0,0,1-8.61-8.61V493.73A11.86,11.86,0,0,1,24,481.86Z" fill="#1a1e16" stroke="#000" stroke-linejoin="round" stroke-width="10"/><circle cx="946.06" cy="560.81" r="39.2" fill="#1a1e16" stroke="#000" stroke-linejoin="round" stroke-width="10"/><path d="M963.82,481.86h15.4a8.61,8.61,0,0,1,8.61,8.61V736.6a2.13,2.13,0,0,1-2.13,2.13H967.08a11.86,11.86,0,0,1-11.86-11.86V490.47a8.61,8.61,0,0,1,8.61-8.61Z" transform="translate(1943.04 1220.59) rotate(-180)" fill="#1a1e16" stroke="#000" stroke-linejoin="round" stroke-width="10"/><path d="M286.19,390.12H713.81A197.68,197.68,0,0,1,911.48,587.8v82.35a13,13,0,0,1-13,13h-797a13,13,0,0,1-13-13V587.8A197.68,197.68,0,0,1,286.19,390.12Z" fill="#1a1e16" stroke="#000" stroke-linejoin="round" stroke-width="10"/><rect x="393.81" y="102.26" width="212.39" height="351.38" fill="#1a1e16" stroke="#000" stroke-linejoin="round" stroke-width="10"/><path d="M958.41,646.66A174.8,174.8,0,0,0,805,473.18s-146.89-19.54-308.26-19.54S194.68,473,194.68,473A174.79,174.79,0,0,0,41.59,646.39v96.78c0,29.1,40.15,154.57,235.53,154.57,37.19,0,72.24-6.75,103-18.67a197,197,0,0,1,71.09-13.58h97.56a197,197,0,0,1,71.09,13.58c30.77,11.92,65.82,18.67,103,18.67,180.61,0,235.53-125.47,235.53-154.57Z" fill="#1a1e16" stroke="#000" stroke-linejoin="round" stroke-width="10"/><path d="M908.05,646.69c0-66-58.57-121.58-136.54-129.65,0,0-130.75-14.61-274.39-14.61s-268.89,14.43-268.89,14.43C150.37,525,92,580.61,92,646.49v72.34c0,21.75,35.74,115.53,209.66,115.53,33.1,0,64.3-5.05,91.69-14a204.69,204.69,0,0,1,63.27-10.16h86.86a204.69,204.69,0,0,1,63.27,10.16c27.39,8.9,58.59,14,91.69,14,160.77,0,209.66-93.78,209.66-115.53Z" fill="#9b9d99" stroke="#000" stroke-linejoin="round" stroke-width="10"/></g></svg>