<svg xmlns="http://www.w3.org/2000/svg" viewBox="0 0 935.95 791.96"><defs><style>.cls-1{opacity:0.5;}.cls-2{fill:#1d1d1b;}</style></defs><title>RestrictedTexture</title><g id="Passmarken"><g class="cls-1"><polygon class="cls-2" points="942.39 393.95 543.45 792.89 600.5 792.89 942.39 451.01 942.39 393.95"/><polygon class="cls-2" points="849.95 -17.11 39.95 792.89 97.01 792.89 907.01 -17.11 849.95 -17.11"/><polygon class="cls-2" points="942.39 58.28 207.78 792.89 264.84 792.89 942.39 115.34 942.39 58.28"/><polygon class="cls-2" points="942.39 729.61 879.11 792.89 936.17 792.89 942.39 786.67 942.39 729.61"/><polygon class="cls-2" points="942.39 561.78 711.28 792.89 768.34 792.89 942.39 618.84 942.39 561.78"/><polygon class="cls-2" points="942.39 226.11 375.61 792.89 432.67 792.89 942.39 283.17 942.39 226.11"/><polygon class="cls-2" points="178.62 -17.11 -15.61 177.12 -15.61 234.18 235.68 -17.11 178.62 -17.11"/><polygon class="cls-2" points="10.79 -17.11 -15.61 9.29 -15.61 66.35 67.85 -17.11 10.79 -17.11"/><polygon class="cls-2" points="682.12 -17.11 -15.61 680.62 -15.61 737.68 739.18 -17.11 682.12 -17.11"/><polygon class="cls-2" points="514.28 -17.11 -15.61 512.79 -15.61 569.85 571.34 -17.11 514.28 -17.11"/><polygon class="cls-2" points="346.45 -17.11 -15.61 344.95 -15.61 402.01 403.51 -17.11 346.45 -17.11"/></g></g></svg>