{
  "accessors": [
    {
      "name": "computer.001-Mesh_0_positions",
      "componentType": 5126,
      "count": 266,
      "min": [
        -3.095832109451294,
        0.016280999407172203,
        0.03276199847459793
      ],
      "max": [
        2.2788329124450684,
        3.2795910835266113,
        2.0327630043029785
      ],
      "type": "VEC3",
      "bufferView": 0,
      "byteOffset": 0
    },
    {
      "name": "computer.001-Mesh_0_normals",
      "componentType": 5126,
      "count": 266,
      "min": [
        -1,
        -1,
        -1
      ],
      "max": [
        1,
        1,
        1
      ],
      "type": "VEC3",
      "bufferView": 1,
      "byteOffset": 0
    },
    {
      "name": "computer.001-Mesh_0_texcoords",
      "componentType": 5126,
      "count": 266,
      "min": [
        0.125,
        0
      ],
      "max": [
        0.875,
        1
      ],
      "type": "VEC2",
      "bufferView": 2,
      "byteOffset": 0
    },
    {
      "name": "computer.001-Mesh_0_indices",
      "componentType": 5123,
      "count": 450,
      "min": [
        0
      ],
      "max": [
        265
      ],
      "type": "SCALAR",
      "bufferView": 3,
      "byteOffset": 0
    },
    {
      "name": "computer.001-Mesh_1_positions",
      "componentType": 5126,
      "count": 4,
      "min": [
        -2.9804799556732178,
        0.9660760164260864,
        0.39513298869132996
      ],
      "max": [
        0.8174759745597839,
        3.181286096572876,
        0.5544520020484924
      ],
      "type": "VEC3",
      "bufferView": 0,
      "byteOffset": 3192
    },
    {
      "name": "computer.001-Mesh_1_normals",
      "componentType": 5126,
      "count": 4,
      "min": [
        -0.00030000568949617445,
        -0.07180136442184448,
        -0.9974188804626465
      ],
      "max": [
        -0.00030000568949617445,
        -0.07180136442184448,
        -0.9974188804626465
      ],
      "type": "VEC3",
      "bufferView": 1,
      "byteOffset": 3192
    },
    {
      "name": "computer.001-Mesh_1_texcoords",
      "componentType": 5126,
      "count": 4,
      "min": [
        0.3870609998703003,
        0.011087999679148197
      ],
      "max": [
        0.6110820174217224,
        0.24178600311279297
      ],
      "type": "VEC2",
      "bufferView": 2,
      "byteOffset": 2128
    },
    {
      "name": "computer.001-Mesh_1_indices",
      "componentType": 5123,
      "count": 6,
      "min": [
        0
      ],
      "max": [
        3
      ],
      "type": "SCALAR",
      "bufferView": 3,
      "byteOffset": 900
    },
    {
      "name": "Fl채che.001-Mesh_0_positions",
      "componentType": 5126,
      "count": 4,
      "min": [
        -2.972264051437378,
        0.9397649765014648,
        0.42375800013542175
      ],
      "max": [
        0.8126999735832214,
        3.175909996032715,
        0.5956850051879883
      ],
      "type": "VEC3",
      "bufferView": 0,
      "byteOffset": 3240
    },
    {
      "name": "Fl채che.001-Mesh_0_normals",
      "componentType": 5126,
      "count": 4,
      "min": [
        0,
        0.0766965001821518,
        0.9970544576644897
      ],
      "max": [
        0,
        0.0766965001821518,
        0.9970544576644897
      ],
      "type": "VEC3",
      "bufferView": 1,
      "byteOffset": 3240
    },
    {
      "name": "Fl채che.001-Mesh_0_texcoords",
      "componentType": 5126,
      "count": 4,
      "min": [
        0,
        0
      ],
      "max": [
        1,
        1
      ],
      "type": "VEC2",
      "bufferView": 2,
      "byteOffset": 2160
    },
    {
      "name": "Fl채che.001-Mesh_0_indices",
      "componentType": 5123,
      "count": 6,
      "min": [
        0
      ],
      "max": [
        3
      ],
      "type": "SCALAR",
      "bufferView": 3,
      "byteOffset": 912
    }
  ],
  "asset": {
    "generator": "obj2gltf",
    "version": "2.0"
  },
  "buffers": [
    {
      "name": "computer4",
      "byteLength": 74068,
      "uri": "data:application/octet-stream;base64,"
    }
  ],
  "bufferViews": [
    {
      "name": "bufferView_0",
      "buffer": 0,
      "byteLength": 3288,
      "byteOffset": 0,
      "byteStride": 12,
      "target": 34962
    },
    {
      "name": "bufferView_1",
      "buffer": 0,
      "byteLength": 3288,
      "byteOffset": 3288,
      "byteStride": 12,
      "target": 34962
    },
    {
      "name": "bufferView_2",
      "buffer": 0,
      "byteLength": 2192,
      "byteOffset": 6576,
      "byteStride": 8,
      "target": 34962
    },
    {
      "name": "bufferView_3",
      "buffer": 0,
      "byteLength": 924,
      "byteOffset": 8768,
      "target": 34963
    },
    {
      "buffer": 0,
      "byteOffset": 9692,
      "byteLength": 64376
    }
  ],
  "images": [
    {
      "name": "4",
      "mimeType": "image/png",
      "bufferView": 4
    }
  ],
  "materials": [
    {
      "name": "ComputerMaterial.000",
      "pbrMetallicRoughness": {
        "baseColorFactor": [
          0.130542,
          0.130542,
          0.130542,
          1
        ],
        "metallicFactor": 0,
        "roughnessFactor": 1
      },
      "emissiveFactor": [
        0,
        0,
        0
      ],
      "alphaMode": "OPAQUE",
      "doubleSided": false
    },
    {
      "name": "Material.001",
      "pbrMetallicRoughness": {
        "baseColorFactor": [
          0.8,
          0.8,
          0.8,
          1
        ],
        "metallicFactor": 0,
        "roughnessFactor": 0.775
      },
      "emissiveFactor": [
        0,
        0,
        0
      ],
      "alphaMode": "OPAQUE",
      "doubleSided": false
    },
    {
      "name": "ComputerMaterial.002",
      "pbrMetallicRoughness": {
        "baseColorTexture": {
          "index": 0
        },
        "baseColorFactor": [
          1,
          1,
          1,
          1
        ],
        "metallicFactor": 0,
        "roughnessFactor": 0.775
      },
      "emissiveFactor": [
        0,
        0,
        0
      ],
      "alphaMode": "OPAQUE",
      "doubleSided": false
    }
  ],
  "meshes": [
    {
      "name": "computer.001-Mesh",
      "primitives": [
        {
          "attributes": {
            "POSITION": 0,
            "NORMAL": 1,
            "TEXCOORD_0": 2
          },
          "indices": 3,
          "material": 0,
          "mode": 4
        },
        {
          "attributes": {
            "POSITION": 4,
            "NORMAL": 5,
            "TEXCOORD_0": 6
          },
          "indices": 7,
          "material": 1,
          "mode": 4
        }
      ]
    },
    {
      "name": "Fl채che.001-Mesh",
      "primitives": [
        {
          "attributes": {
            "POSITION": 8,
            "NORMAL": 9,
            "TEXCOORD_0": 10
          },
          "indices": 11,
          "material": 2,
          "mode": 4
        }
      ]
    }
  ],
  "nodes": [
    {
      "name": "computer.001",
      "mesh": 0
    },
    {
      "name": "Fl채che.001",
      "mesh": 1
    }
  ],
  "samplers": [
    {
      "wrapS": 10497,
      "wrapT": 10497
    }
  ],
  "scene": 0,
  "scenes": [
    {
      "nodes": [
        0,
        1
      ]
    }
  ],
  "textures": [
    {
      "name": "4",
      "sampler": 0,
      "source": 0
    }
  ]
}
