<svg id="Ebene_1" data-name="Ebene 1" xmlns="http://www.w3.org/2000/svg" viewBox="0 0 1000 1000">
  <defs>
    <style>
      .cls-1 {
        fill: #212121;
        stroke: #1d1d1b;
      }

      .cls-1, .cls-2, .cls-3 {
        stroke-miterlimit: 10;
        stroke-width: 10px;
      }

      .cls-2 {
        fill: #7785cc;
        stroke: #5b6490;
      }

      .cls-3 {
        fill: #333335;
        stroke: #2a2a2b;
      }

      .cls-4 {
        fill: #000a7f;
      }
    </style>
  </defs>
  <rect class="cls-1" x="58.3" y="243.39" width="631.48" height="409.26" rx="11.6"/>
  <rect class="cls-2" x="77.76" y="259.85" width="590.1" height="349.41" rx="6.63"/>
  <path class="cls-1" d="M270.28,654.88v41.24a18.84,18.84,0,0,1-6.73,14.44l-21,17.61a.15.15,0,0,0,0,.21.16.16,0,0,0,.11,0H504.07a.16.16,0,0,0,.14-.16.15.15,0,0,0,0-.09l-22.61-20.66a18.85,18.85,0,0,1-6.14-13.92V654.88Z"/>
  <rect class="cls-1" x="225.25" y="728.43" width="295.7" height="23.02" rx="8.93"/>
  <rect class="cls-1" x="734.27" y="243.39" width="207.42" height="513.23" rx="11.68"/>
  <rect class="cls-3" x="778.77" y="297.48" width="118.31" height="21.2" rx="3.23"/>
  <rect class="cls-3" x="778.77" y="339.38" width="118.31" height="21.2" rx="3.23"/>
  <path class="cls-4" d="M373.49,530.5a64.67,64.67,0,0,1-32.37-8.12,61.37,61.37,0,0,1-22.75-22A58.56,58.56,0,0,1,310,469.5q0-23.25,16-46.75l48.75-70.5h39l-53.25,74.5-12.5,3.5a41.13,41.13,0,0,1,6.63-10,24.78,24.78,0,0,1,10.12-6.5,47.08,47.08,0,0,1,15.75-2.25,55.85,55.85,0,0,1,28.5,7.38,56.72,56.72,0,0,1,20.5,20.24q7.75,12.88,7.75,29.63a59,59,0,0,1-8.5,31.25,62.57,62.57,0,0,1-23,22.25A64,64,0,0,1,373.49,530.5Zm0-30.5a29.19,29.19,0,0,0,15.5-4.12,30.29,30.29,0,0,0,10.75-11.26,34.48,34.48,0,0,0,0-32.24A29.27,29.27,0,0,0,389,441.25a31.81,31.81,0,0,0-31.12.13,29.21,29.21,0,0,0-10.75,11.12,32.42,32.42,0,0,0-3.88,16,33.08,33.08,0,0,0,3.88,16.12,29,29,0,0,0,10.75,11.26A29.85,29.85,0,0,0,373.49,500Z"/>
</svg>
