<svg id="Ebene_1" data-name="Ebene 1" xmlns="http://www.w3.org/2000/svg" viewBox="0 0 1000 1000">
  <defs>
    <style>
      .cls-1 {
        fill: #212121;
        stroke: #1d1d1b;
      }

      .cls-1, .cls-2, .cls-3 {
        stroke-miterlimit: 10;
        stroke-width: 10px;
      }

      .cls-2 {
        fill: #7785cc;
        stroke: #5b6490;
      }

      .cls-3 {
        fill: #333335;
        stroke: #2a2a2b;
      }

      .cls-4 {
        fill: #000a7f;
      }
    </style>
  </defs>
  <rect class="cls-1" x="58.3" y="243.39" width="631.48" height="409.26" rx="11.6"/>
  <rect class="cls-2" x="77.76" y="259.85" width="590.1" height="349.41" rx="6.63"/>
  <path class="cls-1" d="M270.28,654.88v41.24a18.84,18.84,0,0,1-6.73,14.44l-21,17.61a.15.15,0,0,0,0,.21.16.16,0,0,0,.11,0H504.07a.16.16,0,0,0,.14-.16.15.15,0,0,0,0-.09l-22.61-20.66a18.85,18.85,0,0,1-6.14-13.92V654.88Z"/>
  <rect class="cls-1" x="225.25" y="728.43" width="295.7" height="23.02" rx="8.93"/>
  <rect class="cls-1" x="734.27" y="243.39" width="207.42" height="513.23" rx="11.68"/>
  <rect class="cls-3" x="778.77" y="297.48" width="118.31" height="21.2" rx="3.23"/>
  <rect class="cls-3" x="778.77" y="339.38" width="118.31" height="21.2" rx="3.23"/>
  <path class="cls-4" d="M373.44,530.5a84,84,0,0,1-33.25-6.38,65,65,0,0,1-25-18.37l22.5-22.25a34.88,34.88,0,0,0,14.37,12,47.06,47.06,0,0,0,20.63,4.5,40,40,0,0,0,17.87-3.75,29,29,0,0,0,12-10.63,29.33,29.33,0,0,0,4.38-16.12q0-9.75-4.38-16.5a28.23,28.23,0,0,0-11.62-10.25,37,37,0,0,0-16.25-3.5,57.62,57.62,0,0,0-17.13,2.37,48.35,48.35,0,0,0-14.62,7.63l2-21.5a47.23,47.23,0,0,1,10-8.13,43.21,43.21,0,0,1,11.87-4.74,65.88,65.88,0,0,1,15.63-1.63q19.24,0,32.12,7.87a52.35,52.35,0,0,1,19.63,21A62.25,62.25,0,0,1,440.94,471a56.55,56.55,0,0,1-8.5,30.75,58.23,58.23,0,0,1-23.63,21.13Q393.69,530.5,373.44,530.5Zm-30.5-81.25-16.25-16,8-81h30.75l-9,82.25Zm-3-67.5-5.25-29.5h96.5v29.5Z"/>
</svg>
