<?xml version="1.0" encoding="utf-8"?>
<!-- Generator: Adobe Illustrator 26.0.2, SVG Export Plug-In . SVG Version: 6.00 Build 0)  -->
<svg version="1.1" id="Ebene_1" xmlns="http://www.w3.org/2000/svg" xmlns:xlink="http://www.w3.org/1999/xlink" x="0px" y="0px"
	 viewBox="0 0 1000 1000" style="enable-background:new 0 0 1000 1000;" xml:space="preserve">
<style type="text/css">
	.st0{fill:#212121;stroke:#1D1D1B;stroke-width:10;stroke-miterlimit:10;}
	.st1{fill:#7785CC;stroke:#5B6490;stroke-width:10;stroke-miterlimit:10;}
	.st2{fill:#333335;stroke:#2A2A2B;stroke-width:10;stroke-miterlimit:10;}
	.st3{fill:#000A7F;}
</style>
<path class="st0" d="M69.9,243.4h608.3c6.4,0,11.6,5.2,11.6,11.6v386.1c0,6.4-5.2,11.6-11.6,11.6H69.9c-6.4,0-11.6-5.2-11.6-11.6
	V255C58.3,248.6,63.5,243.4,69.9,243.4z"/>
<path class="st1" d="M84.4,259.9h576.8c3.7,0,6.6,3,6.6,6.6v336.1c0,3.7-3,6.6-6.6,6.6H84.4c-3.7,0-6.6-3-6.6-6.6V266.5
	C77.8,262.8,80.7,259.9,84.4,259.9z"/>
<path class="st0" d="M270.3,654.9v41.2c0,5.6-2.5,10.9-6.7,14.4l-21,17.6c-0.1,0.1-0.1,0.2,0,0.2c0,0,0.1,0,0.1,0h261.4
	c0.1,0,0.1-0.1,0.1-0.2c0,0,0-0.1,0-0.1l-22.6-20.7c-3.9-3.6-6.1-8.6-6.1-13.9v-38.7H270.3z"/>
<path class="st0" d="M234.2,728.4H512c4.9,0,8.9,4,8.9,8.9v5.2c0,4.9-4,8.9-8.9,8.9H234.2c-4.9,0-8.9-4-8.9-8.9v-5.2
	C225.2,732.4,229.2,728.4,234.2,728.4z"/>
<path class="st0" d="M746,243.4H930c6.5,0,11.7,5.2,11.7,11.7v489.9c0,6.5-5.2,11.7-11.7,11.7H746c-6.5,0-11.7-5.2-11.7-11.7V255.1
	C734.3,248.6,739.5,243.4,746,243.4z"/>
<path class="st2" d="M782,297.5h111.9c1.8,0,3.2,1.4,3.2,3.2v14.7c0,1.8-1.4,3.2-3.2,3.2H782c-1.8,0-3.2-1.4-3.2-3.2v-14.7
	C778.8,298.9,780.2,297.5,782,297.5z"/>
<path class="st2" d="M782,339.4h111.9c1.8,0,3.2,1.4,3.2,3.2v14.7c0,1.8-1.4,3.2-3.2,3.2H782c-1.8,0-3.2-1.4-3.2-3.2v-14.7
	C778.8,340.8,780.2,339.4,782,339.4z"/>
<path class="st3" d="M287.8,466l60-113.8h37.5L323.8,466H287.8z M287.8,486v-20l12.5-9.8h126V486H287.8z M370.8,528V416h33.5v112
	H370.8z"/>
</svg>
