<svg id="Ebene_1" data-name="Ebene 1" xmlns="http://www.w3.org/2000/svg" viewBox="0 0 1000 1000">
  <defs>
    <style>
      .cls-1 {
        fill: #212121;
        stroke: #1d1d1b;
      }

      .cls-1, .cls-2, .cls-3 {
        stroke-miterlimit: 10;
        stroke-width: 10px;
      }

      .cls-2 {
        fill: #7785cc;
        stroke: #5b6490;
      }

      .cls-3 {
        fill: #333335;
        stroke: #2a2a2b;
      }

      .cls-4 {
        fill: #000a7f;
      }
    </style>
  </defs>
  <rect class="cls-1" x="58.3" y="243.39" width="631.48" height="409.26" rx="11.6"/>
  <rect class="cls-2" x="77.76" y="259.85" width="590.1" height="349.41" rx="6.63"/>
  <path class="cls-1" d="M270.28,654.88v41.24a18.84,18.84,0,0,1-6.73,14.44l-21,17.61a.15.15,0,0,0,0,.21.16.16,0,0,0,.11,0H504.07a.16.16,0,0,0,.14-.16.15.15,0,0,0,0-.09l-22.61-20.66a18.85,18.85,0,0,1-6.14-13.92V654.88Z"/>
  <rect class="cls-1" x="225.25" y="728.43" width="295.7" height="23.02" rx="8.93"/>
  <rect class="cls-1" x="734.27" y="243.39" width="207.42" height="513.23" rx="11.68"/>
  <rect class="cls-3" x="778.77" y="297.48" width="118.31" height="21.2" rx="3.23"/>
  <rect class="cls-3" x="778.77" y="339.38" width="118.31" height="21.2" rx="3.23"/>
  <path class="cls-4" d="M373.24,530.5a80.86,80.86,0,0,1-32.5-6.38A65.35,65.35,0,0,1,316,505.75l22.5-22.25a35,35,0,0,0,14.25,12,45.08,45.08,0,0,0,20,4.5A38.3,38.3,0,0,0,390,496.38a27.7,27.7,0,0,0,11.37-10.26,28.43,28.43,0,0,0,4.13-15.37A28.83,28.83,0,0,0,401.36,455a26.67,26.67,0,0,0-11.87-10,44.77,44.77,0,0,0-18.5-3.5,79.79,79.79,0,0,0-9.75.62,40.72,40.72,0,0,0-8.5,1.88l15-19q6.24-2,12.37-3.38a52.62,52.62,0,0,1,11.38-1.37,47.37,47.37,0,0,1,24.37,6.37,46.15,46.15,0,0,1,17.25,18q6.38,11.64,6.38,27.38,0,17.5-8.25,30.62a55.85,55.85,0,0,1-23.13,20.5Q393.25,530.5,373.24,530.5Zm-47.5-148.75v-29.5h111v19.5l-27.75,10Zm27,62.25V424.5l45-52.25,39-.5L390.24,425Z"/>
</svg>
