<svg id="Ebene_4" data-name="Ebene 4" xmlns="http://www.w3.org/2000/svg" viewBox="0 0 1000 1000">
  <defs>
    <style>
      .cls-1 {
        fill: none;
        stroke: #878787;
        stroke-linecap: round;
        stroke-width: 42px;
      }

      .cls-1, .cls-2, .cls-4 {
        stroke-miterlimit: 10;
      }

      .cls-2 {
        fill: #fff;
        stroke: #ededed;
      }

      .cls-2, .cls-4 {
        stroke-width: 10px;
      }

      .cls-3 {
        fill: #29292a;
      }

      .cls-4 {
        fill: #2d2e2e;
        stroke: #29292a;
      }
    </style>
  </defs>
  <path class="cls-1" d="M408.54,513.79c.08,40.31,1.18,74.58,2.4,101.09,1.94,42.13,3.92,59.78,10.1,80.67a234.82,234.82,0,0,0,19.46,46.56,70.86,70.86,0,0,0,28.27,28.36,57.6,57.6,0,0,0,33.51,7.06c24.28-2.48,45.51-20.81,53.51-46.21a68.65,68.65,0,0,0,3-19.62c.29-18.88.42-46.27-.44-79.19-1.84-70.23-6.19-88.74-5.61-134.61.44-34.18,4.3-63.38,12-121.79,4.73-35.78,11.76-83.26,22.26-139.44,4.74-25.37,1.11-51.77-11.17-74.47-13.45-24.89-35.59-43.54-61.57-50.51C459.74,97.06,395.52,135.9,383.11,202a1534.13,1534.13,0,0,0,1,616,195.46,195.46,0,0,0,8.64,30c35.48,93.22,101.64,128,160.82,109,45.56-14.59,82.53-61.69,80.93-129,.53-43.9-1.41-79.45-3.21-103.36-5.28-70.12-14.09-102.19-3.55-149.46a235.63,235.63,0,0,1,26.79-67.68"/>
  <ellipse class="cls-2" cx="571.71" cy="391.94" rx="71.73" ry="92.81" transform="translate(87.36 887.79) rotate(-80.1)"/>
  <ellipse class="cls-3" cx="574.76" cy="392.47" rx="40.54" ry="52.46" transform="translate(89.36 891.24) rotate(-80.1)"/>
  <ellipse class="cls-2" cx="348.36" cy="352.2" rx="71.73" ry="92.81" transform="translate(-58.47 634.85) rotate(-80.1)"/>
  <ellipse class="cls-3" cx="351.22" cy="352.2" rx="38.63" ry="49.98" transform="translate(-56.1 637.67) rotate(-80.1)"/>
  <path class="cls-4" d="M700,344.8a.58.58,0,0,0,1.06-.44c-3.51-14-15.76-51.77-53.82-76.39-32.84-21.25-65.92-20.42-77.27-19.63-7.16,1.75-12,8-11.9,14.46.16,7.85,7.67,14.86,16.82,14.15a136.94,136.94,0,0,1,62.84,11.63C673.29,304.5,692.25,331.61,700,344.8Z"/>
  <path class="cls-4" d="M274.81,256.61s-.07,0-.05,0c5.51-7.33,32-40.83,78.58-47.86,36.33-5.47,63.9,8.29,73.16,13.46,5.33,4.34,6.91,11.68,4.17,17.24-3.31,6.74-12.49,9.86-19.93,5.63A124.49,124.49,0,0,0,353,230.35C313.27,230.12,284.77,249.21,274.81,256.61Z"/>
</svg>
