<svg xmlns="http://www.w3.org/2000/svg" viewBox="0 0 1000 1000">
  <defs>
    <style>
      .cls-1, .cls-2, .cls-8 {
        fill: #447166;
      }

      .cls-1, .cls-2, .cls-3, .cls-8 {
        stroke: #3d655b;
      }

      .cls-1, .cls-2, .cls-3, .cls-4, .cls-5, .cls-6, .cls-7, .cls-8, .cls-9 {
        stroke-miterlimit: 10;
      }

      .cls-1, .cls-2, .cls-3, .cls-4, .cls-5, .cls-8, .cls-9 {
        stroke-width: 10px;
      }

      .cls-1 {
        opacity: 0.89;
      }

      .cls-3 {
        fill: #3d655b;
      }

      .cls-4, .cls-7 {
        fill: #2d2e2e;
      }

      .cls-4 {
        stroke: #29292a;
      }

      .cls-4, .cls-5, .cls-6 {
        opacity: 0.73;
      }

      .cls-5 {
        fill: #c6c6c6;
        stroke: #b2b2b2;
      }

      .cls-6 {
        fill: none;
        stroke: #ededed;
      }

      .cls-6, .cls-7 {
        stroke-width: 3px;
      }

      .cls-7 {
        stroke: #2d2e2e;
      }

      .cls-8 {
        stroke-linecap: round;
      }

      .cls-9 {
        fill: #2b5e29;
        stroke: #245123;
      }
    </style>
  </defs>
  <g id="Ebene_2" data-name="Ebene 2">
    <path class="cls-1" d="M446.64,928.22l267.73,23.17a8.84,8.84,0,0,0,9.6-8.81V239.05a11.53,11.53,0,0,0-11.49-11.53l-265.84-.77Z"/>
    <path class="cls-2" d="M444.93,929.38,314.36,1018a3.9,3.9,0,0,1-6.08-3.15L293.2,194.23a3.89,3.89,0,0,1,4.82-3.85L443.67,226a3.9,3.9,0,0,1,3,3.78V926.16A3.88,3.88,0,0,1,444.93,929.38Z"/>
    <path class="cls-3" d="M452.61,930l264.6,21.66a3.74,3.74,0,0,1,2.69,6l-69.43,92.43a20.88,20.88,0,0,1-19,8.21L316,1022.93a2.83,2.83,0,0,1-1.28-5.15l123.82-84.07A21.81,21.81,0,0,1,452.61,930Z"/>
    <rect class="cls-4" x="522.86" y="433.78" width="94.21" height="182.88" rx="4.79"/>
    <rect class="cls-5" x="538.31" y="447.27" width="63.45" height="110.87" rx="3.37"/>
    <path class="cls-6" d="M571.94,537.14c2.17,23.47-4.19,44.44.39,67.57,1.43,7.21,1.72,14.89,2.53,22.2a88.83,88.83,0,0,1,.14,18.3c-.61,6.38-2.17,13.18-7,17.46a9.25,9.25,0,0,1-6.53,2.64c-3.57-.23-6.3-3.3-7.95-6.47a26.59,26.59,0,0,1-2-19.16c1.69-6.09,5.6-11.71,5.46-18"/>
    <path class="cls-7" d="M574.41,515.88a3.54,3.54,0,0,1-2.58-3.48V492.2a10.81,10.81,0,0,1,.24-2.72c.52-1.92,2.06-3.38,3.54-4.72l4.56-4.14A7.12,7.12,0,0,0,582.6,475a10.83,10.83,0,0,0-3.62-7.12,10.64,10.64,0,0,0-3.89-2.41,16.82,16.82,0,0,0-4.37-.6,9.76,9.76,0,0,0-4.1.38,7.48,7.48,0,0,0-2.81,2.14,13,13,0,0,0-2.26,3.65c-1.91,4.67-1.62,9.55-1.44,14.38q.48,13.51-.23,27c-.22,4.2-.53,8.46.37,12.58s3.18,8.14,6.92,10.06,9,1.09,11.19-2.5a11.83,11.83,0,0,0,1.41-4.52c.42-2.84.49-5.88-.84-8.43A7.59,7.59,0,0,0,574.41,515.88Z"/>
  </g>
  <g id="Ebene_3" data-name="Ebene 3">
    <path class="cls-8" d="M724,131.2C712.6,106.28,678,33.61,604.39,2.55,505.73-39.09,377,.13,293.2,105"/>
    <path class="cls-2" d="M721.85,961.14l-58.21,87.45a4.25,4.25,0,0,1-7.78-2.36L658,164.52a.13.13,0,0,1,.21-.1l63.21,51.3A6.86,6.86,0,0,1,724,221V954.11A12.73,12.73,0,0,1,721.85,961.14Z"/>
    <path class="cls-2" d="M649,1060.25l-345.06-38.68a4.14,4.14,0,0,1-3.68-4.08l-7.14-830.95,368.1-21.24-2.17,886A9,9,0,0,1,649,1060.25ZM410.05,231l-1.66,710.35,129.79,12.52-4.92-728ZM538.18,953.89l78.32,8.21,1-739.74-84.22,3.52ZM410.05,231l-80.72,3.37,5.09,701.35,74,5.63Zm-81.71,77.85,288.72-6.26m-286.79,85,286.12-.4M331.24,466.77l287.66.09M329.62,550.24l287.86,2.43m-4,84.7L330.46,630m0,79.33,288.11,9.58m-285.2,71.57,284.11,10.72M335.27,866.8l282.21,17.47"/>
    <path class="cls-2" d="M293.09,183.18l.11-75.32a3.16,3.16,0,0,1,2.89-3.15L657.76,74.12a3.16,3.16,0,0,1,3.43,3.15v85.05a3.16,3.16,0,0,1-3,3.15L296.44,186.34A3.16,3.16,0,0,1,293.09,183.18Z"/>
    <polygon class="cls-2" points="661.19 73.83 661.19 165.3 723.97 221.04 723.97 130.2 661.19 73.83"/>
    <path class="cls-2" d="M294.34,103.46a.07.07,0,0,1-.06-.1C366.9,4.63,478.06-34.89,565.51-4c47.37,16.74,77.47,51.53,94,75.84a2.78,2.78,0,0,1-2.06,4.34C536.45,86.37,415.39,93.22,294.34,103.46Z"/>
    <path class="cls-9" d="M308,166.66l-.41-47.72c0-1,1.13-1.92,2.62-2L639.68,94c1.68-.12,3.14.79,3.15,2l.58,53.89c0,1.06-1.17,1.95-2.7,2L311.07,168.64C309.42,168.72,308,167.82,308,166.66Z"/>
    <path class="cls-9" d="M674.63,107.17v49.59a.17.17,0,0,0,.06.12l36,30.21A.15.15,0,0,0,711,187V137.72a.18.18,0,0,0-.05-.12l-36-30.55A.16.16,0,0,0,674.63,107.17Z"/>
  </g>
</svg>
