<svg xmlns="http://www.w3.org/2000/svg" viewBox="0 0 1000 1000"><g id="touchpen"><path d="M141.75,858.25h0c11.51-12.49-11-28.92,0-40L842.84,117.2a11.17,11.17,0,0,1,15.79,0l24.17,24.17a11.17,11.17,0,0,1,0,15.79L181.71,858.25C170.67,869.29,152.45,847.55,141.75,858.25Z" fill="#d7d9d5" stroke="#9b9d99" stroke-miterlimit="10" stroke-width="10"/><path d="M870.63,104.69h20.55a6.1,6.1,0,0,1,6.1,6.1V133.5a0,0,0,0,1,0,0H864.53a0,0,0,0,1,0,0V110.79A6.1,6.1,0,0,1,870.63,104.69Z" transform="translate(342.23 -588.01) rotate(45)" fill="#d7d9d5" stroke="#9b9d99" stroke-miterlimit="10" stroke-width="10"/><path d="M180.07,859.89c-2.51,2.51-80.21,40.25-80.21,40.25s37.74-77.7,40.25-80.21,13.49,4.41,24.52,15.44S182.58,857.38,180.07,859.89Z" fill="#d7d9d5" stroke="#9b9d99" stroke-linejoin="round" stroke-width="10"/></g></svg>