<?xml version="1.0" encoding="utf-8"?>
<!-- Generator: Adobe Illustrator 26.0.2, SVG Export Plug-In . SVG Version: 6.00 Build 0)  -->
<svg version="1.1" id="Ebene_1" xmlns="http://www.w3.org/2000/svg" xmlns:xlink="http://www.w3.org/1999/xlink" x="0px" y="0px"
	 viewBox="0 0 1000 1000" style="enable-background:new 0 0 1000 1000;" xml:space="preserve">
<style type="text/css">
	.st0{fill:#BDBA19;stroke:#879337;stroke-width:10;stroke-miterlimit:10;}
	.st1{fill:#C4C221;stroke:#879337;stroke-width:10;stroke-miterlimit:10;}
	.st2{clip-path:url(#SVGID_00000023994355784429019900000010664230415564721827_);}
	.st3{clip-path:url(#SVGID_00000045596641518709829580000012133291456794993061_);}
	.st4{clip-path:url(#SVGID_00000121969780169098085700000017890707921987893134_);}
	.st5{clip-path:url(#SVGID_00000147204942835666557960000005822503175724486280_);}
	.st6{fill:url(#SVGID_00000037668799011081709190000018120755588736060604_);stroke:#005000;stroke-width:10;stroke-miterlimit:10;}
	.st7{fill:url(#SVGID_00000138559899322154929080000002366952463358556827_);stroke:#005000;stroke-width:10;stroke-miterlimit:10;}
	.st8{fill:url(#SVGID_00000057119410683594870300000015592119935214780576_);stroke:#005000;stroke-width:10;stroke-miterlimit:10;}
	.st9{fill:#FFFFFF;stroke:#A6A8A8;stroke-width:10;stroke-miterlimit:10;}
	.st10{stroke:#000000;stroke-width:2;stroke-miterlimit:10;}
	
		.st11{fill:url(#SVGID_00000080901121729153921290000016724040441566251152_);stroke:#690000;stroke-width:10;stroke-miterlimit:10;}
	
		.st12{fill:url(#SVGID_00000016773347054050903060000017618777758771719835_);stroke:#8D9841;stroke-width:10;stroke-miterlimit:10;}
</style>
<g id="Ebene_4">
	<path class="st0" d="M259.2,996c11.7,0,43.7,0,51.8-0.2c4.2-0.1,21.5-0.2,25.7-0.2c4.1-19-2.7-38-1.5-57.4
		c0.6-10.4,0.8-21.1-2.6-31c-2.8-8.2-8-15.5-13.1-22.7c-7.4-10.3-15.2-21-28-28.9c-21.8,15.3-37.3,37.5-48,61.2s-16.9,48.9-23.1,74
		c-0.3,1.6-0.5,3.3-0.4,5C228.6,995.7,241.3,995.9,259.2,996z"/>
	<path class="st1" d="M725,996c31.3,0,65-0.1,96.4,0c-0.8-2-3-8.6-3.8-10.6c-7.2-16.7-15.9-32.8-24.6-48.8
		c-7.3-13.4-14.7-27-24.6-38.8c-11.1-13.3-25.3-24.1-35.7-37.9c0.4,3-2.8,3.8-4.7,5.6c-1.8,1.9-3.1,4.3-3.7,6.8
		c-10.2,31-6,64.4-1.8,96.7C723.5,976.5,723.6,988.7,725,996z"/>
	<g>
		<g>
			<defs>
				<path id="SVGID_1_" d="M257.9,831.5c6.5,16.2,16.7,30.7,25.1,46.1c19.8,36.2,29.5,77,28.1,118.2c14.2-0.2,28.5-0.2,42.8-0.2
					c44.2,0,62.4-0.7,132.7-0.3c79.2,0.4,102.8,0.7,128.8,0.8c46.3,0.1,87.7,0,130.6,0c0.4-32.1-13.1-69-15.6-101.5
					c-0.5-6.1-0.4-12.2,0.3-18.2c1-7.1,3.1-13.9,5.1-20.8C764.9,754.3,752,642.7,700.5,550c-21-37.7-53.4-75.4-97.9-79.8
					c-17-1.7-34.1,1.8-50.9,4.6c-88.4,14.6-154.4,3.6-232.8,43.2c-34,72-75.5,178.1-70.8,264.7C249.1,799.2,251.6,815.9,257.9,831.5
					z"/>
			</defs>
			<clipPath id="SVGID_00000039841061941763492110000007582837788212414888_">
				<use xlink:href="#SVGID_1_"  style="overflow:visible;"/>
			</clipPath>
			<g style="clip-path:url(#SVGID_00000039841061941763492110000007582837788212414888_);">
				<g>
					<defs>
						<rect id="SVGID_00000070838843665694496560000017327231234529736116_" x="242.8" y="464.8" width="513.3" height="536.3"/>
					</defs>
					<clipPath id="SVGID_00000171684953093373528750000007274202467575889564_">
						<use xlink:href="#SVGID_00000070838843665694496560000017327231234529736116_"  style="overflow:visible;"/>
					</clipPath>
					<g style="clip-path:url(#SVGID_00000171684953093373528750000007274202467575889564_);">
					</g>
				</g>
			</g>
		</g>
		<path class="st0" d="M257.9,831.5c6.5,16.2,16.7,30.7,25.1,46.1c19.8,36.2,29.5,77,28.1,118.2c14.2-0.2,28.5-0.2,42.8-0.2
			c44.2,0,62.4-0.7,132.7-0.3c79.2,0.4,102.8,0.7,128.8,0.8c46.3,0.1,87.7,0,130.6,0c0.4-32.1-13.1-69-15.6-101.5
			c-0.5-6.1-0.4-12.2,0.3-18.2c1-7.1,3.1-13.9,5.1-20.8C764.9,754.3,752,642.7,700.5,550c-21-37.7-53.4-75.4-97.9-79.8
			c-17-1.7-34.1,1.8-50.9,4.6c-88.4,14.6-154.4,3.6-232.8,43.2c-34,72-75.5,178.1-70.8,264.7C249.1,799.2,251.6,815.9,257.9,831.5z"
			/>
	</g>
	<g>
		<g>
			<defs>
				<path id="SVGID_00000102515611914011452560000003419139284661244054_" d="M651.7,407.7c0.9-32,0.8-64-0.4-96
					c-1.1-29.5-3.4-59.9-18.6-86.3c-5.5-9.5-12.5-18.2-19.7-26.8c-11.5-13.6-23.7-27.1-39.4-36.9c-9-5.4-18.6-9.9-28.5-13.4
					c-44.1-15.8-91.6-19.4-137.6-10.3c-8.3,1.7-16.7,3.8-23.9,7.8c-8.1,4.5-14.4,11.1-20.5,17.6c-17.1,18.3-33.8,36.9-50.1,55.8
					c-9.2,10.8-18.6,22-21.9,35.3c-2.4,9.6-1.5,19.6-0.5,29.4c1.1,12,2.3,24,4.7,35.8c6.1,30.5,20.3,59.9,21.4,90.8
					c0.4,10.2-0.3,21.6,7.3,29.5c9.4,9.7,26,9,40.3,8.3c78.5-3.8,159.7,17.7,234.7-1.9c12.4-3.2,24.4-7.5,36.4-11.9
					c7.4-2.7,15.3-5.7,19.6-11.6S657.7,407.1,651.7,407.7z"/>
			</defs>
			<clipPath id="SVGID_00000138553824163404105410000000677632622491886006_">
				<use xlink:href="#SVGID_00000102515611914011452560000003419139284661244054_"  style="overflow:visible;"/>
			</clipPath>
			<g style="clip-path:url(#SVGID_00000138553824163404105410000000677632622491886006_);">
				<g>
					<defs>
						<rect id="SVGID_00000043415785388771353510000016391501817764793737_" x="284.7" y="128.1" width="377.8" height="331.6"/>
					</defs>
					<clipPath id="SVGID_00000047023468568516439060000013656399884569766295_">
						<use xlink:href="#SVGID_00000043415785388771353510000016391501817764793737_"  style="overflow:visible;"/>
					</clipPath>
					<g style="clip-path:url(#SVGID_00000047023468568516439060000013656399884569766295_);">
					</g>
				</g>
			</g>
		</g>
		
			<linearGradient id="SVGID_00000062895072720077286300000011423493284452829333_" gradientUnits="userSpaceOnUse" x1="289.5707" y1="293.9278" x2="657.4286" y2="293.9278">
			<stop  offset="0" style="stop-color:#23591D"/>
			<stop  offset="1" style="stop-color:#237A1A"/>
		</linearGradient>
		
			<path style="fill:url(#SVGID_00000062895072720077286300000011423493284452829333_);stroke:#005000;stroke-width:10;stroke-miterlimit:10;" d="
			M651.7,407.7c0.9-32,0.8-64-0.4-96c-1.1-29.5-3.4-59.9-18.6-86.3c-5.5-9.5-12.5-18.2-19.7-26.8c-11.5-13.6-23.7-27.1-39.4-36.9
			c-9-5.4-18.6-9.9-28.5-13.4c-44.1-15.8-91.6-19.4-137.6-10.3c-8.3,1.7-16.7,3.8-23.9,7.8c-8.1,4.5-14.4,11.1-20.5,17.6
			c-17.1,18.3-33.8,36.9-50.1,55.8c-9.2,10.8-18.6,22-21.9,35.3c-2.4,9.6-1.5,19.6-0.5,29.4c1.1,12,2.3,24,4.7,35.8
			c6.1,30.5,20.3,59.9,21.4,90.8c0.4,10.2-0.3,21.6,7.3,29.5c9.4,9.7,26,9,40.3,8.3c78.5-3.8,159.7,17.7,234.7-1.9
			c12.4-3.2,24.4-7.5,36.4-11.9c7.4-2.7,15.3-5.7,19.6-11.6S657.7,407.1,651.7,407.7z"/>
	</g>
	
		<linearGradient id="SVGID_00000132058808725126267910000010541992141537379243_" gradientUnits="userSpaceOnUse" x1="163.2061" y1="423.3343" x2="678.0062" y2="561.3143" gradientTransform="matrix(0.9967 8.141666e-02 8.141666e-02 -0.9967 -40.2367 957.5001)">
		<stop  offset="0" style="stop-color:#23591D"/>
		<stop  offset="1" style="stop-color:#237A1A"/>
	</linearGradient>
	
		<path style="fill:url(#SVGID_00000132058808725126267910000010541992141537379243_);stroke:#005000;stroke-width:10;stroke-miterlimit:10;" d="
		M307.5,550.6c-10-3-16.9-12.7-15.5-22c1.3-8.7,8.8-15.5,12.6-23.6c8.7-18.4-1.4-42.9,13.7-57.6c10.6-10.3,28.5-10.5,44.4-10.2
		c37.3,0.6,74.5-0.4,111.8-1.4c52.4-1.5,105.9-3.1,154.8-19.4c8.4-2.8,16.8-6,25.8-6.6s18.9,2.3,23.6,9.1
		c8.2,11.7-2.7,26.2-3.3,39.9c-0.4,10.4,5.2,20.2,9.7,29.8s7.9,20.8,2.9,30.3c-6.9,13.1-26,16.4-42.3,16.9
		c-32.5,0.9-65.1-3.2-97.6-2.3c-18.5,0.5-36.9,2.7-55.3,4.8l-112.7,13.1C354.5,554.3,327.5,556.5,307.5,550.6z"/>
	
		<radialGradient id="SVGID_00000041259845743560822980000003828150344196134825_" cx="423.7079" cy="844.1493" r="70.24" gradientTransform="matrix(1.13 7.000000e-02 9.000000e-02 -1.15 -106.61 1043.6899)" gradientUnits="userSpaceOnUse">
		<stop  offset="0" style="stop-color:#317529"/>
		<stop  offset="1" style="stop-color:#2E6928"/>
	</radialGradient>
	
		<path style="fill:url(#SVGID_00000041259845743560822980000003828150344196134825_);stroke:#005000;stroke-width:10;stroke-miterlimit:10;" d="
		M407.4,162.9c-11.3,1.7-25.3,2.2-31.1-7.3c-2.6-4.3-2.8-9.6-3.8-14.6c-2.4-11.7-9.8-21.7-13-33.1c-3.8-13.9-1.2-28.9,7.1-40.7
		c8.9-12.7,23.5-20.8,38.6-24.8s30.9-4.5,46.5-5l38.3-1.1c3.1-0.1,6.3-0.2,9.1,1.2s4.8,3.9,6.6,6.3c5.3,7.1,10.8,14.5,12.7,23.2
		c1.4,6.5,0.7,13.6,3.4,19.7c2,4.7,5.9,8.4,8.8,12.7c12,17.6,4.7,45.1-14.7,55c-10.1,5.2-21.9,5.8-33.2,6.3l-18.7,0.8
		c-15.2,0.6-30.4,1.2-45.6,1.7C411.5,163.4,404.7,163.6,407.4,162.9z"/>
	<path class="st9" d="M659.4,650.4c-0.9-14.2-6.2-27.7-15-38.8c-4.4-5.6-9.9-10.6-16.6-13.5s-14.8-3.2-21.3,0.1
		c-7.8,4-11.7,12.5-14,20.7c-4.9,17.7-4.2,36.4-0.2,54.3c1.5,6.6,3.4,13.1,6.9,19s8.5,11,15,13.7c7,2.9,15.1,2.6,22.6,0.8
		c4.3-1.2,8.2-3.3,11.5-6.2c4.2-3.6,7.3-8.6,9.7-17.4C659.7,676.7,660,659.8,659.4,650.4z"/>
	<path class="st9" d="M411.5,600.4c-8.6-6-21.3-4.3-29.8,1.8s-13.7,15.5-17.4,25.1c-7.2,18.4-9.9,38.2-8.1,57.9
		c0.7,7.3,2.1,14.9,6.2,21.1c6.5,9.7,19.2,14.9,31.1,13.8s22.9-8.3,29.4-18c3.9-6.1,6.6-12.8,8.1-19.9c5-21.9,2.4-44.8-7.4-65
		C420.4,610.4,416.3,603.7,411.5,600.4z"/>
	<path class="st10" d="M396.9,666.5c-4.8-0.8-9.9-0.3-13.5,2.5s-5.6,7-6.9,11.1c-1.9,6.2-2.1,13.2,1.9,18.5c3.2,4,7.8,6.6,12.8,7.2
		c5.1,0.7,10.4-0.3,14.9-2.8c1.8-1,3.3-2.2,4.6-3.8c2.4-3,3-6.8,3.2-10.5c0.2-4.6-0.9-9.2-3.1-13.3
		C408.1,670.4,403.4,667.6,396.9,666.5z"/>
	<path class="st10" d="M628.4,655.8c-4.6-1.2-11.4,0.4-15.1,3.3c-3.6,3-6,7.1-6.8,11.7c-0.7,4.5-0.4,9.2,1.1,13.5
		c0.7,2.7,2,5.1,3.9,7.1c1,1,2.2,1.9,3.5,2.5c7.8,3.9,17.2,2.5,23.5-3.5c5.9-5.9,4.9-18.4,3.5-22.1
		C639.9,663.1,637.8,658.4,628.4,655.8z"/>
	
		<radialGradient id="SVGID_00000055702877913643249530000005960959231687425688_" cx="495.427" cy="99.8432" r="137.5723" gradientTransform="matrix(1.13 0 0 -1.06 -32.47 999.53)" gradientUnits="userSpaceOnUse">
		<stop  offset="0" style="stop-color:#991C19"/>
		<stop  offset="1" style="stop-color:#85251E"/>
	</radialGradient>
	
		<path style="fill:url(#SVGID_00000055702877913643249530000005960959231687425688_);stroke:#690000;stroke-width:10;stroke-miterlimit:10;" d="
		M708.4,859c-11.8-9.5-18.7-10.5-34.1-9.5s-30.3,5.4-45.2,9.5c-29.7,8.3-60,15.6-90.8,16c-17,0.2-33.9-1.8-50.8-3.4
		c-24.2-2.3-48.5-3.8-72.9-4.3c-21.6-0.4-44.4,0.4-63.1,11c-11.8,6.7-16.2,16.2-14.4,29.2c1.3,8.9,3.6,17.3,11.8,21.8
		s16.4,8.2,25.8,9.1c40.4,3.9,80.7-6.3,121.1-10.4c61-6.2,123.4,1.5,183.5-10.5c9.9-2,20-4.7,28-10.7
		C721.7,895.5,721.1,869.1,708.4,859z"/>
	
		<radialGradient id="SVGID_00000153675968867402507730000009547956570813496195_" cx="485.1804" cy="216.7232" r="81.5998" gradientTransform="matrix(1.13 0 0 -1.06 -32.47 999.53)" gradientUnits="userSpaceOnUse">
		<stop  offset="0" style="stop-color:#D1CE26"/>
		<stop  offset="1" style="stop-color:#BAB832"/>
	</radialGradient>
	
		<path style="fill:url(#SVGID_00000153675968867402507730000009547956570813496195_);stroke:#8D9841;stroke-width:10;stroke-miterlimit:10;" d="
		M522,691.3c-31.5-1.5-61.3,16.1-82,38.8c-13.9,15.3-25.1,34.6-23.7,54.9c1.5,21.6,17.5,40.7,37.5,51s43.3,13.2,66,13.1
		c18.7-0.1,37.9-2.2,54.6-10.3c9.4-4.5,17.7-10.9,24.4-18.9c5.7-7.3,10.3-15.4,13.6-24c2.1-5.3,2.6-8.9,2.9-14.6
		c0.4-7.6-0.5-15.2-2.5-22.5c-2.6-8.5-2.4-14.4-7.1-22.1c-5.5-9.1-9.7-18.7-17.7-25.9c-6.8-6.2-17.3-12-26.2-15.1
		c-7.3-2.5-13.7-2.9-30.1-4.3C528.5,691.2,525.2,691.2,522,691.3z"/>
</g>
</svg>
