<svg id="Ebene_4" data-name="Ebene 4" xmlns="http://www.w3.org/2000/svg" viewBox="0 0 1000 1000">
  <defs>
    <style>
      .cls-1, .cls-4 {
        fill: #fff;
      }

      .cls-2, .cls-5, .cls-6 {
        fill: #2d2e2e;
      }

      .cls-2 {
        stroke: #29292a;
      }

      .cls-2, .cls-3, .cls-4, .cls-6, .cls-8 {
        stroke-linecap: round;
      }

      .cls-2, .cls-3, .cls-4, .cls-5, .cls-6, .cls-7, .cls-8 {
        stroke-miterlimit: 10;
        stroke-width: 10px;
      }

      .cls-3, .cls-7 {
        fill: #fcc625;
      }

      .cls-3, .cls-7, .cls-8 {
        stroke: #ddaf21;
      }

      .cls-4 {
        stroke: #ededed;
      }

      .cls-5, .cls-6 {
        stroke: #2d2e2e;
      }

      .cls-8 {
        fill: none;
      }
    </style>
  </defs>
  <path class="cls-1" d="M399.52,344.2a354,354,0,0,1-31.12,95.49c-34.65,70.05-74.06,89.36-97.4,153.74-8.23,22.69-15.89,54.94-13.93,97.47L399.52,869.11a308.91,308.91,0,0,0,230.77,0c27.24-19.66,94.93-74.24,124.85-170.64a322.21,322.21,0,0,0,13.37-119.36l-97-137.51L590.9,285Z"/>
  <path class="cls-2" d="M653.76,772.59c-15.33,37.94-36.62,58.64-51.62,69.9-70.64,53-190.91,38.56-297.91-39.25Q320.1,883.36,336,963.48a365.77,365.77,0,0,1,335.54,2.15Q662.64,869.11,653.76,772.59Z"/>
  <path class="cls-3" d="M639.09,736.08c0-5.65.78-18.15,9.54-27.19,13.4-13.82,40.65-14.69,63.93,1.91a48.66,48.66,0,0,0,45.8,2.86c22.63-15.21,50.08-14.16,65.84.48,12.68,11.78,13.71,28.58,13.83,33.39a74.48,74.48,0,0,0,12.88,32,73.67,73.67,0,0,0,17.18,17.17c26.83,12.08,41.66,34.5,38,53-.75,3.76-3,11.05-11.28,18.58-11.25,8-21.4,14.87-30,20.51-32.68,21.31-42.77,24.74-58.68,40.07-13,12.53-17.63,18.08-30.27,28.55-20.5,17-30.94,24.27-45.11,29.18-40.13,15.64-79.61,10.1-98.28-12.88-4-4.94-9.48-13.66-11.45-27.67a157,157,0,0,1,0-43.42c3.84-27.24,12-32.19,15.74-59.15,2.54-18.48-.49-22.12-.39-54.86A521.46,521.46,0,0,1,639.09,736.08Z"/>
  <path class="cls-2" d="M392,151.68c16.15-60.1,71.88-100.54,131.65-97.13C578.36,57.66,626,96.9,640.52,151.68c10.8,49.76,12.38,88.46,11.6,115.47-.43,14.91-1.9,37.32,5.84,66,2.12,7.87,6.53,22.17,20.45,48.17a478.87,478.87,0,0,0,56,82.3c22.52,25.16,72.9,88.9,74.65,177.68a243.94,243.94,0,0,1-4.49,51.48,8.37,8.37,0,0,1-8.21,6.8h-2.87a9.25,9.25,0,0,0-8.42,5.48c-25.92,57.43-72.89,80.36-97,69.17-19-8.81-27.78-40.67-25.22-74.65a25.45,25.45,0,0,1,3.73-12.24c12.62-19.94,56.73-19.72,110.43-2.19a.47.47,0,0,0,.39-.85,142.69,142.69,0,0,0-15-7.73,145.2,145.2,0,0,0-54.15-12.08c5.55-10.6,17.58-37.23,13.08-71.27-6.93-52.36-47.52-80.93-57.59-87.37a.15.15,0,0,0-.18.23c9.71,8.84,42.72,41.75,44.74,93a129.17,129.17,0,0,1-13.76,62.67A5.14,5.14,0,0,1,690,664.6h-.11a6.24,6.24,0,0,1-6.39-6.86,209.13,209.13,0,0,0-4.92-71.24,211.37,211.37,0,0,0-44.54-86.39,42.28,42.28,0,0,1-9-17.7q-1.74-7.35-3.49-14.7a33.92,33.92,0,0,0-2.55-7.09A437.28,437.28,0,0,1,578.71,326.7l-165.59.2a448.68,448.68,0,0,1-16.58,93.86A449,449,0,0,1,363,504.35a305.8,305.8,0,0,0-57.07,167.74.26.26,0,0,1-.51.07c-5.06-16-13.72-51.76-2.29-94.19A170.46,170.46,0,0,1,336.4,514.1c-9.65,13.65-82.44,89.12-42.27,167.62,10.31,20.13,37.93,44.88,53.9,59.74a503.42,503.42,0,0,0,46.89,38.62c3.54,2.39,11.51,8.57,13.69,18.66,3.22,15-7.46,32.9-27.35,41.18l-142.1-146.1a20.43,20.43,0,0,1-5.79-13v-.07c-2.9-50.14,9.13-131.21,99.39-230.8,37.66-46.53,48.07-86,50.76-113.19,3.86-39-6.78-67.27-.45-130.26A449.3,449.3,0,0,1,392,151.68Z"/>
  <path class="cls-3" d="M211.12,730.63a38.43,38.43,0,0,0,2.15-5.38c7.24-21.8,25.74-35.49,43.8-34.35,14.63.93,24.4,11.32,27.21,14.55q36.45,49.18,73.11,100.85,29,40.89,56.56,81.17c4.22,6.14,13.47,21.37,12.15,41.58A61.42,61.42,0,0,1,422.94,945c-5,14.67-15.47,27-29.26,35.41-12,7.32-27.56,10.82-56.05,7.19-41.57-5.31-47.21-18.16-88.64-30-41.26-11.79-84.29-12.95-113.06-27.82-18.72-9.68-22.14-20.34-22.94-24a29.3,29.3,0,0,1-.65-8.72c.73-9.34,5.68-13.5,9.08-25.22a67.26,67.26,0,0,0,1.54-29.7,156.36,156.36,0,0,1-3-34.33c.43-19.88,1-37.47,12.6-48.91,10.88-10.73,27.76-12.31,36.31-13.11,14.71-1.38,23.33,2.12,32.7-4A28.33,28.33,0,0,0,211.12,730.63Z"/>
  <ellipse class="cls-4" cx="428.49" cy="243.22" rx="29.57" ry="43.27" transform="translate(-27.05 55.49) rotate(-7.18)"/>
  <ellipse class="cls-4" cx="544.05" cy="245.11" rx="52.7" ry="39.88" transform="translate(198.39 731.52) rotate(-78.85)"/>
  <ellipse class="cls-5" cx="540.24" cy="252.22" rx="26.74" ry="20.6" transform="translate(256.58 776.63) rotate(-86.62)"/>
  <ellipse class="cls-6" cx="429.96" cy="253.68" rx="15.7" ry="25.58" transform="translate(-28.35 55.76) rotate(-7.18)"/>
  <path class="cls-7" d="M568.7,290c-27.52-9.09-42.66-16.55-66-26.45a69.68,69.68,0,0,0-54.08,3.06,96.9,96.9,0,0,0-48.2,49.2,10.79,10.79,0,0,0,.85,10.23,263.29,263.29,0,0,0,20.07,26.86c6.12,7.17,12.2,13.53,18,19.12a75.73,75.73,0,0,0,35.54,13.1,76.88,76.88,0,0,0,47-11l45.55-32.06c8.84-6.23,14.47-23,14.82-33.8h0C582.52,301.78,574.9,292,568.7,290Z"/>
  <path class="cls-8" d="M566.83,310.84a193,193,0,0,1-37.67,24.05C508.33,345,483,357.25,452.74,352c-25.39-4.42-43.3-19.27-53.22-29.5"/>
  <line class="cls-8" x1="461.3" y1="274.49" x2="453.54" y2="279.26"/>
  <line class="cls-8" x1="490.44" y1="274.49" x2="496.93" y2="277.27"/>
</svg>
