<svg xmlns="http://www.w3.org/2000/svg" viewBox="0 0 1000 1000"><g id="usb"><path d="M817.93,19.8l-93.18-7.22L637.66,46.51l-63.74,68.35L546.14,204.1l13.7,92.45,15.26,22.51L529,385.79,126.49,817.36l77.26,72.06,83.91-90,57.51,53.63,61.17-65.59-57.51-53.63,51.38-55.1,77.26,72L550.09,673,472.83,600.9,606.24,457.84l63.36-50.65,23.51,13.65,93.18,7.22,87.09-33.92,63.75-68.35,27.77-89.24L951.21,144.1,898.75,66.74Zm49.68,156.86,7.84,53-15.91,51.11L823,319.88l-49.88,19.43-53.38-4.13-46.29-26.89-30-44.3-7.85-53,15.91-51.12L688,120.76l49.89-19.43,53.37,4.14,46.29,26.88Z" fill="#e6bf5f" stroke="#a07919" stroke-linejoin="round" stroke-width="10"/><rect x="52.42" y="849.57" width="134" height="105.64" transform="translate(-621.96 374.27) rotate(-47)" fill="#d7d9d5" stroke="#9b9d99" stroke-linejoin="round" stroke-width="10"/><rect x="115.71" y="894.05" width="35.44" height="27.14" transform="translate(-621.34 386.17) rotate(-47)" fill="#d7d9d5" stroke="#9b9d99" stroke-linejoin="round" stroke-width="10"/><rect x="95.51" y="875.22" width="35.44" height="27.14" transform="translate(-613.99 365.42) rotate(-47)" fill="#d7d9d5" stroke="#9b9d99" stroke-linejoin="round" stroke-width="10"/></g></svg>